<?xml version="1.0" standalone="no"?>
<!DOCTYPE svg PUBLIC "-//W3C//DTD SVG 1.1//EN" "http://www.w3.org/Graphics/SVG/1.1/DTD/svg11.dtd" >
<svg xmlns="http://www.w3.org/2000/svg">
<metadata></metadata>
<defs>
<font id="zurmo_gamification_symbly_rRg" horiz-adv-x="1228" >
<font-face units-per-em="2048" ascent="1638" descent="-410" />
<missing-glyph horiz-adv-x="500" />
<glyph horiz-adv-x="0" />
<glyph horiz-adv-x="682" />
<glyph unicode=" " />
<glyph unicode="!" d="M274 0l17 354l375 656l114 14l64 -37l65 -39l43 -106l-374 -652h-3zM326 184l80 -45h4l139 94l-23 37h-92l-51 84h-43z" />
<glyph unicode="&#x22;" d="M152 29v137q0 12 8 20.5t20 8.5h148q12 0 20 -8.5t8 -20.5v-137q0 -12 -8 -20.5t-20 -8.5h-148q-12 0 -20 8.5t-8 20.5zM152 444v138q0 12 8 20t20 8h148q12 0 20 -8t8 -20v-138q0 -12 -8 -20t-20 -8h-148q-12 0 -20 8t-8 20zM152 858v137q0 12 8 20.5t20 8.5h148 q12 0 20 -8.5t8 -20.5v-137q0 -12 -8 -20.5t-20 -8.5h-148q-12 0 -20 8.5t-8 20.5zM463 31q0 -12 8.5 -21.5t20.5 -9.5h557q11 0 19.5 9.5t8.5 21.5v137q0 12 -8.5 19.5t-19.5 7.5h-557q-12 0 -20.5 -7.5t-8.5 -19.5v-137zM463 446q0 -12 8.5 -21t20.5 -9h557q11 0 19.5 9 t8.5 21v138q0 12 -8.5 19t-19.5 7h-557q-12 0 -20.5 -7t-8.5 -19v-138zM463 860q0 -12 8.5 -21.5t20.5 -9.5h557q11 0 19.5 9.5t8.5 21.5v137q0 12 -8.5 19.5t-19.5 7.5h-557q-12 0 -20.5 -7.5t-8.5 -19.5v-137z" />
<glyph unicode="#" d="M41 360q31 1 58.5 6.5t44.5 16t19.5 24t-20.5 31t-71 35.5q85 3 141 7t134 17t134 34.5t115.5 60t103.5 92.5q19 23 36 68.5t31 89t32 85t49 68t74 27.5q-33 -1 -42 -1l66 2q-6 0 -18 -1q82 1 156.5 -63.5t99.5 -145.5q-6 20 -40 24t-72.5 -6t-71.5 -31t-37 -44 q-8 -36 6 -77t33 -72.5t30 -74t-2 -81.5q-16 -49 -50.5 -90t-73.5 -71.5t-78 -63t-70.5 -78.5t-42.5 -103q92 7 153 -41h-231q31 16 45.5 54t3 81t-52.5 66q-38 22 -82 35.5t-81 19.5t-90 7t-85 -0.5t-90 -5.5t-84 -5l110 76q-27 9 -94.5 14t-95.5 14zM937 906.5 q13 -25.5 44 -25.5t44 25.5t0 51t-44 25.5t-44 -25.5t0 -51z" />
<glyph unicode="$" d="M223 270v13l27 471q7 -69 59 -115.5t121 -46.5h113q71 -61 71 -156q0 94 72 156h111q70 0 122 46.5t60 115.5l27 -471v-13q0 -42 -36.5 -80.5t-99.5 -66.5q35 -11 35 -43q0 -5 -5.5 -16t-13 -24.5t-9.5 -16.5q-7 17 -19 16.5t-24 -13t-15 -26.5q-3 23 -25 36 q-22 14 -29 -14l-1 -2q-2 3 -11 17.5t-14 26.5t-4 22q-65 -10 -121 -10q-60 0 -125 10v-6q0 -15 -28 -57q-9 29 -34 9q-16 -13 -21 -32q-5 24 -27 36q-23 13 -30 -14q-1 -1 -1 -2q-2 4 -10 16.5t-11 19.5t-6.5 20.5t3.5 19.5q10 17 36 27q-64 27 -100.5 65t-36.5 82z M248 842v182h182q73 0 126 -51t58 -123q-5 -75 -56 -130.5t-126 -62.5h-2q-75 0 -128.5 54.5t-53.5 130.5zM371 842q0 -26 17 -44t42 -18q26 0 44 18t18 44q0 25 -18 42t-44 17q-25 0 -42 -17t-17 -42zM614 850q3 72 57 123t126 51h184v-182q0 -77 -54 -131t-130 -54 q-75 8 -127.5 63t-55.5 130zM737 842q0 -26 17.5 -44t42.5 -18q26 0 43.5 18t17.5 44q0 25 -17.5 42t-43.5 17q-25 0 -42.5 -17t-17.5 -42z" />
<glyph unicode="%" d="M158 72.5q0 17.5 12 29.5l158 158q-70 92 -89.5 205.5t15 225t117.5 194.5q138 139 334.5 139t336.5 -139q91 -91 124 -214t0 -245.5t-124 -212.5q-83 -83 -194.5 -117.5t-224.5 -15t-205 89.5l-158 -158q-12 -12 -29.5 -12t-29.5 12l-31 31q-12 12 -12 29.5zM315 549 q0 -162 115 -277q114 -114 277 -114q162 0 276 114q115 115 115 277q0 161 -115 276t-276 115q-162 0 -277 -115t-115 -276zM446 408v278q0 14 11 24.5t24 10.5h471q14 0 24.5 -10.5t10.5 -24.5v-278q0 -14 -10.5 -24.5t-24.5 -10.5h-471q-13 0 -24 10.5t-11 24.5zM475 430 h33v4v4q0 4 2 8q0 19 10 34.5t23 15.5h22q-2 0 -2 6q-16 6 -26.5 21.5t-10.5 33.5q0 24 17 40.5t39 16.5q23 0 39 -16t16 -41q0 -18 -10.5 -33.5t-26.5 -21.5l-2 -6h25q16 0 25 -20.5t9 -41.5v-4h35v252h-217v-252zM717 426h231v47h-231v-47zM717 524h78v39h-78v-39z M717 610h231v72h-231v-72zM834 524h114v39h-114v-39z" />
<glyph unicode="&#x26;" d="M72 848v147q0 12 8 20.5t20 8.5h250q12 0 20.5 -8.5t8.5 -20.5v-147q0 -12 -8.5 -20.5t-20.5 -8.5h-250q-12 0 -20 8.5t-8 20.5zM461 500v147q0 12 8 20.5t20 8.5h250q12 0 20.5 -8.5t8.5 -20.5v-147q0 -12 -8.5 -20.5t-20.5 -8.5h-250q-12 0 -20 8.5t-8 20.5zM461 848 v147q0 12 8 20.5t20 8.5h250q12 0 20.5 -8.5t8.5 -20.5v-147q0 -12 -8.5 -20.5t-20.5 -8.5h-250q-12 0 -20 8.5t-8 20.5zM850 152v147q0 12 8.5 20.5t20.5 8.5h249q12 0 20.5 -8.5t8.5 -20.5v-147q0 -12 -8.5 -20.5t-20.5 -8.5h-249q-12 0 -20.5 8.5t-8.5 20.5zM850 500v147 q0 12 8.5 20.5t20.5 8.5h249q12 0 20.5 -8.5t8.5 -20.5v-147q0 -12 -8.5 -20.5t-20.5 -8.5h-249q-12 0 -20.5 8.5t-8.5 20.5zM850 848v147q0 12 8.5 20.5t20.5 8.5h249q12 0 20.5 -8.5t8.5 -20.5v-147q0 -12 -8.5 -20.5t-20.5 -8.5h-249q-12 0 -20.5 8.5t-8.5 20.5z" />
<glyph unicode="'" d="M0 522q0 19 25 19h528l20 61q3 8 15 12l43 7q6 0 12 -5t6 -12q2 -6 -2.5 -12t-11.5 -6l-33 -4l-16 -54v-4l-47 -243v-5l47 -75v-2h2v-2v-2v-2v-3q0 -12 -15 -16h-2h-57q23 -10 23 -37q0 -17 -12 -29t-29 -12q-19 0 -31 12t-12 29q0 27 24 37h-330q25 -11 25 -37 q0 -17 -12 -29t-29 -12q-19 0 -31 12t-12 29q0 26 25 37h-47q-6 0 -11.5 5t-5.5 11q0 7 5.5 13t11.5 6h473l-31 53h-412q-24 0 -24 17zM53 494l43 -185h418l31 185h-492zM98 459h74l4 -39h-70zM115 385h65l4 -41h-59zM137 813q-1 11 7.5 19t21.5 10l33 8q15 0 22 -10h6v4v2 q0 10 9 10l34 8q10 0 13 -8q0 -2 2 -4l18 61l84 17l43 -49l35 8q37 5 39 -10l33 -160q3 -13 -7 -26t-22 -15l-240 -49q-1 0 -7.5 -9t-12.5 -10l-33 -6q-12 -3 -25 6t-16 21zM207 459h69v-39h-65zM215 385h61v-41h-57zM225 811l33 -156q0 -3 2.5 -5t5.5 -1q8 0 4 8l-30 156 q0 6 -9 6q-6 0 -6 -8zM283 856zM301 754q6 -33 33 -51t59 -11q32 6 50 33t12 59t-33.5 50.5t-59.5 11.5q-32 -6 -50 -33t-11 -59zM311 344v41h68v-41h-68zM311 420v39h72l-2 -39h-70zM317 758q-4 25 9.5 44.5t38.5 24.5q25 6 45.5 -8t25.5 -39q6 -24 -8 -44.5t-39 -26.5 q-25 -4 -45.5 10t-26.5 39zM334 760q5 -18 20 -28t33 -7q18 5 27.5 20t5.5 33q-3 18 -18 27.5t-33 5.5q-17 -3 -27.5 -17.5t-7.5 -33.5zM414 344v41h78l-7 -41h-71zM416 420l2 39h86l-6 -39h-82zM692 403q0 7 2 11l2 14q11 37 40 69.5t57 32.5h47q-2 0 -2 21 q-35 13 -57.5 47t-22.5 74q0 52 34.5 88.5t84.5 36.5q51 0 85.5 -36t34.5 -89q0 -42 -23 -75.5t-59 -45.5l-2 -21h54q2 0 6 -2t6 -2q26 33 51 33h33v19q-26 9 -42.5 35.5t-16.5 56.5q0 38 26 65t62 27q37 0 62.5 -28t25.5 -66q0 -31 -17 -56t-43 -34q0 -19 -2 -19h39 q26 0 49 -29.5t23 -56.5q0 -37 -40 -63.5t-97 -26.5q-21 0 -31 2q-11 -45 -62 -74.5t-120 -29.5q-77 0 -132 35.5t-55 86.5z" />
<glyph unicode="(" d="M123 102v187h125v-162h737v162h123v-187q0 -37 -26.5 -69.5t-63.5 -32.5h-803q-36 0 -64 33t-28 69zM164 977q12 5 32.5 12t79.5 19.5t112.5 13.5t119.5 -17t113 -61q56 -52 90 -108.5t42.5 -100.5t9.5 -80t-5 -55l-6 -20h106l-246 -326l-274 326h174q2 4 5 11t8 32 t5.5 52.5t-6 72t-22.5 90.5q-18 46 -59 77.5t-87.5 43.5t-90.5 17t-73 3z" />
<glyph unicode=")" d="M102 512l269 156v-119h207v207h-119l155 268l156 -268h-119v-207h207v119l268 -156l-268 -156v119h-207v-207h119l-156 -268l-155 268h119v207h-207v-119z" />
<glyph unicode="*" d="M102 512q0 -212 150 -362t362 -150t362 150t150 362t-150 362t-362 150t-362 -150t-150 -362zM193 512q0 174 123.5 298t297.5 124q175 0 298.5 -123.5t123.5 -298.5q0 -174 -124 -298t-298 -124q-173 0 -297 124.5t-124 297.5zM313 612q0 -73 52.5 -125.5t126.5 -52.5 q75 0 127.5 52t52.5 126t-52.5 127.5t-127.5 53.5q-73 0 -126 -53.5t-53 -127.5zM565 332q0 -51 35 -86t86 -35t86 35t35 86t-35 86t-86 35t-86 -35t-35 -86zM721 571q0 -34 24.5 -58t59.5 -24q34 0 58 24t24 58t-24 58t-58 24q-35 0 -59.5 -24t-24.5 -58z" />
<glyph unicode="+" d="M80 72.5q0 17.5 12 29.5l158 158q-70 92 -89.5 205.5t15 225t117.5 194.5q138 139 335.5 139t336.5 -139t139 -336.5t-139 -335.5q-83 -83 -194.5 -117.5t-225 -15t-205.5 89.5l-158 -158q-12 -12 -29.5 -12t-29.5 12l-31 31q-12 12 -12 29.5zM238 549q0 -163 114 -277 t277 -114q162 0 276 114q115 115 115 277q0 161 -115 276t-276 115q-162 0 -277 -115q-114 -114 -114 -276zM467 653q0 63 45.5 106.5t114.5 43.5q72 0 118 -43.5t46 -106.5q0 -53 -46 -108q-8 -49 -39.5 -84t-78.5 -35q-44 0 -77.5 35.5t-41.5 83.5q-41 49 -41 108z M545 354v56q36 -29 82 -29q53 0 82 29v-56q0 -11 -14 -22.5t-33 -14.5v-16q0 -6 -6.5 -10t-14.5 -4h-31q-14 0 -14 14v16q-22 3 -36.5 14.5t-14.5 22.5zM553 487q0 -8 22 -14t52 -6t50.5 6t20.5 14t-11.5 14.5t-29.5 6.5l41 84q-6 4 -10 4q-10 0 -10 -4l-41 -78h-10h-11 l-41 78q0 4 -10 4l-6 -4l41 -84q-18 0 -32.5 -6.5t-14.5 -14.5zM559 360q27 -20 68 -20q18 0 34.5 5t23.5 10l7 5v21q-30 -21 -65 -21q-14 0 -31 5t-27 11l-10 5v-21z" />
<glyph unicode="," d="M289 774q20 10 88 -29.5t76 -89.5q117 175 53 267q-64 96 -47 98q8 -2 21 -6.5t47 -19.5t60.5 -32t51 -45t29.5 -59l14 -123q25 27 31 82q3 24 0 47.5t-5 29t3 11.5q2 1 14 -25q10 -20 37 -85q96 -223 112 -223q4 0 5 8q1 23 -5 42t-10.5 28t-1.5 12q5 5 13.5 -1 t19.5 -29t18 -61q33 -173 9 -297q-22 -118 -110 -196t-204 -78q-131 0 -223 98.5t-92 237.5q0 101 47 178q2 3 7.5 11.5t8.5 11.5q1 2 3 4.5t5.5 12.5t4.5 20.5t-1 27.5t-10 35q-39 99 -69 137zM512 248q34 -39 87 -57q19 -7 34 -7q48 0 82.5 30.5t34.5 72.5q0 37 -53 129 t-64 92q-4 0 -7.5 -32t-9.5 -71.5t-32.5 -75.5t-69.5 -42q-31 -5 -2 -39z" />
<glyph unicode="-" d="M0 283v661q0 20 13.5 33.5t33.5 13.5h1135q20 0 33.5 -13.5t13.5 -33.5v-510q-46 39 -99 39h-32v31q0 60 -43 102.5t-103 42.5t-102.5 -42.5t-42.5 -102.5v-31h-35q-60 0 -102.5 -43t-42.5 -104q0 -48 30 -90h-610q-20 0 -33.5 14t-13.5 33zM141 614h142v142h-142v-142z M768 262q0 22 14.5 37.5t36.5 15.5h129v125q0 22 14.5 37t36.5 15t37 -15t15 -37v-125h127q22 0 36.5 -15.5t14.5 -37.5t-14.5 -36.5t-36.5 -14.5h-127v-129q0 -22 -15 -36.5t-37 -14.5t-36.5 14.5t-14.5 36.5v129h-129q-22 0 -36.5 14.5t-14.5 36.5z" />
<glyph unicode="." d="M74 737l2 13h18q20 -1 51 -4.5t97.5 -19t97.5 -36.5q50 -31 63.5 -58.5t8.5 -66.5q-4 -36 -2.5 -43t14.5 -18l8 -8q11 25 23 34q27 22 34.5 37.5t24.5 87.5q21 83 59.5 139.5t133.5 120.5q105 71 292 95q32 5 63.5 8.5t47.5 4.5l16 1h29l-8 -25q-4 -10 -10.5 -27.5 t-29.5 -67t-47 -92.5t-60.5 -91.5t-73.5 -77.5q-111 -88 -213 -104q-33 -4 -101 -4q-71 3 -96 0q-4 0 -7.5 -1t-7.5 -2.5t-6 -2.5t-6 -4t-6 -4t-7 -5.5t-7 -5.5q-14 -15 -30.5 -83.5t-26.5 -129.5l-9 -61q-4 -5 -12 -5q-5 0 -9 1.5t-6 2.5l-1 1q16 149 49 237q-7 18 -12 23 q-9 5 -12 6.5t-12.5 3t-23.5 2t-42 0.5q-57 -2 -96.5 9t-86.5 46q-27 23 -43.5 66.5t-19.5 75.5zM96 84q10 12 12.5 20.5t0 18t-2.5 12.5q0 6 15.5 16t36 24.5t30.5 29.5q34 52 60 45q10 -4 24.5 0t24.5 12q25 18 45 0q11 -8 14 -8q0 -5 -1 -10l-1 -6v-9l6 -6q6 -12 31 -12 q21 0 27 12l4 4v6l6 35q23 0 29 -6q11 -11 29 -18t30 2q3 3 5.5 4.5t6.5 1.5h7.5t8.5 -2t8.5 -3.5t10 -4t10.5 -4.5q9 -3 20.5 -12t17 -11.5t20.5 2.5q19 9 36 1t17 -19q2 -9 11 -15.5t18 -5.5q28 4 37 -10q4 -10 16 -21.5t18 -13.5q7 -1 10.5 -2.5t5.5 -4.5t1 -9 q0 -2 -0.5 -7.5t-0.5 -8t1 -6.5t4.5 -5.5t9.5 -1.5q55 0 62 -6q6 -4 4 -12.5t-11 -14.5q-27 -12 -41 -8q-4 0 -5 0.5t-4 -1l-4 -2t-4.5 -3t-6.5 -4.5q-1 -1 -4.5 -4t-5.5 -4.5t-5.5 -4t-6.5 -3.5t-6 -1.5t-6 1t-5 4.5q-8 9 -27 9t-26 -5q-9 -6 -27.5 -13.5t-26.5 -3.5 q-43 29 -59 17q-11 -4 -14 -4t-13.5 3.5t-19.5 4.5q-13 2 -30 -10t-31 -13q-12 0 -29.5 5.5t-29 10.5t-13.5 3q-1 -1 1 -8t0.5 -12t-9.5 -1q-18 4 -39.5 2t-28.5 -4t-45 17q-22 2 -25.5 3t-27.5 -4.5t-25 -5.5q-27 -5 -52 4q-11 4 -5 9q1 1 -10.5 11.5t-10.5 16.5 q1 5 -15.5 6.5t-28.5 5.5t-3 15zM127 686q20 -37 45 -63.5t56.5 -43t61 -26.5t73.5 -23q14 -4 22 -6q-4 14 -8.5 25.5t-12 22t-11.5 17t-16 17t-16 13.5t-21 16t-21 16zM526 569q88 9 135 26t121 67q28 20 49.5 50t48 82.5t33.5 65.5q-20 -5 -64 -14.5t-67 -16t-55 -22.5 t-55 -39q-54 -54 -85.5 -95.5t-60.5 -103.5z" />
<glyph unicode="/" d="M102 512q0 212 150 362t362 150t362 -150t150 -362t-150 -362t-362 -150t-362 150t-150 362zM195 512q0 -173 123 -296.5t296 -123.5t296.5 123.5t123.5 296.5t-123.5 296.5t-296.5 123.5t-296 -123.5t-123 -296.5zM307 559q18 126 102 192t205 66t204.5 -66t103.5 -192 h-158l-6 16l-82 -102q8 -15 10 -27q5 -32 -14 -59t-51 -33t-59.5 13t-33.5 53q-5 32 14.5 59t51.5 31q21 5 47 -6l102 96q-48 64 -129 64q-53 0 -92.5 -27.5t-56.5 -77.5h-158zM571 426q3 -14 15.5 -23t27.5 -6q13 3 22 15t7 26q-3 15 -15 23.5t-26 5.5q-15 -1 -24 -13.5 t-7 -27.5zM713 672q34 -29 53 -51l55 55h10q2 -2 0 -6q-3 -5 -55 -72l2 -4h117q-7 39 -45.5 91.5t-91.5 76.5z" />
<glyph unicode="0" d="M0 119v790q0 32 27 59t61 27h1053q34 0 61 -27t27 -59v-790q0 -34 -27 -61t-61 -27h-1053q-34 0 -61 27t-27 61zM131 162h483v440h-483v-440zM131 688h219v176h-219v-176zM395 688h439v176h-439v-176zM702 207h351v88h-351v-88zM702 381h263v88h-263v-88zM702 514h396v88 h-396v-88zM922 688h176v176h-176v-176z" />
<glyph unicode="1" d="M291 729q0 123 92 209t231 86t231.5 -86t92.5 -209q0 -117 -90 -217q-13 -96 -77 -168t-157 -72q-92 0 -155 72t-78 168q-90 100 -90 217zM453 131v115q67 -58 161 -58q91 0 162 58v-115q0 -25 -26 -45t-70 -29v-26q0 -12 -10 -21.5t-25 -9.5h-61q-14 0 -24.5 9.5 t-10.5 21.5v26q-43 9 -69.5 29t-26.5 45zM469 403q0 -18 41.5 -29.5t103.5 -11.5q61 0 102.5 11.5t41.5 29.5q0 13 -23.5 23.5t-62.5 15.5l80 158q2 3 -2 7t-11 5q-18 4 -24 -6l-80 -160h-21h-22l-80 160q-3 10 -20 6q-7 -1 -11 -5t-2 -7l78 -158q-39 -5 -63.5 -15.5 t-24.5 -23.5zM483 141q6 -5 16.5 -11.5t44.5 -18t70 -11.5t69.5 10.5t48.5 20.5l16 10v45q-66 -43 -134 -43q-30 0 -63 10.5t-51 21.5l-17 11v-45z" />
<glyph unicode="2" d="M184 428q0 -178 125.5 -303t302.5 -125q183 0 306.5 119t123.5 313h-165q0 -113 -77 -189.5t-188 -76.5q-109 0 -185.5 76.5t-76.5 185.5q0 111 73.5 187.5t180.5 76.5h10v-129q0 -17 9.5 -23.5t21.5 1.5q14 7 146 108t139 105q13 8 12.5 22.5t-14.5 22.5 q-16 10 -144.5 110.5t-134.5 104.5q-14 7 -24.5 -1t-10.5 -24v-133h-10q-176 0 -298 -125t-122 -303z" />
<glyph unicode="3" d="M27 0v791l233 233h604v-180l146 145h96l53 -55l43 -43v-94l-338 -336v-461h-837zM121 92h651v275h-2l-278 -88l88 278l192 193v182h-467l-184 -187v-653zM260 186v47h418v-47h-418zM260 326v47h186v-47h-186zM260 465v47h232v-47h-232zM260 598v47h232v-47h-232zM260 735 v45h418v-45h-418zM578 430l65 -65l115 41l-10 32l-74 23l-23 74l-33 10z" />
<glyph unicode="4" d="M102 94v836q0 38 28.5 66t66.5 28h835q38 0 66 -28t28 -66v-836q0 -38 -28 -66t-66 -28h-835q-38 0 -66.5 28t-28.5 66zM231 129h768v768h-768v-768zM338 522q0 25 20 45l33 29q18 18 45 18t49 -22l60 -66l250 234q19 16 45 16q32 0 49 -20l29 -33q19 -20 17 -47.5 t-22 -46.5l-288 -269q-1 -1 -4 -4.5t-5 -5.5l-32 -28q-20 -17 -45 -17h-4q-25 0 -46 21l-30 32q0 2 -2 4l-103 111q-19 22 -16 49z" />
<glyph unicode="5" d="M152 420l464 604l2 -4l3 4l462 -604h-258v-420h-422v420h-251z" />
<glyph unicode="6" d="M152 602h254v422h423v-422h261l-467 -602l-2 10l-3 -8z" />
<glyph unicode="7" d="M55 287v461h461v276l658 -510l-13 -2l8 -2l-653 -510v287h-461z" />
<glyph unicode="8" d="M55 510l15 2l-11 2l648 510v-276h462v-461h-462v-287z" />
<glyph unicode="9" d="M0 618q0 13 12.5 25t24.5 12h125q0 -33 18 -82h-143q-13 0 -25 13t-12 32zM78.5 893q-2.5 18 5.5 31q7 13 22.5 16t30.5 -6l119 -66q-17 -15 -37 -73l-125 73q-13 7 -15.5 25zM289 1122.5q3 15.5 16 22.5q13 8 29 4t26 -21l70 -104q-10 -7 -37.5 -22t-36.5 -25l-61 115 q-9 15 -6 30.5zM324 655q0 112 81 190.5t205 78.5q129 0 212 -78t83 -191q0 -95 -82 -192q-16 -90 -72 -151.5t-141 -61.5q-80 0 -139.5 63t-73.5 150q-40 46 -56.5 90.5t-16.5 101.5zM463 121v100q64 -53 147 -53q95 0 148 53v-100q0 -21 -24.5 -40.5t-59.5 -23.5v-30 q0 -12 -11.5 -19.5t-25.5 -7.5h-55q-27 0 -27 27v30q-40 4 -66 23.5t-26 40.5zM479 360q0 -14 38.5 -25t92.5 -11t91.5 11t37.5 25t-20.5 25.5t-52.5 11.5l73 148q-10 10 -18 10q-19 0 -19 -10l-73 -139h-19h-18l-74 139q0 10 -18 10q-4 0 -7 -2.5t-3 -4.5l-1 -3l74 -148 q-33 0 -58.5 -11.5t-25.5 -25.5zM489 131q47 -37 121 -37q33 0 62.5 9t43.5 19l13 9v37q-56 -37 -119 -37q-24 0 -54.5 9.5t-48.5 18.5l-18 9v-37zM573 1059v133q0 12 12 24.5t25 12.5q19 0 32 -12t13 -25v-133h-45h-37zM799 1024l61 104q22 37 53 17q20 -7 24.5 -24.5 t-3.5 -28.5l-62 -115q-11 8 -34 22t-39 25zM971 866l121 68q29 17 53 -10q7 -14 1.5 -31t-18.5 -25l-120 -75q-11 31 -37 73zM1032 573q10 27 10 82h140q20 0 33.5 -11.5t13.5 -25.5q0 -20 -13.5 -32.5t-33.5 -12.5h-150z" />
<glyph unicode=":" d="M246 698l94 50l-45 96l104 8v106l101 -38l43 98l75 -74l80 72l39 -98l101 32l-4 -106l106 -10l-47 -95l92 -53l-82 -68l64 -86l-103 -28l23 -105l-105 17l-4 -19l164 -331l-94 12l-49 -84l-162 325l-29 -38l-20 32l-160 -319l-47 84l-96 -12l159 323l-4 31l-106 -12 l26 104l-102 31l68 84zM485 707q-2 -5 32.5 -32.5t35.5 -31.5q2 -4 -9 -47.5t-7 -46.5t39.5 22t39.5 25t40 -24t40 -21q3 3 -1.5 24t-11 43.5t-5.5 26.5q2 4 35 32t32 34q-2 6 -45.5 7t-46.5 3t-18 44t-21 42t-21 -43t-18 -45t-25.5 -3t-43 -3t-21.5 -6z" />
<glyph unicode=";" d="M203 809q17 82 110 92l-4 80q11 5 33 12t101 19t171 12t168.5 -11t107.5 -21l30 -11q-1 -33 -5 -80q94 -10 111 -92q14 -67 -26 -136.5t-111 -86.5q-51 -12 -121 -2q-41 -37 -90 -60q0 -24 -2.5 -62.5t-5.5 -64.5l-2 -26q161 -66 188 -97l-4 -2v-272h-475v276 q13 18 58 42t83 38l39 15q-8 98 -8 153q-42 19 -90 60q-67 -10 -119 2q-71 17 -111 86.5t-26 136.5zM268 795q-10 -42 15 -92t69 -60q27 -7 60 -4q-66 89 -88 205q-48 -7 -56 -49zM457 80h317v80h-317v-80zM817 639q33 -3 60 4q44 10 69 60t15 92q-11 42 -56 49 q-22 -116 -88 -205z" />
<glyph unicode="&#x3c;" d="M0 0v1024h840v-1024h-840zM94 92h654v840h-654v-840zM211 184v47h418v-47h-418zM211 303v47h418v-47h-418zM211 461v340q0 17 11.5 28t27.5 11h340q16 0 27.5 -11t11.5 -28v-340q0 -15 -12 -27t-27 -12h-340q-15 0 -27 12t-12 27zM264 475h314v313h-314v-313zM307 635 q0 10 8 18l15 13q8 8 18 8q9 0 19 -10l24 -27l103 96q6 6 18 6t20 -8l11 -14q7 -7 7 -19t-7 -20l-119 -109l-4 -4l-12 -12q-9 -6 -19 -6h-2q-6 0 -18 8l-13 14l-43 45q-6 9 -6 21zM844 154v65h180v588h-180v63h246v-153h137v-410h-137v-153h-246zM1090 344h100v336h-100 v-336z" />
<glyph unicode="=" d="M158 72.5q0 17.5 12 29.5l158 158q-70 92 -89.5 205.5t15 225t117.5 194.5q138 139 334.5 139t336.5 -139q91 -91 124 -214t0 -245.5t-124 -212.5q-83 -83 -194.5 -117.5t-224.5 -15t-205 89.5l-158 -158q-12 -12 -29.5 -12t-29.5 12l-31 31q-12 12 -12 29.5zM315 549 q0 -162 115 -277q114 -114 277 -114q162 0 276 114q115 115 115 277q0 161 -115 276t-276 115q-162 0 -277 -115t-115 -276zM492 356v338l55 72h131l57 -55h203v-355h-446z" />
<glyph unicode="&#x3e;" d="M240 119l458 -119v1024l-458 -92v-813zM737 0l328 35v973l-328 16v-1024z" />
<glyph unicode="?" d="M0 174q0 -72 50 -123t122 -51q76 0 126 49t50 127h-67q0 -45 -31.5 -75.5t-77.5 -30.5q-43 0 -73.5 30t-30.5 74q0 46 29.5 76.5t72.5 30.5h6v-50q0 -9 2.5 -12t7.5 0q103 82 117 88q6 3 5.5 9.5t-5.5 9.5q-7 4 -59 44t-56 42q-5 4 -8.5 0.5t-3.5 -9.5v-55h-6 q-72 0 -121 -51t-49 -123zM328 455v463q0 25 16 42t39 17h791q23 0 39 -17t16 -42v-463q0 -25 -16 -42.5t-39 -17.5h-791q-23 0 -39 17.5t-16 42.5zM375 492h55v6v6q0 8 2 14q0 30 17 55t38 25h37v14q-28 11 -45.5 35.5t-17.5 54.5q0 40 27.5 69.5t64.5 29.5q38 0 65 -29.5 t27 -69.5q0 -30 -17.5 -54.5t-45.5 -35.5v-14h41q24 0 38.5 -32t14.5 -62v-6v-6h61v419h-362v-419zM778 485h385v78h-385v-78zM778 647h129v68h-129v-68zM778 793h385v118h-385v-118zM973 647h190v68h-190v-68z" />
<glyph unicode="@" d="M0 459l403 -166v125l-245 94l245 94v127l-403 -168v-106zM514 244h74l129 536h-74zM825 293l404 166v106l-404 168v-127l246 -94l-246 -94v-125z" />
<glyph unicode="A" d="M10 627l600 397l242 -160v142h182v-267l185 -112l-93 -68v-559h-551v272q0 44 -33.5 76.5t-78.5 32.5q-46 0 -80.5 -32.5t-34.5 -76.5v-272h-229v559z" />
<glyph unicode="B" d="M0 500l141 100v209q0 40 28.5 69t68.5 29h892q40 0 69.5 -29t29.5 -69v-594q0 -40 -29.5 -69t-69.5 -29h-892q-40 0 -68.5 29t-28.5 69v182z" />
<glyph unicode="C" d="M82 18q0 -8 5 -13t13 -5h250q17 0 17 18v250q0 8 -5 13.5t-12 5.5h-250q-7 0 -12.5 -5.5t-5.5 -13.5v-250zM82 387q0 -7 5 -12.5t13 -5.5h250q17 0 17 18v250q0 18 -17 18h-250q-8 0 -13 -5.5t-5 -12.5v-250zM82 758q0 -9 5 -15t13 -6h250q17 0 17 21v248q0 18 -17 18 h-250q-8 0 -13 -5t-5 -13v-248zM451 18q0 -8 5.5 -13t12.5 -5h659q8 0 13.5 5.5t5.5 12.5v250q0 8 -5.5 13.5t-13.5 5.5h-659q-7 0 -12.5 -5.5t-5.5 -13.5v-250zM451 387q0 -7 5.5 -12.5t12.5 -5.5h659q8 0 13.5 5.5t5.5 12.5v250q0 7 -5.5 12.5t-13.5 5.5h-659 q-7 0 -12.5 -5.5t-5.5 -12.5v-250zM451 758q0 -9 5 -15t13 -6h659q8 0 13.5 6t5.5 15v248q0 7 -5.5 12.5t-13.5 5.5h-659q-7 0 -12.5 -5t-5.5 -13v-248z" />
<glyph unicode="D" d="M186 887l95 -92q-14 -24 -14 -55q1 -8 1 -16q4 -42 31 -69l117 -116q10 -10 26.5 -15t22.5 0l-189 -188q-168 197 -168 355q0 107 78 196zM248 948q89 78 196 79q158 0 355 -171l-191 -188q6 6 2 22.5t-14 28.5l-117 117q-27 26 -69 30q-8 1 -17 1q-31 0 -53 -13z M336 272l526 529l68 -68q118 -119 168 -241q36 -88 37 -165q1 -29 -5 -55q-18 -100 -94 -174q-74 -75 -174 -93q-27 -5 -55 -5q-78 0 -168 37q-122 50 -240 168q-20 20 -42 43.5t-21 23.5zM344 749q0 18 12 29q12 12 31 12t31 -12l121 -121q12 -12 12 -30.5t-12 -30.5 t-29 -12h-2q-19 0 -31 14l-119 119q-14 13 -14 32z" />
<glyph unicode="E" d="M217 45v471q0 30 22.5 55t51.5 25h4v113q0 131 91.5 223t225.5 92q137 0 227 -73t93 -199h-162v-7q0 134 -158 134q-70 0 -113.5 -49t-43.5 -121v-113h487q27 0 48.5 -25t21.5 -55v-471q0 -45 -70 -45h-651q-74 0 -74 45zM543 229q0 -29 21 -49t52 -20q29 0 48.5 20 t19.5 49q0 3 0.5 11t0.5 11.5t-1.5 9.5t-5 10t-10 8.5t-15.5 7.5v123q0 17 -11 28t-30 11q-17 0 -28 -11t-11 -28v-123q0 -6 -15 -25.5t-15 -32.5z" />
<glyph unicode="F" d="M217 43v473q0 29 21.5 54.5t48.5 25.5h8v113q0 131 92.5 223t226.5 92t226 -92t92 -223v-113h6q30 0 53 -25.5t23 -54.5v-473q0 -43 -76 -43h-651q-70 0 -70 43zM455 596h315v113q0 72 -43.5 120t-114.5 48t-114 -48t-43 -120v-113zM541 252q0 -4 1 -11q1 -10 1 -14 q0 -30 19.5 -48.5t51.5 -18.5q29 0 48.5 19t19.5 48q0 4 1 14q0 5 0.5 8.5t-0.5 5.5q-1 4 -3 11t-9 11.5t-18 7.5v123q0 38 -39 38t-39 -38v-123q-12 -3 -19.5 -7.5t-10.5 -11.5q-4 -8 -4 -14z" />
<glyph unicode="G" d="M307 78l615 434l-615 434v-868z" />
<glyph unicode="H" d="M180 813q3 -26 13 -47l2 -2l380 -658v-2q17 -27 45 -50q28 -22 70 -40q32 -13 72 -14q13 0 26 2q56 6 115 39t91 78t36 89q1 16 1 32q0 26 -4 50q-7 36 -23 66l-281 486q-6 11 -18 14t-23 -4q-12 -6 -15.5 -18t3.5 -23l278 -487q7 -12 12.5 -31t8.5 -55v-8q1 -32 -21 -67 q-24 -39 -78 -69q-55 -32 -105 -32q-76 0 -138 75l-377 658q-4 6 -6 19t-1 33.5t17.5 44.5t46.5 42q38 22 71 22q44 0 83 -38l319 -551q15 -30 15 -54q0 -8 -2 -16q-6 -23 -31 -37q-22 -9 -38.5 -8t-32.5 13.5t-23 20.5t-11 15l-217 381q-8 9 -21.5 12.5t-25.5 -2.5 q-9 -4 -12 -19.5t2 -25.5l221 -377q11 -19 28.5 -36t44 -31.5t55.5 -14t63 16.5q44 28 57 76q4 14 4 30q0 41 -25 90l-317 547l-2 2q-12 18 -33 34t-51 27q-21 8 -48 8q-10 1 -22 -1q-40 -4 -82 -29q-41 -23 -65 -55t-29 -64q-3 -20 -3 -37q0 -10 1 -20z" />
<glyph unicode="I" d="M0 733q0 41 32 73t74 32t73.5 -31.5t31.5 -73.5q0 -28 -16 -57l241 -287q18 6 39 6q20 0 35 -6l131 176q-18 24 -18 60q0 45 30 76.5t74 31.5t76.5 -32t32.5 -76l-2 -21l217 -115q29 29 71 29q43 0 75 -31t32 -73q0 -44 -32 -75.5t-75 -31.5t-73.5 31.5t-30.5 75.5l2 16 l-217 119q-31 -31 -76 -31q-20 0 -35 6l-131 -174q19 -29 19 -59q0 -43 -32 -75t-73 -32q-44 0 -75 32t-31 75q0 31 16 57l-238 285q-16 -8 -41 -8q-43 0 -74.5 32t-31.5 76z" />
<glyph unicode="J" d="M365 776q0 103 72 175.5t175 72.5q104 0 178 -72.5t74 -175.5q0 -144 -102 -209q-1 -1 -9 -8.5t-10.5 -10.5t-8 -10t-7.5 -12.5t-2 -11.5v-451q-4 -7 -10.5 -17.5t-24 -28t-31.5 -17.5q-21 0 -39.5 23t-25.5 40q27 18 27 29q0 8 -21.5 28t-21.5 25v33q0 5 15 19t15 20 q0 3 -15 16t-15 19v29q0 5 10 14.5t10 13.5q0 3 -10 14t-10 17v43l-78 35v92q0 15 -9 32t-19 26l-9 10q-98 57 -98 198zM477 883q0 -19 40 -33t95 -14t95.5 14t40.5 33q0 21 -42 45t-94 24t-93.5 -24t-41.5 -45z" />
<glyph unicode="K" d="M338 391q0 16 12 53q5 22 36 53t65 38h-2l34 319q-31 5 -62.5 27.5t-41.5 38.5q-19 34 -19 49q0 20 76 34t180 17v2q96 0 176 -15.5t80 -35.5q0 -7 -22 -51q-10 -16 -42 -38.5t-63 -27.5l35 -319q32 -7 63 -38t38 -53q10 -31 10 -53q0 -23 -76.5 -38t-198.5 -15 q-125 0 -201.5 15t-76.5 38zM559 309q11 0 28 2t25 2h4q7 0 26 -2t30 -2l-56 -309z" />
<glyph unicode="L" d="M260 664q0 149 103 254.5t251 105.5q147 0 251 -104.5t104 -251.5q0 -14 -0.5 -26t-3.5 -26.5t-4.5 -22t-7.5 -25.5t-8.5 -24t-12 -31t-12.5 -34h-2l-23 -26l-238 -428q-18 -25 -43 -25q-11 0 -22 6t-16 12l-5 7l-237 426q-3 3 -23 28h-2q-5 14 -14.5 39t-13 34t-9 26.5 t-7.5 28t-3.5 25.5t-1.5 32zM477 670q0 -57 40 -97.5t97 -40.5t97.5 40.5t40.5 97.5q0 56 -40.5 95.5t-97.5 39.5t-97 -39.5t-40 -95.5z" />
<glyph unicode="M" d="M0 586q0 57 43 98t104 41q25 0 52 -10q18 55 60 89t95 34q23 0 33 -2q9 65 57.5 109t112.5 44q50 0 91 -26.5t63 -71.5q8 2 24 2q94 0 158 -64q41 41 96 41q57 0 96 -38.5t39 -94.5q0 -14 -2 -22q48 -22 77.5 -65.5t29.5 -96.5q0 -75 -55.5 -127.5t-133.5 -52.5 q-37 0 -77 16q-21 -18 -41 -29h-50v254h-403v-252h-43q-75 15 -126.5 44t-66.5 65q-42 -27 -86 -27q-61 0 -104 41.5t-43 100.5zM473 281h92v231h207v-231h88l-192 -250l-2 2v-2z" />
<glyph unicode="N" d="M0 618q0 59 43 100.5t104 41.5q35 0 52 -10q15 55 58 88.5t99 33.5q4 0 15 -1t16 -1q9 66 57.5 110t114.5 44q49 0 89.5 -26.5t62.5 -71.5h24q93 0 158 -62q38 41 96 41q57 0 96 -39.5t39 -93.5q0 -14 -2 -22q48 -22 77.5 -66t29.5 -96q0 -74 -55.5 -128t-131.5 -54 q-34 0 -79 18q-15 -15 -56 -33l-176 230l-24 30l-39 54l-2 -5v5l-39 -52l-197 -256q-75 13 -128.5 42.5t-70.5 66.5q-39 -27 -84 -27q-62 0 -104.5 40.5t-42.5 98.5zM473 254l193 252l2 -2v2l192 -252h-104v-254h-176v254h-107z" />
<glyph unicode="O" d="M0 498v219q0 119 93 206t214 87h619q121 0 212 -87t91 -206v-219q0 -118 -90.5 -198.5t-212.5 -80.5h-414l-293 -207v207q-76 27 -147.5 107t-71.5 172z" />
<glyph unicode="P" d="M57 0v854l138 170h325l148 -170h503v-854h-1114z" />
<glyph unicode="Q" d="M102 512q0 184 117 325t293 177q52 10 100 10h4q38 0 76 -6q186 -28 310 -171.5t124 -334.5q0 -194 -126.5 -338t-315.5 -170q-46 -4 -68 -4h-4q-38 0 -75 6q-186 28 -310.5 171.5t-124.5 334.5zM197 471q13 -144 114 -249.5t244 -125.5v258l39 39v119h-117l-41 -41h-239 zM201 590h235l41 -41h117v121l-39 39v219q-133 -19 -231 -112.5t-123 -225.5zM635 393l37 -39v-258q138 18 239 119l2 2q107 111 119 254h-241l-39 41h-117v-119zM635 549h117l39 41h237q-25 132 -123 225.5t-233 112.5v-219l-37 -39v-121z" />
<glyph unicode="R" d="M184 0v791l232 233h606v-1024h-838zM229 743h236v232z" />
<glyph unicode="S" d="M102 510q0 48 34 83.5t81 35.5h795q47 0 80.5 -35.5t33.5 -83.5q0 -46 -33.5 -81.5t-80.5 -35.5h-795q-47 0 -81 35.5t-34 81.5z" />
<glyph unicode="T" d="M102 512q0 -212 150 -362t362 -150t362 150t150 362t-150 362t-362 150t-362 -150t-150 -362zM193 512q0 175 123 298.5t298 123.5t298.5 -123.5t123.5 -298.5t-123.5 -298.5t-298.5 -123.5t-298 123.5t-123 298.5zM500 274q0 1 4 33l8 31l45 166l2 4v2v2l-27 4h-18v53 l18 2q13 0 60 7q24 2 55 8l60 10l-66 -240q-8 -36 -8 -37q-4 -16 -4 -18l2 3q2 2 4 3q15 18 27 39l10 14l47 -30l-10 -15q-23 -35 -58 -75q-38 -35 -82 -35q-25 0 -47 16q-22 18 -22 53zM555 731q0 36 25 64q27 24 63 24q35 0 62 -24q24 -27 24 -64q0 -34 -24 -61 q-28 -25 -62 -25q-35 0 -63 25q-25 28 -25 61z" />
<glyph unicode="U" d="M106 66v804q0 28 19 48t47 20h45v-100q0 -13 10.5 -23t24.5 -10h106q14 0 23.5 9.5t9.5 23.5v100h447v-100q0 -14 9.5 -23.5t22.5 -9.5h107q14 0 24.5 10t10.5 23v100h45q27 0 46 -20t19 -48v-804q0 -28 -18.5 -47t-46.5 -19h-885q-28 0 -47 19t-19 47zM172 70h885v663 h-885v-663zM258 891q0 -8 6 -13.5t15 -5.5h53q7 0 12.5 5.5t5.5 13.5v113q0 8 -5.5 14t-12.5 6h-53q-9 0 -15 -6t-6 -14v-113zM281 414q0 -77 34 -129q39 -54 95 -54q49 0 75 33q27 34 27 84q0 46 -31 74q-31 31 -78 31q-38 0 -75 -29q0 60 22 102q24 41 68 41q32 0 67 -14 l7 37q-28 14 -76 14q-62 0 -99 -55q-36 -53 -36 -135zM328 389q34 27 73 27q31 0 50 -19q16 -22 16 -53q0 -36 -16 -55q-15 -21 -43 -21q-34 0 -58 37q-22 39 -22 84zM535 231h36l162 373h-39zM752 250q40 -19 79 -19q52 0 91 33q36 29 36 78q0 32 -20 55q-18 24 -53 33v2 q25 5 47 31q18 21 18 51q0 40 -30 64q-37 26 -82 26q-34 0 -74 -16l6 -37q40 16 66 16q30 0 51 -14q18 -15 18 -41q0 -32 -26 -49q-25 -19 -66 -19h-4v-34h12q43 0 68 -19q24 -21 24 -51q0 -32 -22 -51q-24 -21 -57 -21q-39 0 -74 17zM879 891q0 -8 5.5 -13.5t12.5 -5.5h53 q9 0 15 5.5t6 13.5v113q0 8 -6 14t-15 6h-53q-7 0 -12.5 -6t-5.5 -14v-113z" />
<glyph unicode="V" d="M80 0h231v326h-231v-326zM358 0h234v743h-234v-743zM637 0h233v1024h-233v-1024zM915 0h232v604h-232v-604z" />
<glyph unicode="W" d="M187 649q-3 25 -3 48q0 27 4 49q7 42 15.5 74.5t16.5 49.5l9 17l215 -217q-10 -5 -20 -17q-3 -4 -4 -13q0 -18 15 -58q22 -60 106 -144q53 -54 100.5 -88t77.5 -44t52.5 -12t32.5 2l9 5l215 -215q-13 -5 -38 -12q-24 -8 -98 -12q-19 -1 -38 -1q-56 0 -110 10 q-74 13 -175 64.5t-190 140.5q-65 65 -108 133.5t-60.5 126.5t-23.5 113zM233 791l115 -115q26 -26 62 -28h4q33 0 57 22l78 82q24 22 24 54q-1 2 -1 4q-2 34 -29 60l-113 117q-28 25 -64 27q-2 0 -3 1q-33 0 -54 -24l-82 -80q-22 -22 -22 -54q0 -38 28 -66zM817 207 l113 -117q28 -25 64 -26h3q34 0 56 22l80 82q23 20 23 53v5q-2 36 -28 63l-114 112q-26 27 -62 29h-5q-32 0 -54 -22l-82 -80q-21 -23 -21 -56q0 -38 27 -65z" />
<glyph unicode="X" d="M141 549q0 97 37.5 184.5t101.5 151.5t151.5 101.5t184.5 37.5q129 0 238 -63.5t172.5 -173t63.5 -238.5q0 -180 -119 -313.5t-295 -155.5l-60 483l-372 -307q-58 63 -80.5 129t-22.5 164zM246 152l309 260l45 -410h-10q-90 0 -176 34q-90 36 -158 103q-8 9 -10 13z M616 76q20 0 60 4v-4h-60z" />
<glyph unicode="Y" d="M102 512q0 -60 42 -101.5t102 -41.5h225v-226q0 -60 41.5 -101.5t101.5 -41.5t102 41.5t42 101.5v226h225q60 0 101.5 41.5t41.5 101.5t-41.5 101.5t-101.5 41.5h-225v226q0 60 -42 101.5t-102 41.5t-101.5 -41.5t-41.5 -101.5v-226h-225q-60 0 -102 -41.5t-42 -101.5z " />
<glyph unicode="Z" d="M118 163q0 59 40 99l250 250l-248 248q-42 40 -42 100v2q1 62 44 103q42 41 102 42h2q59 0 99 -40l247 -248l250 248q40 42 100 42h2q62 -1 103 -44q41 -41 42 -101v-3q0 -59 -40 -99l-250 -250l250 -250q42 -43 42 -103t-42 -102q-43 -41 -103 -42h-3q-59 0 -99 40 l-252 252l-250 -250q-43 -41 -102 -41t-100 43q-42 42 -42 104z" />
<glyph unicode="[" d="M0 174q0 -72 50 -123t122 -51q76 0 126 49t50 127h-67q0 -45 -31.5 -75.5t-77.5 -30.5q-43 0 -73.5 30t-30.5 74q0 46 29.5 76.5t72.5 30.5h6v-50q0 -9 2.5 -12t7.5 0q103 82 117 88q6 3 5.5 9.5t-5.5 9.5q-7 4 -59 44t-56 42q-5 4 -8.5 0.5t-3.5 -9.5v-55h-6 q-72 0 -121 -51t-49 -123zM0 618q0 13 12.5 25t24.5 12h125q0 -33 18 -82h-143q-13 0 -25 13t-12 32zM78.5 893q-2.5 18 5.5 31q7 13 22.5 16t30.5 -6l119 -66q-17 -15 -37 -73l-125 73q-13 7 -15.5 25zM289 1122.5q3 15.5 16 22.5q13 8 29 4t26 -21l70 -104 q-10 -7 -37.5 -22t-36.5 -25l-61 115q-9 15 -6 30.5zM324 655q0 112 81 190.5t205 78.5q129 0 212 -78t83 -191q0 -95 -82 -192q-16 -90 -72 -151.5t-141 -61.5q-80 0 -139.5 63t-73.5 150q-40 46 -56.5 90.5t-16.5 101.5zM463 121v100q64 -53 147 -53q95 0 148 53v-100 q0 -21 -24.5 -40.5t-59.5 -23.5v-30q0 -12 -11.5 -19.5t-25.5 -7.5h-55q-27 0 -27 27v30q-40 4 -66 23.5t-26 40.5zM479 360q0 -14 38.5 -25t92.5 -11t91.5 11t37.5 25t-20.5 25.5t-52.5 11.5l73 148q-10 10 -18 10q-19 0 -19 -10l-73 -139h-19h-18l-74 139q0 10 -18 10 q-4 0 -7 -2.5t-3 -4.5l-1 -3l74 -148q-33 0 -58.5 -11.5t-25.5 -25.5zM489 131q47 -37 121 -37q33 0 62.5 9t43.5 19l13 9v37q-56 -37 -119 -37q-24 0 -54.5 9.5t-48.5 18.5l-18 9v-37zM573 1059v133q0 12 12 24.5t25 12.5q19 0 32 -12t13 -25v-133h-45h-37zM799 1024 l61 104q22 37 53 17q20 -7 24.5 -24.5t-3.5 -28.5l-62 -115q-11 8 -34 22t-39 25zM971 866l121 68q29 17 53 -10q7 -14 1.5 -31t-18.5 -25l-120 -75q-11 31 -37 73zM1032 573q10 27 10 82h140q20 0 33.5 -11.5t13.5 -25.5q0 -20 -13.5 -32.5t-33.5 -12.5h-150z" />
<glyph unicode="\" d="M102 512q0 212 150 362t362 150t362 -150t150 -362t-150 -362t-362 -150t-362 150t-150 362zM256 512q0 -51 36 -87t87 -36h113v-113q0 -51 35.5 -86.5t86.5 -35.5t87 35.5t36 86.5v113h113q51 0 87 36t36 87t-36 87t-87 36h-113v113q0 51 -36 86.5t-87 35.5t-86.5 -35.5 t-35.5 -86.5v-113h-113q-51 0 -87 -36t-36 -87z" />
<glyph unicode="]" d="M0 174q0 -72 50 -123t122 -51q76 0 126 49t50 127h-67q0 -45 -31.5 -75.5t-77.5 -30.5q-43 0 -73.5 30t-30.5 74q0 46 29.5 76.5t72.5 30.5h6v-50q0 -9 2.5 -12t7.5 0q103 82 117 88q6 3 5.5 9.5t-5.5 9.5q-7 4 -59 44t-56 42q-5 4 -8.5 0.5t-3.5 -9.5v-55h-6 q-72 0 -121 -51t-49 -123zM408 270v623l100 131h237l113 -109h369v-645h-819z" />
<glyph unicode="^" d="M195 0v1024h839v-1024h-839zM289 92h653v840h-653v-840zM406 184v47h417v-47h-417zM406 303v47h417v-47h-417zM406 461v340q0 17 11.5 28t26.5 11h340q16 0 27.5 -11t11.5 -28v-340q0 -15 -12 -27t-27 -12h-340q-15 0 -26.5 12t-11.5 27zM459 475h313v313h-313v-313z M502 635q0 10 8 18l14 13q8 8 19 8q8 0 18 -10l25 -27l102 96q6 6 19 6q12 0 20 -8l10 -14q7 -7 7 -19t-7 -20l-119 -109l-4 -4l-12 -12q-9 -6 -18 -6h-2q-7 0 -19 8l-12 14l-43 45q-6 9 -6 21z" />
<glyph unicode="_" d="M180 713v139q0 7 5.5 12.5t11.5 5.5h331v136q0 7 5.5 12.5t11.5 5.5h139q8 0 13 -5t5 -13v-136h330q17 0 17 -18v-139h-869zM266 16v602h162v-618h-143q-19 0 -19 16zM514 0v618h201v-618h-201zM801 0v618h162v-602q0 -7 -5.5 -11.5t-11.5 -4.5h-145z" />
<glyph unicode="`" d="M55 461v104q0 6 4.5 12.5t8.5 6.5l92 14q6 21 18 45q-5 7 -51 66q-6 6 -6 12q0 7 6 10q10 16 45.5 52t46.5 36q10 0 10 -4l68 -53q36 15 45 18q9 67 14 90q4 15 17 15h108q6 0 11.5 -4.5t5.5 -10.5l16 -90q7 -2 21.5 -8t21.5 -8l68 51q8 4 12 4q6 0 12 -6 q22 -19 53 -50.5t31 -41.5q0 -4 -4 -12q-1 -2 -51 -64q3 -10 10.5 -26.5t9.5 -22.5l88 -12q15 -4 15 -21v-104q0 -6 -4.5 -12.5t-10.5 -6.5l-90 -14q-2 -8 -9 -23.5t-9 -21.5q9 -13 28.5 -36t24.5 -30q4 -8 4 -12q0 -6 -4 -10q-13 -18 -48 -53t-46 -35q-6 0 -12 6l-68 51 q-40 -17 -43 -18q-10 -73 -16 -90q-4 -15 -17 -15h-108q-5 0 -11 4.5t-6 10.5l-14 90q-8 2 -23 8l-20 8l-70 -49q0 -6 -10 -6q-9 0 -12 6q-17 13 -50.5 47t-33.5 45q0 4 4 12l51 64q-10 23 -20 49l-88 14q-6 0 -10.5 5.5t-4.5 13.5zM279 512q0 -62 44 -106t105 -44 q62 0 106 44t44 106t-44 106t-106 44q-61 0 -105 -44t-44 -106zM725 174v82q0 2 8 4.5t20 4.5t23.5 4t23 3.5t13.5 1.5q11 23 16 29q-5 10 -16.5 42t-11.5 38q0 4 2 4q8 5 38 23t33 18q5 0 28 -28.5t30 -39.5q6 2 16 2q13 0 19 -2q23 36 53 66l4 2q3 0 34 -18t38 -23 q2 0 2 -4t-6 -21t-14 -36t-9 -23q5 -6 16 -29q2 0 13 -1.5t22.5 -3.5t23.5 -4t19.5 -4.5t7.5 -4.5v-82q0 -3 -7.5 -6t-19.5 -5t-23 -4t-22.5 -3.5t-13.5 -1.5q-11 -23 -16 -29q1 -4 9 -23t14 -36t6 -21q0 -2 -2 -4q-7 -5 -38 -23t-34 -18q-5 0 -27.5 28.5t-29.5 39.5 q-6 -2 -19 -2q-10 0 -16 2q-7 -11 -30 -39.5t-28 -28.5q-3 0 -33 18t-38 23q-2 2 -2 4q0 6 11.5 38t16.5 42q-5 6 -16 29q-2 0 -13.5 1.5t-23 3.5t-24 4t-20 5t-7.5 6zM725 768v82q0 3 7.5 6t20 5t24 4t23 3.5t13.5 1.5q11 23 16 29q-5 10 -16.5 42t-11.5 38q0 4 2 4 q8 5 38 23t33 18q5 0 28 -28.5t30 -39.5q6 2 16 2q13 0 19 -2q23 36 53 66l4 2q3 0 34 -18t38 -23q2 0 2 -4t-6 -21t-14 -36t-9 -23q5 -6 16 -29q2 0 13.5 -1.5t22.5 -3.5t23 -4t19.5 -5t7.5 -6v-82q0 -2 -7.5 -4.5t-19.5 -4.5t-23.5 -4t-22.5 -3.5t-13 -1.5 q-11 -23 -16 -29q1 -4 9 -23t14 -36t6 -21q0 -2 -2 -4q-7 -5 -38 -23t-34 -18q-5 0 -27.5 28.5t-29.5 39.5q-6 -2 -19 -2q-10 0 -16 2q-7 -11 -30 -39.5t-28 -28.5q-3 0 -33 18t-38 23q-2 2 -2 4q0 6 11.5 38t16.5 42q-5 6 -16 29q-2 0 -13.5 1.5t-23 3.5t-23.5 4t-20 4.5 t-8 4.5zM874 215q0 -31 21.5 -53.5t52.5 -22.5t53.5 22.5t22.5 53.5t-22.5 52.5t-53.5 21.5t-52.5 -21.5t-21.5 -52.5zM874 809q0 -31 21.5 -52.5t52.5 -21.5t53.5 21.5t22.5 52.5t-22.5 53.5t-53.5 22.5t-52.5 -22.5t-21.5 -53.5z" />
<glyph unicode="a" d="M0 465q0 -31 41 -88l207 -225v-17l59 -63q52 -41 103 -41q43 0 79 41l80 63l25 17l571 536q47 42 51 96q1 7 0 13q0 46 -28 75l-64 80q-14 6 -32.5 17.5t-33 17.5t-32.5 6q-20 0 -35.5 -5.5t-35.5 -17.5t-33 -18l-488 -471l-127 119q-33 38 -51.5 51t-46.5 13 q-14 0 -24.5 -1.5t-21.5 -6t-17 -7.5t-20.5 -11.5t-21.5 -12.5l-63 -64q-16 -16 -28.5 -42.5t-12.5 -53.5z" />
<glyph unicode="b" d="M215 195q0 -68 54.5 -113t139 -63.5t197.5 -18.5t197.5 18.5t138 63.5t53.5 113v12q0 47 -29 108t-77.5 107.5t-95.5 46.5h-111l2 37q76 28 125 98t49 158q0 108 -74.5 185t-177.5 77q-104 0 -178 -77t-74 -185q0 -87 46 -155.5t120 -96.5l4 -41h-96q-61 0 -120 -69.5 t-81 -149.5q-10 -17 -10 -35q-2 -8 -2 -20zM852 1061v59q0 75 40.5 127.5t108.5 52.5h228q70 0 121 -54t51 -126v-59q0 -71 -50.5 -120.5t-121.5 -49.5h-90l-146 -121v121q-73 0 -107 49.5t-34 120.5z" />
<glyph unicode="c" d="M233 195q0 -69 54 -114t138.5 -63t197.5 -18q130 0 182 28.5t63 98.5h-34q-60 0 -102 41.5t-42 101.5q0 59 42 101.5t102 42.5h57q-6 26 -29 42.5t-51 16.5h-111q0 10 5 35q74 27 121.5 96t47.5 154q0 110 -73.5 188t-177.5 78q-103 0 -176.5 -78t-73.5 -188 q0 -84 45.5 -152t118.5 -96q4 -24 4 -37h-97q-59 0 -117.5 -70.5t-82.5 -150.5q-3 -8 -8 -37q-3 -9 -3 -20zM840 268q0 22 14.5 36.5t36.5 14.5h92v93q0 22 14.5 36.5t36.5 14.5q21 0 36 -15t15 -36v-93h93q21 0 36 -15t15 -36t-15 -36t-36 -15h-93v-92q0 -21 -15 -36 t-36 -15q-22 0 -36.5 14.5t-14.5 36.5v92h-92q-22 0 -36.5 14.5t-14.5 36.5z" />
<glyph unicode="d" d="M233 195q0 -69 54 -114t138.5 -63t197.5 -18q304 0 372 127h-161q-60 0 -102 41.5t-42 101.5q0 59 42 101.5t102 42.5h88q-59 59 -111 59h-111q0 10 5 35q74 27 121.5 96t47.5 154q0 110 -73.5 188t-177.5 78q-103 0 -176.5 -78t-73.5 -188q0 -84 45.5 -152t118.5 -96 q4 -24 4 -37h-97q-59 0 -117.5 -70.5t-82.5 -150.5q-3 -8 -8 -37q-3 -9 -3 -20zM840 272q0 -21 15 -36t36 -15h287q22 0 36.5 14.5t14.5 36.5q0 21 -15 36.5t-36 15.5h-287q-20 0 -35.5 -16t-15.5 -36z" />
<glyph unicode="e" d="M215 195q0 -52 30 -90.5t84.5 -61t122.5 -33t152 -10.5t152 10.5t122.5 33t84.5 61t30 90.5v14q0 48 -28.5 110t-76.5 109t-95 47h-113q1 0 1.5 6t1 14.5t1.5 12.5q76 27 124 96t48 154q0 110 -74 188t-178 78q-103 0 -176.5 -77.5t-73.5 -186.5q0 -85 45.5 -153.5 t118.5 -96.5l4 -35h-96q-59 0 -118 -70.5t-83 -150.5q-8 -24 -8 -39q-2 -6 -2 -20z" />
<glyph unicode="f" d="M82 244v18q4 22 8 33q22 75 78.5 141t112.5 66h90q-2 27 -4 37q-68 27 -112 91.5t-44 143.5q0 104 70 177t168 73q97 0 166 -73.5t69 -176.5q0 -82 -45 -147t-115 -90l-4 -35h105q3 0 11.5 2.5t14.5 1.5q54 78 99 78h67l-4 20q-51 21 -83 65.5t-32 102.5q0 76 52 130 t124 54t123.5 -53t51.5 -129q0 -59 -33.5 -106t-85.5 -66q-1 -2 -1.5 -7t-1 -8t-1.5 -3h78q51 0 96 -67t45 -122l-2 -4l2 -10q0 -75 -79 -127.5t-192 -52.5q-25 0 -65 4q-20 -87 -122.5 -146t-237.5 -59q-152 0 -259.5 71.5t-107.5 172.5z" />
<glyph unicode="g" d="M0 70v893h1229v-893h-1229zM92 199l336 336l-336 223v-559zM150 162h948l-316 336l-168 -113l-149 113zM223 834l391 -281l392 281h-783zM819 535l318 -336v559z" />
<glyph unicode="h" d="M0 143v740q0 23 16 38t39 15h1119q23 0 39 -15t16 -38v-740q0 -23 -16 -39t-39 -16h-1119q-23 0 -39 16t-16 39zM231 285h238v88h-238v-88zM231 420h476v90h-476v-90zM231 563h517v94h-517v-94zM991 657h135v185h-135v-185z" />
<glyph unicode="i" d="M96 307v412l310 305h411l316 -305v-412l-316 -307h-411zM365 338q0 -29 20 -51q22 -22 51 -22t51 22l125 125l125 -125q20 -22 49.5 -22t51.5 22t22 51t-22 49l-125 125l125 127q22 20 22 49t-22 51q-22 20 -51.5 20t-49.5 -20l-125 -125l-125 125q-22 20 -51 20t-51 -20 q-20 -22 -20 -51t20 -49l125 -127l-125 -125q-20 -20 -20 -49z" />
<glyph unicode="j" d="M48 30q-9 14 -9 30q0 17 10 36l512 885q19 32 55.5 32t55.5 -32q16 -25 258 -444t256 -443q8 -16 8 -32t-8 -32q-18 -30 -56 -30h-1026q-38 0 -56 30zM549 201q0 -25 20 -45q18 -21 47 -21q27 0 48 21q18 18 18 45q0 29 -18 47q-20 20 -48 20q-30 0 -47 -20 q-20 -20 -20 -47zM553 651q0 -21 12 -129q11 -98 21 -209v-18h57l2 18q4 43 23 211q12 115 12 127q0 29 -18 47q-19 19 -46 19q-29 0 -45 -19q-18 -18 -18 -47z" />
<glyph unicode="k" d="M120 110q4 34 32 62l280 291l6 6q-55 86 -55 193q0 150 106 256t256 106q151 0 257 -105.5t106 -256.5q0 -149 -106 -255t-257 -106q-95 0 -174 45l-10 -12l-280 -291q-29 -28 -63 -32q-5 -1 -10 -1q-28 0 -46 19l-25 24q-18 18 -18 45q0 6 1 12zM305 233l27 -26l145 145 l-26 27zM477 662q0 -110 79 -189.5t189 -79.5t189.5 79.5t79.5 189.5q0 112 -79 190t-190 78t-189.5 -78t-78.5 -190z" />
<glyph unicode="l" d="M86 559v119q0 144 79 245t212 101h432q138 0 236 -103t98 -243v-119q0 -138 -97 -232t-237 -94h-172l-279 -233v233q-74 0 -128.5 28.5t-85 76.5t-44.5 103.5t-14 117.5zM386 461.5q0 -28.5 20 -45.5q20 -20 46 -20t48 20l112 106l121 -112q22 -17 46.5 -17t43.5 17 q20 19 20 48t-20 52l-114 111l112 116q15 20 15 48.5t-15 50.5q-22 14 -49 15h-3q-25 0 -46 -15l-111 -119l-106 104q-22 22 -45.5 22t-42.5 -22q-25 -13 -25 -40t25 -44l102 -112l-114 -115q-20 -20 -20 -48.5z" />
<glyph unicode="m" d="M178 432q0 135 83 247.5t202 160.5v-146q-62 -43 -107 -113t-45 -149q0 -124 89 -211.5t214 -87.5t214.5 87.5t89.5 211.5q0 80 -46.5 151t-109.5 115v144q119 -47 203 -160t84 -250q0 -178 -129 -305t-308 -127q-180 0 -307 126.5t-127 305.5zM539 539q0 -31 21 -52.5 t52 -21.5t52.5 21.5t21.5 52.5v411q0 31 -21.5 52.5t-52.5 21.5t-52 -21.5t-21 -52.5v-411z" />
<glyph unicode="n" d="M102 473v78q0 10 8 17t19 7h172q12 63 47 113l-123 123q-7 7 -7 18t7 19l54 53q7 7 18 7t18 -7l123 -123q50 35 113 47v174q0 9 7 17t17 8h78q10 0 17.5 -8t7.5 -17v-174q63 -12 113 -47l122 123q7 7 18 7t19 -7l54 -53q8 -8 8 -19t-8 -18l-123 -123q35 -50 47 -113h174 q9 0 16.5 -7t7.5 -17v-78q0 -10 -7.5 -17t-16.5 -7h-174q-12 -63 -47 -113l123 -123q8 -7 8 -18t-8 -19l-54 -53q-8 -7 -19 -7t-18 7l-122 123q-50 -35 -113 -47v-172q0 -11 -7.5 -19t-17.5 -8h-78q-10 0 -17 8t-7 19v172q-63 12 -113 47l-123 -123q-7 -7 -18 -7t-18 7 l-54 53q-7 8 -7 19t7 18l123 123q-35 50 -47 113h-172q-11 0 -19 7t-8 17zM391 512q0 -92 65.5 -157.5t157.5 -65.5t158 65.5t66 157.5t-66 157.5t-158 65.5t-157.5 -65.5t-65.5 -157.5z" />
<glyph unicode="o" d="M102 512q0 212 150 362t362 150t362 -150t150 -362t-150 -362t-362 -150t-362 150t-150 362zM195 512q0 -173 123 -296.5t296 -123.5t296.5 123.5t123.5 296.5t-123.5 296.5t-296.5 123.5t-296 -123.5t-123 -296.5zM537 195h155v436h-155v-436zM537 709h155v116h-155 v-116z" />
<glyph unicode="p" d="M102 512q0 212 150 362t362 150t362 -150t150 -362t-150 -362t-362 -150t-362 150t-150 362zM195 512q0 -174 122.5 -297t296.5 -123q173 0 296.5 123.5t123.5 296.5t-123.5 296.5t-296.5 123.5q-174 0 -296.5 -123t-122.5 -297zM410 590h122q0 117 89 117q71 0 71 -66 q0 -31 -13 -49.5t-42 -40.5q-20 -17 -32 -30t-22 -39.5t-10 -61.5v-27h80v23q60 73 88 94q25 19 37 30.5t25.5 40.5t13.5 66q0 26 -10.5 51.5t-33 50t-65 39.5t-98.5 15q-88 0 -143 -61.5t-57 -151.5zM535 195h157v157h-157v-157z" />
<glyph unicode="q" d="M181 468v14q0 163 108 284l-19 20l-10 -10q-12 -12 -20 -6l-43 37q0 16 6 22l67 64q4 7 11.5 8t11.5 -4l37 -37q3 -3 1 -10t-7 -10l-11 -11l21 -20q102 89 244 102v19h-11q-7 0 -16.5 7.5t-9.5 12.5v54q0 3 11 11.5t15 8.5h95q7 0 16.5 -8t9.5 -12v-54q0 -5 -9.5 -12.5 t-16.5 -7.5h-11v-19q138 -13 246 -104l18 16l-10 11q-10 16 -6 22l37 41q16 0 20 -4l70 -70q6 -6 6 -20l-43 -37q-5 -2 -5.5 -2.5t-6 2.5t-8.5 4l-13 10l-14 -18q105 -120 105 -280v-17q-6 -171 -127 -297q-126 -126 -306 -126t-307 126q-121 127 -126 300zM260 478 q0 -148 107 -251q103 -103 248.5 -103t252.5 103q103 103 103 251t-103 251q-107 103 -252.5 103t-248.5 -103q-107 -103 -107 -251zM350 481q0 107 77.5 184.5t186.5 77.5q110 0 187.5 -77.5t77.5 -184.5q0 -112 -77.5 -191t-187.5 -79t-187 78.5t-77 191.5zM547 478 q0 -30 20 -50t47.5 -20t47.5 20q19 27 19 51q0 17 -9 33l73 115l-110 -84q-9 3 -19 3q-24 0 -49 -18q-20 -20 -20 -50z" />
<glyph unicode="r" d="M115 672q0 97 41 200l243 11q19 20 60 51q22 17 73 37q52 19 112 23q20 2 36 1q32 0 49 -6q16 25 43 33h9q57 0 103 -23q48 -25 48 -67v-23q47 -5 68.5 -23t21.5 -57q0 -1 1 -12.5t1 -17.5q38 -10 49 -23q17 -24 17 -53q0 -41 -19 -68q45 -48 45 -96q0 -66 -74 -110 q-4 -2 -22 -12.5t-24.5 -14t-23.5 -12t-28 -12t-27.5 -8.5t-33 -7t-33.5 -2h-47q3 -25 6.5 -36.5t15 -28t19.5 -31.5l18 -45q10 -19 15 -41q22 -55 22 -88q0 -57 -32 -84q-26 -22 -51 -22q-6 0 -11 1q-22 3 -35.5 26.5t-17.5 51.5q-2 16 -7 32.5t-9 25.5l-5 8l-125 176 q-7 9 -84 67.5t-88 65.5q-15 12 -51 12h-223q-45 71 -45 201z" />
<glyph unicode="s" d="M160 152q0 63 44 107t107 44q62 0 105 -43l360 213q-10 30 -10 57t10 54l-348 192q-42 -55 -117 -55q-63 0 -107 44t-44 107t44 107.5t107 44.5t107.5 -44.5t44.5 -107.5l-2 -24l362 -199q45 33 95 33q63 0 107 -44.5t44 -107.5t-44 -107t-107 -44q-52 0 -91 31 l-370 -220q6 -18 6 -38q0 -63 -44.5 -107.5t-107.5 -44.5t-107 44.5t-44 107.5z" />
<glyph unicode="t" d="M217 29v960q0 13 11.5 22t23.5 9q13 0 25 -9t12 -22v-55q63 -24 127 -26h10q58 0 106 14q52 16 111 33.5t111 30.5q33 8 72 8q22 0 46 -2q65 -8 129 -42v-471q-55 29 -111 39q-32 5 -61 5q-22 0 -42 -3q-48 -7 -96 -21.5t-96 -30.5q-47 -16 -95 -26q-35 -7 -75 -7 q-13 1 -27 1q-54 4 -109 25v-432q0 -11 -12 -20t-25 -9q-11 0 -23 9t-12 20z" />
<glyph unicode="u" d="M115 469q0 74 75 117q5 3 37 21.5t47.5 26t46.5 16.5t60 9h49q-3 19 -7.5 29.5t-15.5 27.5t-20 34l-18 34q-9 19 -15 41q-22 62 -22 88q0 57 32 84q27 22 53 22q6 0 11 -1q23 -3 36 -27t15 -51q2 -16 7 -32.5t10 -25.5l4 -8l125 -174q8 -8 85 -65.5t89 -65.5q7 -6 49 -6 h223q20 -61 26.5 -84t12.5 -55.5t6 -65.5q0 -110 -41 -206l-244 -11q-21 -23 -59 -51q-16 -15 -74 -37q-51 -19 -110 -23q-20 -2 -36 -1q-32 0 -48 6q-16 -25 -43 -33h-9q-58 0 -104 23q-50 25 -49 67v23q-46 5 -68 23t-22 57v30q-40 10 -49 23q-19 22 -19 55q0 39 19 68 q-45 48 -45 98z" />
<glyph unicode="v" d="M57 745q0 116 82 197.5t199 81.5q97 0 173.5 -61t98.5 -154q22 93 98 154t175 61q115 0 196.5 -81.5t81.5 -197.5v-9q-1 -70 -45 -154q-48 -88 -108 -155t-131 -126q-64 -53 -159.5 -167t-109.5 -126q2 -2 2 -4v-4l-4 2l-6 -2v4l6 6q-41 54 -118 142.5t-146 148.5 q-195 166 -258 324q-27 62 -27 120z" />
<glyph unicode="w" d="M111 634q0 -18 58 -67q63 -53 132 -107.5t74 -70.5q1 -2 1 -5q0 -28 -40 -178q-32 -119 -32 -161q0 -17 5 -20q3 -2 7 -2q18 0 74 37q68 46 140.5 97.5t87.5 51.5t88 -50q72 -51 142 -95q56 -36 76 -35q5 0 8 2q4 4 4 18q0 40 -35 163q-43 151 -43 179v4q4 16 72 72 q67 57 129 111q57 50 57 68v3q-5 17 -86 21.5t-168 6.5t-100 11q-14 10 -72.5 173t-81.5 163q-17 0 -46 -79t-57.5 -164.5t-41.5 -94.5q-12 -10 -99 -14q-87 -6 -168 -12q-85 -8 -85 -26z" />
<glyph unicode="x" d="M274 0l349 193l331 -193v1024h-680v-1024z" />
<glyph unicode="y" d="M0 195v634q0 32 23 55t55 23h1073q32 0 55 -23t23 -55v-634q0 -32 -23 -55t-55 -23h-1073q-32 0 -55 23t-23 55zM63 248h74v6v10q0 7 4 19q0 42 24 76t54 34h49q-2 0 -2 19q-37 14 -60.5 47.5t-23.5 75.5q0 55 37 94t88 39q52 0 88.5 -38.5t36.5 -94.5q0 -42 -23.5 -76.5 t-60.5 -48.5l-2 -17h55q34 0 55 -44.5t21 -86.5v-8v-6h82v571h-496v-571zM614 238h527v108h-527v-108zM614 461h177v88h-177v-88zM614 657h527v162h-527v-162zM879 461h262v88h-262v-88z" />
<glyph unicode="z" d="M307 328h615v164h-351l351 391v141h-603v-164h334l-346 -391v-141zM309 0h213l266 -254v254h134v131h-613v-131z" />
<glyph unicode="{" d="M102 510q0 212 150 362t362 150q138 0 256 -68.5t187 -186.5t69 -257t-69 -257t-187 -186.5t-256 -68.5q-212 0 -362 150t-150 362zM272 510q0 -141 100.5 -240.5t241.5 -99.5q140 0 240 99.5t100 240.5t-100 240.5t-240 99.5q-141 0 -241.5 -99.5t-100.5 -240.5z M444 510q0 -70 50 -120t120 -50q69 0 118.5 50t49.5 120t-49.5 120t-118.5 50q-70 0 -120 -50t-50 -120z" />
<glyph unicode="|" d="M307 205h615v614h-615v-614z" />
<glyph unicode="}" d="M164 279q0 19 13 32t32 13q9 0 27 -9l145 197l-143 197q-11 -11 -29 -11q-19 0 -32 13t-13 32t13 32t32 13t32 -13t13 -32l244 -28l100 223q-27 10 -27 41q0 19 13 32t32 13t31 -13t12 -32q0 -31 -24 -41l96 -225l244 26v4q0 19 13 32t32 13t32 -13t13 -32t-13 -32 t-32 -13q-9 0 -27 9l-145 -195l141 -195q10 7 23 7q19 0 32 -13t13 -32t-13 -32.5t-32 -13.5t-32 13.5t-13 32.5v4l-236 26l-100 -223q24 -14 24 -41q0 -19 -13 -32t-32 -13t-32 13t-13 32q0 30 29 41l-96 223l-244 -26v-4q0 -19 -13 -32.5t-32 -13.5t-32 13.5t-13 32.5z " />
<glyph unicode="~" d="M233 203l486 487q14 13 26 18t32.5 -0.5t43.5 -29.5q57 -56 13 -100l-488 -490q-45 -45 -102 14q-56 56 -11 101zM262 174q3 -19 21 -35q7 -7 15.5 -12t13.5 -7l5 -1l74 71q-24 6 -37 19q-17 22 -20 39zM666 578q4 -16 20 -35q13 -15 37 -21l82 82q-5 19 -21 35 q-7 8 -15.5 13t-13.5 6l-5 1zM703.5 960q-0.5 -3 3.5 -6l47 -41q10 -7 6 -18l-25 -59q-2 -5 0 -6.5t6 -0.5l60 21q8 6 18 -4l39 -51q3 -3 6.5 -2.5t3.5 6.5l11 61q4 11 14 14l63 9q12 0 2 10l-49 39q-8 8 -4 20l25 58q2 4 -1 7t-7 1l-60 -23q-10 -3 -18 4l-39 52 q-7 7 -10 -2l-11 -64q0 -12 -14 -12l-61 -10q-5 0 -5.5 -3zM997 913l15 -14q8 -8 0 -20l-11 -17q-3 -3 -0.5 -5.5t7.5 -2.5l18 4q10 3 18 -8l9 -19q7 -7 10 3l6 18q3 10 16 10h21q4 0 5.5 2.5t-1.5 5.5l-12 15q-8 11 -2 20l10 17q3 4 1.5 7t-5.5 1l-21 -4q-11 0 -18 10 l-8 16q-7 11 -11 0l-6 -18q-4 -12 -16 -12l-21 2q-11 0 -4 -11z" />
<glyph unicode="&#xa0;" />
<glyph unicode="&#xa1;" d="M180 205h869l-435 614z" />
<glyph unicode="&#xa2;" d="M16 348l203 203q-5 27 -2 65q3 32 -1 58.5t-12 42t-16.5 26.5t-15.5 15l-6 4h2q-71 23 -86 94q-12 51 16.5 96.5t79.5 57.5q53 11 97.5 -18t56.5 -81q16 -71 -37 -120q-2 -2 -4.5 -6.5t-6.5 -18.5t-4 -30t7 -41.5t22 -51.5l86 84l258 -45l21 -129l-377 -377l-258 43z M412 217l581 330l221 -217l-581 -330zM492 205l147 -144l496 281l-148 143zM578 215l69 39l12 -12v-62l41 23l15 -15l-70 -41l-12 15v59l-39 -22zM649 143l70 41l12 -12l-20 -12l12 -10h-29l-32 -19zM676 246l16 10l29 -29q11 -11 22 -4q10 3 0 17l-28 28l16 8l53 -51 l-18 -8l-6 6q0 -11 -10 -18q-21 -12 -41 8zM748 287l16 10l10 -10q-4 15 8 20l17 -14h-2q-18 -11 0 -29l20 -20l-18 -8zM795 313l18 11l6 -9q0 14 10 19q12 9 25 2q0 11 12 20q23 10 41 -8l35 -33l-18 -10l-29 29q-13 10 -21 4q-11 -5 0 -16l29 -29l-18 -10l-29 28 q-10 13 -20 6q-10 -6 0 -16l28 -29l-16 -10zM917.5 372q1.5 14 16.5 21q14 7 31 5t28 -13q12 -10 10.5 -24t-16.5 -21q-14 -9 -31 -6.5t-28 14.5q-12 10 -10.5 24zM944 356q17 -13 31 -4q16 9 2 23t-31 6q-17 -10 -2 -25z" />
<glyph unicode="&#xa3;" d="M137 778l864 246l11 -39l4 -14l49 -170l-864 -246l-21 72zM190 748l11 -35l26 47zM201 0v555h893v-555h-893zM223 629l6 -21q7 2 76 21l107 182q-52 -15 -99 -27zM391 653q30 8 88 27l109 180l-90 -24zM537 197h219v57h-125l125 141v49h-215v-57h121l-125 -141v-49z M539 119h100l53 -41v41h64v47h-217v-47zM567 705l90 24l107 182l-6 -2l-35 -10l-51 -14zM743 754q14 4 29 8.5t32.5 9.5t26.5 8l109 181l-90 -25zM920 805l92 24q-23 76 -27 89z" />
<glyph unicode="&#xa4;" d="M209 862q0 68 47.5 115t114.5 47t114 -47t47 -115q0 -79 -59 -125l135 -209h6h9l135 209q-60 47 -60 125q0 68 47 115t115 47t115 -47t47 -115t-47 -115t-115 -47q-26 0 -69 15l-138 -213q2 -4 2 -15q0 -21 -20 -34v-131q60 -6 100.5 -52t40.5 -108q0 -68 -47 -115 t-115 -47q-66 0 -113.5 47.5t-47.5 114.5q0 61 41.5 107.5t101.5 52.5v131q-21 14 -21 34q0 9 3 15l-140 213q-37 -15 -67 -15q-67 0 -114.5 47t-47.5 115zM274 862q0 -40 28.5 -68t68.5 -28q12 0 32 4l-32 51q-17 0 -29 12t-12 29t12 29t29 12t29 -12t12 -29q0 -11 -6 -20 l32 -49q29 26 29 69q0 40 -28 68t-68 28t-68.5 -28t-28.5 -68zM518 162q0 -40 28 -68t68 -28q41 0 70 28t29 68q0 35 -22 61.5t-56 32.5v-59q20 -10 20 -35q0 -17 -12 -29t-29 -12q-15 0 -27 12t-12 29q0 24 21 35v59q-34 -6 -56 -32.5t-22 -61.5zM762 862q0 -41 31 -69 l32 49q-6 9 -6 20q0 17 12 29t29 12t29 -12t12 -29t-12 -29t-29 -12l-33 -51q20 -4 33 -4q40 0 68 28t28 68t-28 68t-68 28t-69 -28t-29 -68z" />
<glyph unicode="&#xa5;" d="M51 461v311q0 8 8 8h447q91 47 226 100.5t235 89t106 38.5q25 13 65 -0.5t40 -42.5v-711q0 -28 -37.5 -43t-65.5 0q-3 2 -103.5 28.5t-239.5 72.5t-232 94q-11 -38 -15 -68q34 -10 54 -23.5t12 -27.5q-19 -30 -76 -58q-3 -54 0.5 -75.5t16.5 -44.5q42 -79 -58 -99 q-29 -5 -67.5 0t-66 16t-26.5 23l15 88q6 158 0 217q-2 25 -6.5 49t-8.5 35l-4 11v6h-211q-8 0 -8 6z" />
<glyph unicode="&#xa6;" d="M78 119l252 -119v1024l-252 -94v-811zM371 0l180 37v969l-180 18v-1024zM608 84l297 -84v725l-297 -66v-575zM940 0l211 25v688l-211 12v-725z" />
<glyph unicode="&#xa7;" d="M102 512q0 139 69 257t188 186.5t259 68.5q16 0 48 -4q194 -20 327 -166t133 -342q0 -139 -69.5 -257t-188.5 -186.5t-258 -68.5q-211 3 -359.5 152.5t-148.5 359.5zM362 254q0 -88 76 -152.5t172 -72.5q132 0 244 65t177 176t65 242q0 152 -85.5 274.5t-222.5 174.5 q89 -79 89 -195q0 -104 -76.5 -179t-182.5 -75q-107 0 -181.5 -75.5t-74.5 -182.5zM487 272q0 55 37 93t92 38q52 0 89.5 -38.5t37.5 -92.5q0 -52 -37.5 -89.5t-89.5 -37.5q-55 0 -92 37t-37 90zM489 766q0 -53 37.5 -90t91.5 -37q52 0 89.5 37.5t37.5 89.5q0 54 -37.5 92.5 t-89.5 38.5q-54 0 -91.5 -38.5t-37.5 -92.5zM635 1022h10h-10zM692 1014q35 -10 76 -39q-36 28 -76 39z" />
<glyph unicode="&#xa8;" d="M139 219q109 92 164 226.5t55 285.5q0 95 55.5 150.5t151.5 66.5q-6 9 -6 21q0 23 16 39t39 16t39.5 -16t16.5 -39q0 -9 -4 -21q96 -11 150 -66.5t54 -150.5q0 -150 55.5 -285t164.5 -227q0 -29 -21.5 -51.5t-50.5 -22.5h-256q0 -60 -44 -102.5t-104 -42.5t-102.5 42.5 t-42.5 102.5h-256q-30 0 -52 22t-22 52zM514 145q0 -41 29.5 -70.5t70.5 -29.5q11 0 11 10q0 8 -11 8q-34 0 -58 24t-24 58q0 11 -8 11q-10 0 -10 -11z" />
<glyph unicode="&#xa9;" d="M142.5 992.5q16.5 31.5 47.5 31.5h426h426q31 0 48 -32t0 -62q-292 -408 -379 -539v-321q0 -21 -12.5 -45.5t-28.5 -24.5h-107q-16 0 -28.5 24.5t-12.5 45.5v321q-87 131 -379 539q-17 31 -0.5 62.5zM301 934q0 -21 23 -29q44 -20 300.5 -19t290.5 21q17 7 17 27 q0 12 -9 20.5t-20 8.5h-571q-12 0 -21.5 -8.5t-9.5 -20.5z" />
<glyph unicode="&#xaa;" d="M0 465q0 -31 41 -88l207 -225v-17l59 -63q52 -41 103 -41q43 0 79 41l80 63l25 17l571 536q46 41 50.5 95.5t-27.5 88.5l-64 80q-14 6 -32.5 17.5t-33 17.5t-32.5 6q-20 0 -35.5 -5.5t-35.5 -17.5t-33 -18l-488 -471l-127 119q-33 38 -51.5 51t-46.5 13q-14 0 -24.5 -1.5 t-21.5 -6t-17 -7.5t-20.5 -11.5t-21.5 -12.5l-63 -64q-16 -16 -28.5 -42.5t-12.5 -53.5z" />
<glyph unicode="&#xab;" d="M154 20q0 -20 20 -20h164q20 0 20 20v676q0 21 -20 21h-164q-20 0 -20 -21v-676zM154 840q0 -21 20 -21h881q20 0 20 21v164q0 20 -20 20h-881q-20 0 -20 -20v-164zM512 20q0 -20 20 -20h164q21 0 21 20v676q0 9 -6 15t-15 6h-164q-20 0 -20 -21v-676zM870 20 q0 -20 21 -20h164q20 0 20 20v676q0 21 -20 21h-164q-9 0 -15 -6t-6 -15v-676z" />
<glyph unicode="&#xac;" d="M0 43h33v981h-33v-981zM74 47h45v6h-33l33 58v6h-43v-6h33l-35 -58v-6zM74 170h14v854h-14v-854zM129 70q0 -15 2 -17q0 -2 4 -6q2 -2 8 -2q7 0 11 2t8 10v-10h10v51h-10v-30q-5 -9 -8 -11q-2 -4 -9 -4h-4l-4 4v11v30h-8v-28zM139 170h66v854h-66v-854zM180 47h8v29 l11 12q2 2 8 2h4v-12h8v20h-10q-8 0 -10 -2q-2 -1 -11 -10v12h-8v-51zM227 47h9v29q4 8 6 10q0 4 4 4q2 0 2 -2q2 0 2 -6v-35h6v27q3 9 6 12l4 4h2q2 -2 2 -4v-4v-35h9v37q0 4 -1 8l-2 4q-2 2 -6 2t-6 -2l-4 -4l-4 -8v4q0 6 -2 8t-6 2t-6 -2t-6 -10v12h-9v-51zM256 170h14 v854h-14v-854zM287 72q0 -13 6 -19q8 -8 18 -8q11 0 19 8q6 6 6 19q0 12 -6 18q-8 8 -19 8q-10 0 -18 -8q-6 -6 -6 -18zM297 72q0 10 4 14q3 6 10 6q8 0 11 -6q4 -4 4 -14q0 -11 -4 -15q-3 -6 -11 -6q-7 0 -10 6q-4 4 -4 15zM322 170h14v854h-14v-854zM344 82q0 -9 4 -21 q3 -8 10 -12q9 -6 17 -6q2 0 14 4v8q-8 -4 -14 -4t-10 4q-5 2 -9 11q-2 4 -2 16q0 10 2 16q4 9 9 11q4 4 10 4t14 -4v8q-6 2 -14 2q-11 0 -17 -4q-5 -2 -10 -13q-4 -12 -4 -20zM387 170h55v854h-55v-854zM397 47h11v29h8l20 -29h10l-20 33q4 2 8 6t4 6q2 4 2 8q0 2 -1 5 t-1 4q-3 6 -8 6q-2 2 -12 2h-21v-70zM408 84v27h6q9 0 14 -5q4 -4 4 -8q-2 -2 -2 -4t-4 -6q0 -1 -6 -4h-12zM457 47h6v51l2 -6l12 -33h8l11 33l2 6v-51h10v70h-10l-17 -47l-16 47h-8v-70zM494 170h14v854h-14v-854zM547 43h35v981h-35v-981zM627 47h45v8h-37q0 4 4 8 q3 6 6 9l4 6l6 4q11 11 11 14q4 4 4 10q0 5 -2 9q-3 3 -9 6h-10h-10q-2 0 -10 -4v-8q4 4 8 4q2 0 4 2h6q2 0 4.5 -1t3.5 -1q4 -2 4 -9v-6l-8 -8q-2 -4 -6 -8l-4 -4l-8 -8q-3 -6 -6 -9v-6v-8zM627 170h55v854h-55v-854zM688 82q0 -15 8 -27q6 -12 19 -12q6 0 18 8q6 9 6 19 q0 4 -4 12q0 2 -6 8q-2 0 -6 1t-6 1t-10 -4q-7 -3 -9 -8v2q0 14 4 22q7 11 17 11q6 0 14 -4v8q-4 2 -14 2q-15 0 -23 -10q-8 -12 -8 -29zM702 68q0 7 5 12q2 4 10 4t10 -4q4 -4 4 -10q0 -2 -1 -5.5t-1 -5.5l-6 -6q-2 -2 -8 -2q-4 0 -8 4q-5 5 -5 13zM743 170h15v854h-15 v-854zM758 82q0 -18 6 -27q6 -12 18 -12t21 12q6 9 6 27q0 20 -6 29q-8 10 -21 10t-18 -10q-6 -9 -6 -29zM766 84q0 10 4 22q9 9 12 9q4 0 6 -2q4 0 7 -7l-27 -38v8q-2 4 -2 8zM772 57l25 41q2 -4 2 -14q0 -17 -4 -23q-3 -10 -13 -10q-4 0 -6 2zM819 170h55v854h-55v-854z M827 47q12 -4 19 -4q4 0 12 4q4 2 10 8q4 8 4 15q0 9 -10 16q-6 6 -24 6v19h30v8h-41v-35h7q14 0 22 -4q6 -6 6 -12q0 -1 -1 -4t-1 -5l-6 -6q-2 0 -4.5 -1t-3.5 -1q-2 0 -5 1t-5 1q-1 1 -4.5 2t-4.5 2v-10zM891 47h43v6h-16v66h-11q-7 -7 -16 -10v-9l10 4q1 1 3 3.5t3 3.5 v-58h-16v-6zM934 170h14v854h-14v-854zM952 96q0 -2 1 -6t1 -6l9 -8q4 -2 12 -2q2 0 10 4q5 3 8 8v-2q0 -16 -6 -25q-4 -8 -14 -8q-7 0 -15 4v-8q8 -4 15 -4q13 0 22 12q6 9 6 29q0 18 -6 27q-5 10 -18 10q-10 0 -19 -6q-6 -9 -6 -19zM961 96q0 2 1 5t1 5l6 7q1 0 3.5 1 t4.5 1q4 0 8 -4t4 -13q0 -8 -4 -12q-2 -4 -10 -4t-10 4q-4 4 -4 10zM1010 170h39v854h-39v-854zM1020 111h39l-6 -11l-2 -2l-9 -10l-6 -10q-6 -6 -6 -12q-2 -4 -2 -13v-6h10v6v10q1 1 2 4.5t2 4.5t3.5 5t3.5 7l6 6q0 1 1 2t1 2q8 8 8 12q2 2 2 7v6h-47v-8zM1085 63 q0 -7 7 -14q6 -6 16 -6q12 0 18 6q7 7 7 14q0 1 -5 11l-8 8l-4 4l8 8q1 1 2 3t2 3v6q0 5 -2 9q-4 4 -6 4q-4 2 -10 2q-10 0 -14 -4q-6 -6 -6 -13q0 -6 4 -10q2 -4 6 -8h2q-17 -14 -17 -23zM1096 63q0 7 12 19l2 -2l8 -8q4 -4 4 -9q0 -4 -4 -8t-10 -4q-4 0 -8 4q-4 2 -4 8z M1098 104q0 3 4 7q0 4 6 4q4 0 8 -4t4 -7q0 -4 -2 -6l-8 -8l-2 2q-4 2 -8 6q0 1 -1 3t-1 3zM1110 170h23v854h-23v-854zM1178 43h51v981h-51v-981z" />
<glyph unicode="&#xad;" d="M0 283v661q0 20 13.5 33.5t33.5 13.5h1135q20 0 33.5 -13.5t13.5 -33.5v-510q-46 39 -99 39h-32v31q0 60 -43 102.5t-103 42.5t-102.5 -42.5t-42.5 -102.5v-31h-35q-60 0 -102.5 -43t-42.5 -104q0 -48 30 -90h-610q-20 0 -33.5 14t-13.5 33zM141 614h142v142h-142v-142z M768 262q0 22 14.5 37.5t36.5 15.5h129v125q0 22 14.5 37t36.5 15t37 -15t15 -37v-125h127q22 0 36.5 -15.5t14.5 -37.5t-14.5 -36.5t-36.5 -14.5h-127v-129q0 -22 -15 -36.5t-37 -14.5t-36.5 14.5t-14.5 36.5v129h-129q-22 0 -36.5 14.5t-14.5 36.5z" />
<glyph unicode="&#xae;" d="M72 848v147q0 12 8 20.5t20 8.5h250q12 0 20.5 -8.5t8.5 -20.5v-147q0 -12 -8.5 -20.5t-20.5 -8.5h-250q-12 0 -20 8.5t-8 20.5zM461 152v147q0 12 8 20.5t20 8.5h250q12 0 20.5 -8.5t8.5 -20.5v-147q0 -12 -8.5 -20.5t-20.5 -8.5h-250q-12 0 -20 8.5t-8 20.5zM461 500 v147q0 12 8 20.5t20 8.5h250q12 0 20.5 -8.5t8.5 -20.5v-147q0 -12 -8.5 -20.5t-20.5 -8.5h-250q-12 0 -20 8.5t-8 20.5zM461 848v147q0 12 8 20.5t20 8.5h250q12 0 20.5 -8.5t8.5 -20.5v-147q0 -12 -8.5 -20.5t-20.5 -8.5h-250q-12 0 -20 8.5t-8 20.5zM850 500v147 q0 12 8.5 20.5t20.5 8.5h249q12 0 20.5 -8.5t8.5 -20.5v-147q0 -12 -8.5 -20.5t-20.5 -8.5h-249q-12 0 -20.5 8.5t-8.5 20.5zM850 848v147q0 12 8.5 20.5t20.5 8.5h249q12 0 20.5 -8.5t8.5 -20.5v-147q0 -12 -8.5 -20.5t-20.5 -8.5h-249q-12 0 -20.5 8.5t-8.5 20.5z" />
<glyph unicode="&#xaf;" d="M41 154q0 -41 24 -71.5t67 -48t97 -26t119 -8.5q138 0 222.5 37t84.5 117v10q0 59 -51.5 132t-107.5 73h-86v28q61 24 99 79t38 124q0 86 -58.5 146.5t-140.5 60.5q-81 0 -138.5 -61t-57.5 -146q0 -68 35.5 -122.5t93.5 -76.5l4 -32h-76q-48 0 -95 -54.5t-63 -117.5 q-8 -11 -8 -27q-2 -6 -2 -16zM543 836v47q0 60 31 100.5t85 40.5h181q55 0 95 -42t40 -99v-47q0 -57 -39.5 -95.5t-95.5 -38.5h-72l-115 -96v96q-58 0 -84 38.5t-26 95.5zM778 221q0 -52 56.5 -77t148.5 -25t148.5 25t56.5 77v10q0 13 -6 19q-11 42 -42 78.5t-63 36.5h-51 l2 22q38 14 62 49.5t24 81.5q0 57 -38 98t-93 41q-54 0 -93.5 -40.5t-39.5 -98.5q0 -45 26 -82t66 -51v-20h-57q-37 0 -72 -49t-35 -89v-6z" />
<glyph unicode="&#xb0;" d="M72 61v902h1085v-902h-1085zM143 133h267v205h-267v-205zM143 410h267v204h-267v-204zM143 686h267v205h-267v-205zM481 133h267v205h-267v-205zM481 410h267v204h-267v-204zM481 686h267v205h-267v-205zM819 133h266v205h-266v-205zM819 410h266v204h-266v-204zM819 686 h266v205h-266v-205z" />
<glyph unicode="&#xb1;" d="M154 29q0 -12 9 -20.5t21 -8.5h146q12 0 20 8.5t8 20.5v366q0 12 -8 20.5t-20 8.5h-146q-12 0 -21 -8.5t-9 -20.5v-366zM154 541q0 -12 9 -20.5t21 -8.5h146q12 0 20 8.5t8 20.5v147q0 11 -8 20t-20 9h-146q-12 0 -21 -9t-9 -20v-147zM154 840q0 -21 20 -21h881 q20 0 20 21v164q0 20 -20 20h-881q-20 0 -20 -20v-164zM508 29q0 -12 9 -20.5t20 -8.5h147q12 0 20.5 8.5t8.5 20.5v366q0 12 -8.5 20.5t-20.5 8.5h-147q-11 0 -20 -8.5t-9 -20.5v-366zM508 541q0 -12 9 -20.5t20 -8.5h147q12 0 20.5 8.5t8.5 20.5v147q0 11 -8.5 20t-20.5 9 h-147q-11 0 -20 -9.5t-9 -19.5v-147zM862 29q0 -11 8.5 -20t20.5 -9h147q12 0 20.5 9t8.5 20v366q0 12 -8.5 20.5t-20.5 8.5h-147q-12 0 -20.5 -8.5t-8.5 -20.5v-366zM862 541q0 -12 8.5 -20.5t20.5 -8.5h147q12 0 20.5 8.5t8.5 20.5v147q0 12 -8.5 20.5t-20.5 8.5h-147 q-12 0 -20.5 -8.5t-8.5 -20.5v-147z" />
<glyph unicode="&#xb2;" d="M184 428q0 -178 125.5 -303t302.5 -125q183 0 306.5 119t123.5 313h-165q0 -113 -77 -189.5t-188 -76.5q-109 0 -185.5 76.5t-76.5 185.5q0 111 73.5 187.5t180.5 76.5h10v-129q0 -17 9.5 -23.5t21.5 1.5q14 7 146 108t139 105q13 8 12.5 22.5t-14.5 22.5 q-16 10 -144.5 110.5t-134.5 104.5q-14 7 -24.5 -1t-10.5 -24v-133h-10q-176 0 -298 -125t-122 -303z" />
<glyph unicode="&#xb3;" d="M27 0v791l233 233h604v-180l146 145h96l53 -55l43 -43v-94l-338 -336v-461h-837zM121 92h651v275h-2l-278 -88l88 278l192 193v182h-467l-184 -187v-653zM260 186v47h418v-47h-418zM260 326v47h186v-47h-186zM260 465v47h232v-47h-232zM260 598v47h232v-47h-232zM260 735 v45h418v-45h-418zM578 430l65 -65l115 41l-10 32l-74 23l-23 74l-33 10z" />
<glyph unicode="&#xb4;" d="M0 102v177q0 18 12.5 30.5t32.5 12.5h1141q18 0 30.5 -12.5t12.5 -30.5v-177q0 -19 -12 -32t-31 -13h-1141q-20 0 -32.5 13t-12.5 32zM0 455v174q0 19 12.5 31t32.5 12h1141q19 0 31 -12t12 -31v-174q0 -20 -12 -32.5t-31 -12.5h-1141q-20 0 -32.5 12.5t-12.5 32.5z M0 803v176q0 20 12.5 32.5t32.5 12.5h1141q19 0 31 -12.5t12 -32.5v-176q0 -17 -12 -29t-31 -12h-1141q-20 0 -32.5 11.5t-12.5 29.5zM438 496h705v90h-705v-90zM702 145h441v88h-441v-88zM879 848h264v90h-264v-90z" />
<glyph unicode="&#xb6;" d="M147 297l422 -297l514 362l-151 103l-363 -246l-272 184zM229 557l340 -240l432 306l-137 98l-295 -209l-200 143zM270 805l312 219h161l218 -154l-392 -276zM379 811l190 -135l27 18l-190 135zM451 866l192 -135l25 19l-191 133zM524 920l191 -134l24 19l-190 133z" />
<glyph unicode="&#xb7;" d="M109 285v55l239 207q-2 2 -2 8v55q0 15 13 26t28 11q14 0 26 -10t13 -23l119 103v160q0 34 21 90.5t44 56.5q22 0 43 -57t21 -90v-160l119 -103q1 13 12.5 23t25.5 10q15 0 28 -11t13 -26v-55q0 -6 -2 -8l240 -207v-55l-436 135q-11 -133 -27 -250l184 -143v-27l-206 57 q-7 -26 -15 -26q-10 0 -16 26l-207 -57v27l184 143l-26 250zM459 565q74 -86 149 -86h2q80 0 150 88q-74 83 -150 86h-2q-73 -3 -149 -88zM496 565q41 41 69 53l-4 -4q-20 -20 -20 -49t20 -49l6 -6q-32 13 -71 55zM565 565q0 17 13 33q12 12 32 12q19 0 31 -12 q14 -14 14 -33t-14 -30q-12 -15 -31 -15q-20 0 -32 15q-13 13 -13 30zM649 510q4 2 8 6q21 21 21 49t-21 49l-2 4q32 -14 68 -53q-41 -45 -74 -55z" />
<glyph unicode="&#xb8;" d="M252 512l725 -512v1024z" />
<glyph unicode="&#xb9;" d="M291 729q0 123 92 209t231 86t231.5 -86t92.5 -209q0 -117 -90 -217q-13 -96 -77 -168t-157 -72q-92 0 -155 72t-78 168q-90 100 -90 217zM453 131v115q67 -58 161 -58q91 0 162 58v-115q0 -25 -26 -45t-70 -29v-26q0 -12 -10 -21.5t-25 -9.5h-61q-14 0 -24.5 9.5 t-10.5 21.5v26q-43 9 -69.5 29t-26.5 45zM469 403q0 -18 41.5 -29.5t103.5 -11.5q61 0 102.5 11.5t41.5 29.5q0 13 -23.5 23.5t-62.5 15.5l80 158q2 3 -2 7t-11 5q-18 4 -24 -6l-80 -160h-43l-80 160q-3 10 -20 6q-7 -1 -11 -5t-2 -7l78 -158q-39 -5 -63.5 -15.5 t-24.5 -23.5zM483 141q6 -5 16.5 -11.5t44.5 -18t70 -11.5t69.5 10.5t48.5 20.5l16 10v45q-66 -43 -134 -43q-30 0 -63 10.5t-51 21.5l-17 11v-45z" />
<glyph unicode="&#xba;" d="M102 512q0 212 150 362t362 150t362 -150t150 -362t-150 -362t-362 -150t-362 150t-150 362zM195 512q0 -173 123 -296.5t296 -123.5t296.5 123.5t123.5 296.5t-123.5 296.5t-296.5 123.5t-296 -123.5t-123 -296.5zM537 195h155v436h-155v-436zM537 709h155v116h-155 v-116z" />
<glyph unicode="&#xbb;" d="M57 848q0 -12 8.5 -20.5t20.5 -8.5h147q12 0 20.5 8.5t8.5 20.5v147q0 12 -8.5 20.5t-20.5 8.5h-147q-12 0 -20.5 -8.5t-8.5 -20.5v-147zM262 141q0 -12 9 -21t20 -9h147q12 0 20.5 9t8.5 21v146q0 12 -8.5 20t-20.5 8h-147q-11 0 -20 -8t-9 -20v-146zM262 494 q0 -10 9 -19.5t20 -9.5h147q12 0 20.5 9t8.5 20v147q0 12 -8.5 20.5t-20.5 8.5h-147q-11 0 -20 -8.5t-9 -20.5v-147zM350 848q0 -12 8.5 -20.5t20.5 -8.5h557q11 0 20 8.5t9 20.5v147q0 12 -9 20.5t-20 8.5h-557q-12 0 -20.5 -8.5t-8.5 -20.5v-147zM555 141q0 -12 8.5 -21 t20.5 -9h557q12 0 20 9t8 21v146q0 12 -8 20t-20 8h-557q-12 0 -20.5 -8t-8.5 -20v-146zM555 494q0 -11 8.5 -20t20.5 -9h557q12 0 20 9t8 20v147q0 12 -8 20.5t-20 8.5h-557q-12 0 -20.5 -8.5t-8.5 -20.5v-147z" />
<glyph unicode="&#xbc;" />
<glyph unicode="&#xbd;" />
<glyph unicode="&#xbe;" />
<glyph unicode="&#xbf;" d="M88 545q0 187 82 284q17 20 44.5 37t66.5 36t55 28q56 32 88.5 48.5t84.5 31t105 14.5q144 0 304 -98q136 -82 180 -150q28 -44 35.5 -97.5t7.5 -131.5q0 -81 -125 -131l-98 -355q0 -25 -90.5 -43t-217.5 -18q-125 0 -215 18t-90 43l-100 357q-117 50 -117 127zM266 788 q0 -21 15 -36t36 -15q22 0 37 14.5t15 36.5t-15 37t-37 15q-21 0 -36 -15t-15 -37zM285 377l80 -283q27 -9 65 -14l-35 168q-3 9 2.5 16.5t14.5 9.5t17 -3.5t9 -14.5l39 -182l62 -6v174q0 9 5.5 15.5t14.5 6.5q19 0 19 -22v-174q10 -2 34 -2q8 0 23 1t22 1v174q0 9 6 15.5 t15 6.5t14.5 -6.5t5.5 -15.5v-172q18 0 50 4l36 182q1 9 9.5 14.5t17.5 3.5q8 -2 12.5 -9.5t3.5 -16.5l-34 -168q34 4 63 14l80 283q-140 -35 -324 -35q-187 0 -327 35zM416 874q0 -29 21 -50t50 -21q31 0 51.5 20.5t20.5 50.5t-21 51t-51 21q-29 0 -50 -21.5t-21 -50.5z M567 975q0 -7 5.5 -12t11.5 -5q18 0 18 17q0 16 -18 16q-6 0 -11.5 -4.5t-5.5 -11.5zM590 788q0 -15 12 -25.5t27 -10.5t27 10.5t12 25.5q0 17 -11.5 28t-27.5 11t-27.5 -11t-11.5 -28zM657 905q0 -19 14.5 -33t33.5 -14q20 0 33.5 14t13.5 33q0 20 -13.5 33.5t-33.5 13.5 q-19 0 -33.5 -13.5t-14.5 -33.5zM786 834q0 -29 21.5 -50.5t50.5 -21.5q30 0 51 21t21 51t-21 50.5t-51 20.5q-29 0 -50.5 -21t-21.5 -50z" />
<glyph unicode="&#xc0;" d="M0 512q0 -19 14 -47q98 -158 260 -253t340 -95q181 0 343.5 94.5t259.5 253.5q12 24 12 47t-12 47q-98 158 -260.5 253t-342.5 95q-178 0 -340 -95t-260 -253q-14 -28 -14 -47zM88 512q105 164 262 242q-43 -70 -43 -154q0 -127 90.5 -217t216.5 -90q128 0 218 90t90 217 q0 88 -41 154q160 -81 260 -242q-93 -142 -231 -224.5t-296 -82.5q-157 0 -295.5 82.5t-230.5 224.5zM406 600q0 86 61 147.5t147 61.5q14 0 23.5 -9.5t9.5 -23.5q0 -16 -8 -24q-9 -9 -25 -9q-58 0 -99.5 -42t-41.5 -101q0 -14 -9.5 -23.5t-23.5 -9.5t-24 10t-10 23z" />
<glyph unicode="&#xc1;" d="M39 0v575h1151v-575h-1151zM39 641v383h1151v-383h-1151zM102 63h1024v449h-1024v-449zM102 705h1024v256h-1024v-256zM166 129v127h512v-127h-512zM166 319v130h129v-130h-129zM166 768v127h129v-127h-129zM358 319v130h127v-130h-127zM358 768v127h127v-127h-127z M551 319v130h127v-130h-127zM551 768v127h127v-127h-127zM743 129v127h127v-127h-127zM743 319v130h320v-130h-320zM743 768v127h127v-127h-127zM934 129v127h129v-127h-129zM934 768v127h129v-127h-129z" />
<glyph unicode="&#xc3;" />
<glyph unicode="&#xc4;" d="M0 311q0 64 53 113v20q-45 64 -45 144q0 79 45 143v10q-53 53 -53 117q0 61 43 104.5t102 43.5q63 0 111 -48q121 41 279 41q159 0 280 -41q45 52 111 52q61 0 103 -43t42 -105q0 -67 -53 -110v-21q45 -61 45 -137h-135v270h-785v-551h502v-131q-35 -4 -110 -4 q-159 0 -277 37q-48 -51 -113 -51q-59 0 -102 43t-43 104zM692 262v41q0 12 15 12h90q6 36 24 60l-65 65q-3 3 -3 9.5t3 9.5l28 28q3 3 9.5 3t9.5 -3l65 -65q24 18 60 24v93q0 12 12 12h41q12 0 12 -12v-93q36 -6 60 -24l63 65q10 7 21 0l28 -28q3 -3 3 -9.5t-3 -9.5 l-65 -65q18 -24 24 -60h93q12 0 12 -12v-41q0 -12 -12 -12h-93q-6 -36 -24 -60l65 -63q7 -10 0 -21l-28 -28q-11 -7 -21 0l-63 65q-24 -18 -60 -24v-90q0 -15 -12 -15h-41q-12 0 -12 15v90q-36 6 -60 24l-65 -65q-3 -3 -9.5 -3t-9.5 3l-28 28q-7 10 0 21l65 63 q-18 24 -24 60h-90q-15 0 -15 12zM844 283q0 -48 34 -82.5t83 -34.5q47 0 81.5 35t34.5 82q0 49 -34 82.5t-82 33.5q-50 0 -83.5 -33.5t-33.5 -82.5z" />
<glyph unicode="&#xc5;" />
<glyph unicode="&#xc6;" />
<glyph unicode="&#xc7;" />
<glyph unicode="&#xc8;" d="M137 561q-33 196 27 346q77 -80 188 -80q92 0 160.5 52.5t91.5 144.5h19q23 -92 91 -144.5t160 -52.5q112 0 189 80q62 -156 29 -346q-15 -86 -63.5 -174.5t-109 -155.5t-123.5 -120.5t-112 -82t-70 -28.5t-70.5 28t-113.5 81.5t-124.5 120.5t-108 155.5t-60.5 175.5z M346 477q0 -12 10 -12l64 -10q6 -19 14 -37q-26 -30 -37 -45q-4 -4 -4 -8q0 -8 25 -33t37 -33q0 -4 8 -4t8 4l49 35q3 -1 31 -12l10 -66q0 -10 12 -10h76q10 0 13 10q5 12 8 37.5t4 28.5q12 2 31 14l47 -37q4 -4 10 -4q3 0 9.5 5t15.5 13.5t16.5 16.5t15.5 16l10 10l2 9 q0 1 -1 4t-1 4q-19 22 -38 47q1 4 6 15.5t6 17.5l65 10q11 0 11 12v76q0 10 -11 14l-63 8q-2 6 -7 17.5t-7 17.5l36 45q2 4 2 11t-23.5 31.5t-35.5 33.5q-4 4 -8 4q-2 0 -5 -1t-5 -1l-47 -37q-5 1 -15.5 5.5t-15.5 5.5l-12 63q0 10 -13 10h-76q-9 0 -12 -10q-7 -37 -10 -63 q-1 0 -33 -13l-47 37q0 4 -8 4t-34.5 -26.5t-31.5 -36.5q-4 0 -4 -6q0 -7 4 -11l37 -45q-4 -8 -14 -33l-66 -10q-8 0 -8 -14v-74zM506 514q0 43 31 75t75 32q43 0 75 -32t32 -75q0 -44 -32 -75t-75 -31q-44 0 -75 31t-31 75z" />
<glyph unicode="&#xc9;" d="M102 195q0 14 2 20q0 12 9 39q24 80 82.5 150.5t117.5 70.5h97q-2 25 -4 35q-73 28 -118.5 96.5t-45.5 153.5q0 109 73.5 186.5t176.5 77.5q106 0 179.5 -78t73.5 -188q0 -86 -48.5 -155t-125.5 -95q-1 -4 -1.5 -12.5t-1 -14.5t-1.5 -6h115q47 0 95.5 -47t77 -109 t28.5 -110v-14q0 -52 -30 -90.5t-84.5 -61t-123.5 -33t-153 -10.5q-113 0 -197.5 18t-138.5 63t-54 114zM420 406l63 -64l-53 -238l62 -61l61 61l-53 238l63 64h-143zM717 504q15 41 44.5 74.5t59.5 33.5h51q0 15 -2 19q-39 15 -63.5 52.5t-24.5 82.5q0 58 40 100.5t96 42.5 q57 0 96 -42t39 -101q0 -47 -26 -84t-66 -51l-3 -19h60q39 0 73.5 -50.5t34.5 -92.5v-8q0 -54 -57.5 -79.5t-150.5 -25.5q-9 0 -27.5 1t-26.5 1q-29 56 -68 97t-79 49zM889 412q0 -11 8.5 -20t20.5 -9q10 0 18 9t8 20q0 10 -8 18t-18 8q-12 0 -20.5 -7.5t-8.5 -18.5z M889 481q0 -12 8.5 -20t20.5 -8q11 0 18.5 8t7.5 20q0 11 -8 19t-18 8q-12 0 -20.5 -8t-8.5 -19zM889 551q0 -12 8.5 -20.5t20.5 -8.5q11 0 18.5 8.5t7.5 20.5q0 11 -8 19t-18 8q-12 0 -20.5 -8t-8.5 -19z" />
<glyph unicode="&#xca;" d="M31 43v473q0 29 21 54.5t48 25.5h9v113q0 131 92.5 223t226.5 92t225.5 -92t91.5 -223v-47l-30 24q0 4 -10 4q-11 0 -47 -36.5t-46 -51.5q-6 -3 -6 -10q0 -6 6 -12q3 -4 23 -28t29 -38q-14 -29 -19 -45l-92 -14q-4 0 -8 -6.5t-4 -12.5v-104q0 -19 14 -19l88 -14 q4 -11 21 -49l-52 -64q-4 -8 -4 -12q0 -11 33.5 -45t50.5 -47q3 -6 13 -6t10 6l69 49q5 -1 20 -7.5t23 -8.5v-72q0 -25 -19.5 -34t-55.5 -9h-652q-69 0 -69 43zM268 596h316v113q0 72 -43.5 120t-114.5 48t-114.5 -48t-43.5 -120v-113zM639 344v80q0 14 8 14l70 11 q8 20 14 32q-12 19 -39 49q-4 8 -4 11q0 4 4 8q8 12 35 38.5t35 26.5l8 -2l51 -41l33 15l5 30t7 37q0 11 13 11h79q13 0 13 -11l12 -67q5 -2 16 -7t17 -6l51 39q2 0 5 1t5 1q4 0 8 -4q2 -2 14 -13t22 -21t19 -20.5t9 -14.5q0 -2 -1 -5.5t-1 -5.5q-26 -30 -39 -47q2 -8 7 -20 t7 -17l68 -8q10 -3 10 -16v-78q0 -14 -10 -14l-70 -11q-1 -7 -6 -19t-6 -15q23 -31 39 -49q4 -8 4 -11q0 -6 -4 -6q-8 -12 -35 -39.5t-35 -27.5q-2 0 -10 4l-51 39q-32 -13 -33 -13q-4 -46 -12 -69q0 -11 -13 -11h-79q-13 0 -13 11l-12 69q-1 0 -33 13l-51 -37q0 -6 -8 -6 t-8 6q-12 8 -38 33.5t-26 33.5q0 7 2 11q8 9 21 25t18 22q-9 21 -14 36l-68 13q-10 0 -10 12zM807 383q0 -46 33.5 -79.5t79.5 -33.5t79 33.5t33 79.5t-33 79.5t-79 33.5t-79.5 -33.5t-33.5 -79.5z" />
<glyph unicode="&#xcb;" d="M43 43v473q0 29 21.5 54.5t48.5 25.5h8v113q0 131 92.5 223t226.5 92t226 -92t92 -223v-113h6q30 0 53 -25.5t23 -54.5v-473q0 -43 -76 -43h-651q-70 0 -70 43zM283 596h315v113q0 72 -43.5 120t-114.5 48t-114 -48t-43 -120v-113zM369.5 255q-0.5 -4 0.5 -14t1 -14 q0 -30 19.5 -48.5t51.5 -18.5q29 0 48.5 19t19.5 48q0 4 1 14t0 14t-3 11t-9 11.5t-18 7.5v123q0 38 -39 38t-39 -38v-123q-12 -3 -19.5 -7.5t-10.5 -11.5t-3.5 -11zM834 791q0 72 52 123t126 51q72 0 123 -51t51 -123q0 -101 -70 -140q-24 -24 -24 -49v-63l-56 -25v-31 q0 -4 -7 -11.5t-7 -10.5q0 -2 7 -9t7 -10v-20q0 -4 -11 -14t-11 -11q0 -5 11 -14.5t11 -13.5v-23q0 -4 -15 -18t-15 -19q0 -7 18 -20q-3 -10 -16.5 -27.5t-28.5 -17.5q-10 0 -22 11t-19 23l-6 11v317q0 4 -1.5 8t-5 8.5t-6.5 7t-7.5 7l-6.5 6.5q-71 47 -71 148zM915 866 q0 -13 28.5 -22.5t68.5 -9.5q39 0 66.5 9.5t27.5 22.5q0 14 -29.5 31.5t-64.5 17.5q-37 0 -67 -17.5t-30 -31.5z" />
<glyph unicode="&#xcc;" d="M14 645q6 -54 35.5 -87.5t73.5 -33.5q37 0 63 23q27 24 27 61t-18 58q-25 31 -78 22q-6 36 20.5 77.5t67.5 63.5l-41 58q-69 -33 -114.5 -98t-35.5 -144zM229 145h95l28 88h158l27 -88h98l-152 428h-102zM258 645q-10 79 35 144.5t113 97.5l43 -58q-42 -22 -68.5 -63.5 t-20.5 -77.5q19 4 41.5 -0.5t34.5 -21.5q2 -2 5.5 -6t5 -5.5t3.5 -5.5t3 -6.5t1.5 -7t0.5 -10.5v-11h-21h-86l-29 -77q-51 26 -61 108zM377 307l55 168l53 -168h-108zM664 145h137q10 0 45 5q26 9 35 16q15 11 20 24q14 20 14 50q0 27 -12 45q-11 17 -35 26q16 6 23 17 q14 17 14 47q0 27 -14 47q-21 30 -80 33h-147v-310zM725 199v82h76q10 0 30 -5q19 -10 19 -32q0 -30 -21 -39q-9 -6 -30 -6h-74zM725 332v67h66q28 0 36 -4q17 -6 17 -28q0 -17 -13 -27q-16 -8 -32 -8h-74zM958 297q0 -74 37 -117t103 -43q52 0 88 31q34 34 43 82h-66 q-8 -26 -14 -35q-19 -22 -51 -22q-34 0 -54 26q-20 23 -20 78q0 53 18 80q23 29 56 29q30 0 51 -21q8 -11 14 -35h66q-3 30 -21 60q-37 49 -112 49q-57 0 -97 -37q-41 -44 -41 -125z" />
<glyph unicode="&#xcd;" d="M102 0h658v145h-658v-145zM102 293h1024v145h-1024v-145zM102 586h1024v145h-1024v-145zM102 879h1024v145h-1024v-145z" />
<glyph unicode="&#xce;" d="M197 119v854q0 18 13 34.5t28 16.5h59v-936h-59q-16 0 -28.5 8.5t-12.5 22.5zM262 55h664q26 0 44.5 11.5t18.5 33.5v818q43 0 43 -56v-817q0 -45 -49 -45h-666q-26 0 -40.5 12t-14.5 43zM317 88v936h381v-387l74 43l72 -43v387h63q14 0 25.5 -16.5t11.5 -34.5v-854 q0 -14 -10.5 -22.5t-26.5 -8.5h-590z" />
<glyph unicode="&#xcf;" d="M84 4v10q15 -6 22 -6t9 2q6 3 6 4q2 2 2 9q0 4 -2 8q-1 1 -4.5 3.5t-5.5 4.5l-7 2l-4 4q-14 6 -14 21q0 8 6 14t21 6q10 0 18 -2v-8q-8 2 -18 2q-9 0 -13 -2q-4 -4 -4 -8q0 -7 2 -11l8 -6l5 -2l6 -2l4 -2q12 -9 12 -22q0 -9 -6 -15q-5 -8 -23 -8q-6 0 -8 2q-2 0 -12 2z M123 188v351q0 22 17 33.5t42 11.5h62q10 0 15.5 -1t12 -7.5t11.5 -20.5h12v6v4q4 19 18 19h70q16 0 20 -19l-2 -10h2l58 107h160l59 -107h129v143h8v-143h133v-8h-133v-332q0 -24 -21.5 -41.5t-47.5 -17.5h-455q-4 0 -21 -14.5t-28 -14.5h-62q-23 0 -41 19t-18 42zM152 4 v84h8v-84h-8zM160 45l30 43h11l-29 -39l33 -45h-12zM207 33v55h20v-57v-15q0 -4 4 -6q1 0 3.5 -1t3.5 -1q2 0 4.5 1t3.5 1q6 3 6 8q4 4 4 17v53h8v-57q0 -9 -4 -17q-2 -7 -8 -10q-8 -4 -14 -4q-7 0 -15 4t-10 8q-6 12 -6 21zM285 203q0 -15 8 -15q10 0 10 15v299 q0 14 -10 14q-8 0 -8 -14v-299zM338 43q0 22 8 33q5 10 21 10q15 0 20 -10q8 -11 8 -33q0 -20 -8 -31q-6 -12 -20 -12q-15 0 -21 12q-8 11 -8 31zM348 37q0 -1 1 -4.5t1 -5.5l29 43q-2 4 -6 8h-6q-10 0 -13 -8q-6 -9 -6 -25v-8zM354 16l6 -6q1 0 3.5 -1t3.5 -1q8 0 14 12 q4 12 4 25q0 2 -1 7.5t-1 8.5zM395 369q0 -62 43.5 -106t106.5 -44q61 0 104 44t43 106q0 61 -43 104t-104 43q-63 0 -106.5 -42.5t-43.5 -104.5zM408 70v18h47v-10q0 -1 1 -3t1 -3l-8 -15q-1 -1 -2.5 -3t-2.5 -3l-6 -8q-1 -2 -2.5 -4t-2.5 -3.5t-1 -2.5q-4 -8 -4 -10 q0 -1 -1 -5t-1 -8v-6h-8v6v15q4 8 8 12l6 12l8 10l4 2q4 9 7 9h-43zM430 369q0 46 34 79t81 33q46 0 79 -33t33 -79q0 -47 -33 -81t-79 -34q-47 0 -81 34t-34 81zM461 369q0 -34 24.5 -58t59.5 -24q34 0 58 24t24 58t-24 58t-58 24q-35 0 -59.5 -24t-24.5 -58zM467 43 q0 22 8 33q5 10 21 10q14 0 22 -10q6 -12 6 -33q0 -19 -6 -31q-9 -12 -22 -12q-15 0 -21 12q-8 11 -8 31zM477 37q2 -2 2 -10l29 43q-2 4 -6 8h-6q-10 0 -13 -8q-6 -9 -6 -25v-8zM483 16l6 -6q1 0 3.5 -1t3.5 -1q8 0 14 12q4 12 4 25q0 10 -2 16zM532 4v10q5 0 13 -4h10 q8 0 10 2q2 0 8 6l2 9q0 6 -6 12q-6 2 -24 2l-4 47h39v-8h-29v-29h-2q21 0 29 -6q8 -5 8 -18q0 -9 -4 -15q-2 -3 -11 -8q-8 -4 -16 -4q-7 0 -23 4zM598 4v8h29v62q-9 -2 -13 -6q-2 -2 -16 -5v9q19 7 25 16h14v-76h18v-8h-57zM662 57q0 12 6 21q8 8 20 8q14 0 21 -10 q8 -11 8 -31q0 -17 -8 -33q-9 -12 -27 -12q-3 0 -7.5 1t-8.5 1v10l16 -4q9 0 16 10q4 6 4 27q0 -2 -6 -8q-8 -4 -12 -4t-12 4q-5 3 -8 8q-2 4 -2 12zM672 59q0 -10 2 -12q6 -6 12 -6t12 6q4 8 4 14q0 5 -4 13q-4 4 -10 4t-8 -2q-6 0 -6 -6q-2 -4 -2 -11zM729 23q0 11 16 24 l-2 2l-6 6q-4 8 -4 13q0 8 6 14q8 4 17 4q8 0 12 -2q3 0 6 -6q2 -2 2 -8v-9q-1 -1 -2 -3t-2 -3q-4 -4 -10 -8l6 -4l10 -10q2 -4 2 -10q0 -11 -6 -17t-18 -6q-15 0 -21 6t-6 17zM739 23q0 -7 4 -11q8 -4 13 -4q2 0 10 4q4 4 4 8q0 7 -6 13q-2 1 -4.5 3.5t-3.5 2.5 q-17 -6 -17 -16zM743 68q0 -5 2 -7l9 -8q5 1 12 8q0 1 1 3.5t1 3.5q0 4 -4 8q-2 2 -8 2q-9 0 -11 -2t-2 -8zM799 4v8v6q0 7 4 11l8 8l4 6l8 8q6 6 6 10q2 2 2 7q0 6 -4 8q-2 2 -8 2h-8q-2 0 -4 -2l-8 -2v8q0 1 2 1.5t5 1t5 1.5h10q8 0 10 -2q6 0 9 -6q2 -2 2 -8q0 -9 -2 -13 q-1 -2 -13 -14l-6 -6l-6 -4q-1 -2 -4 -5t-4 -5l-2 -11h41v-8h-47zM858 592l8 149l158 277l49 6l53 -33l19 -45l-160 -276zM881 672l32 -21h2l60 41l-10 17h-39l-21 39h-18z" />
<glyph unicode="&#xd0;" />
<glyph unicode="&#xd1;" d="M102 512q0 212 150 362t362 150t362 -150t150 -362t-150 -362t-362 -150t-362 150t-150 362zM243.5 255q-5.5 -32 16.5 -52q20 -22 51.5 -17t64 24.5t62.5 49.5l37 43q42 64 72 94q12 12 28.5 12t30.5 -12l45 -45q12 -12 30 -12t30 12l75 76l-301 301l-75 -76 q-12 -12 -12 -29.5t12 -31.5l45 -43q12 -13 12 -31t-12 -31q-11 -11 -25 -22t-38 -27t-32 -22q-13 -9 -43 -35q-30 -31 -49 -62.5t-24.5 -63.5zM516 760l301 -301l225 225q-25 -5 -48.5 -5.5t-40.5 2t-37 9.5t-32.5 13t-31.5 16q-36 20 -71 49t-52 41q-38 25 -86 28.5 t-63 -16.5z" />
<glyph unicode="&#xd2;" d="M0 492h1229v40h-1229v-40zM205 0h819v410h-819v-410zM205 614h819v410h-819v-410z" />
<glyph unicode="&#xd3;" d="M39 140.5q-8 -47.5 24 -77.5q30 -32 77.5 -24t95 37t92.5 74q26 26 55 63q5 8 20 29.5t22 32t19 27t23 29t22 23.5q19 19 45 19t46 -19l65 -67q19 -19 45 -19t45 19l113 112l-449 449l-112 -113q-19 -19 -19 -45t19 -45l67 -65q19 -20 19 -46t-19 -45q-14 -14 -32.5 -29 t-32.5 -25t-39 -27.5t-37 -26.5q-50 -40 -63 -53q-45 -45 -74 -92.5t-37 -95zM444 893l95 94q24 29 95.5 23t127.5 -43q31 -20 81.5 -62t102.5 -71q28 -15 46.5 -24t48.5 -20t56 -15t60.5 -3.5t71.5 8.5l-336 -336z" />
<glyph unicode="&#xd4;" d="M43 561q-33 196 27 346q77 -80 188 -80q92 0 160.5 52.5t91.5 144.5h18q23 -92 91.5 -144.5t160.5 -52.5q112 0 189 80q61 -154 28 -346q-10 -44 -20 -76l-47 -34q-2 0 -31 12l-12 65q0 4 -4.5 8.5t-8.5 4.5h-79q-3 0 -7 -4.5t-6 -8.5q-2 -10 -5 -32.5t-5 -32.5l-33 -14 l-49 38q0 5 -8 5t-34 -27t-34 -39q-4 -2 -4 -8t4 -8q8 -9 21.5 -28.5t15.5 -21.5q-9 -19 -12 -32l-68 -11q-10 0 -10 -14v-76q0 -14 10 -14l66 -10q7 -19 14 -37q-5 -6 -17 -21t-20 -24q-4 -8 -4 -10q0 -10 37 -43q-93 -68 -127 -68q-21 0 -70.5 28t-113.5 81.5 t-124.5 120.5t-108 155.5t-60.5 175.5zM647 236v53q0 8 6 8l45 8q1 3 11 23q-20 25 -27 32q-2 2 -2 7q0 4 2 6q6 9 24 26t23 17q6 0 6 -2l33 -27q14 7 23 10q5 34 8 45q0 7 8 7h53q8 0 8 -7l9 -45q4 -1 11 -4t11 -4l33 25q2 2 6 2t6 -2q9 -6 26 -24t17 -23q0 -1 -1 -3.5 t-1 -3.5l-27 -32q10 -19 11 -25l45 -6q6 0 6 -10v-51q0 -11 -6 -11l-45 -6l-11 -22q5 -7 15.5 -19t11.5 -14q2 -2 2 -6t-2 -6q-6 -9 -24 -26t-23 -17q-4 0 -6 2l-33 26q-18 -9 -22 -10q-5 -36 -9 -45q0 -6 -8 -6h-53q-8 0 -8 6l-8 45l-21 8l-35 -24q0 -2 -6 -2q-4 0 -6 2 q-9 6 -26 24t-17 23q0 1 1 3t1 3q11 11 27 31l-6 12t-5 12l-45 8q-6 0 -6 9zM760 262q0 -31 21.5 -53.5t52.5 -22.5t53 22.5t22 53.5t-22 52.5t-53 21.5t-52.5 -21.5t-21.5 -52.5zM983 92v41q0 2 9.5 4t20.5 3.5t13 2.5q2 2 5 7.5t5 7.5q-3 5 -9.5 20.5t-6.5 18.5q0 2 2 2 q2 2 19 11t18 9q2 0 8 -7t12.5 -16t7.5 -10h9h8q2 3 26 33h3q1 0 9 -4.5t17 -9.5t10 -6v-2q0 -2 -3 -10t-6.5 -17.5t-4.5 -11.5q1 -1 8 -15q2 -1 13 -2.5t20.5 -3.5t9.5 -4v-41q0 -2 -9.5 -4t-20.5 -3.5t-13 -2.5q-6 -12 -8 -14q1 -2 4.5 -11.5t6.5 -17.5t3 -10v-2 q-2 -1 -10.5 -6.5t-16.5 -11t-9 -5.5q-2 0 -8 8t-13 17t-8 10h-8h-9q-1 -1 -7.5 -10t-12.5 -17t-8 -8q-1 0 -18 10.5t-19 12.5q-2 0 -2 2q0 3 6.5 18.5t9.5 20.5q-2 2 -5 7t-5 7q-2 1 -13 2.5t-20.5 3.5t-9.5 4zM983 391v41q0 2 9.5 4t20.5 3.5t13 2.5q2 2 5 7.5t5 7.5 q-3 5 -9.5 20.5t-6.5 18.5q0 2 2 2q2 2 19 11t18 9q2 0 8 -7t12.5 -16t7.5 -10h9h8q2 3 26 33h3q1 0 9 -4.5t17 -9.5t10 -6v-2q0 -2 -3 -10t-6.5 -17.5t-4.5 -11.5q1 -1 8 -15q2 -1 13 -2.5t20.5 -3.5t9.5 -4v-41q0 -2 -9.5 -4t-20.5 -3.5t-13 -2.5q-6 -12 -8 -14 q0 -1 4 -11t7 -18.5t3 -11.5v-2q-1 -1 -10 -6t-17 -10t-9 -5q-6 0 -29 35q-2 -2 -8 -2q-7 0 -9 2q-23 -35 -28 -35q-1 0 -18 9.5t-19 11.5l-2 2q0 3 6.5 20t9.5 21q-2 2 -5 7t-5 7q-2 1 -13 2.5t-20.5 3.5t-9.5 4zM1059 113q0 -15 11 -26t26 -11t26 11t11 26t-11 26t-26 11 t-26 -11t-11 -26zM1059 412q0 -15 11 -26t26 -11t26 11t11 26t-11 26t-26 11t-26 -11t-11 -26z" />
<glyph unicode="&#xd5;" />
<glyph unicode="&#xd6;" />
<glyph unicode="&#xd7;" d="M61 119v811l252 94v-1024zM334 0v1024l182 -18v-969zM362 526q-1 -2 7 -8.5t16.5 -13t9.5 -8.5t-2 -13t-5.5 -21t-0.5 -11q2 -2 10.5 3.5t17.5 12t11 6.5t11 -6.5t17.5 -12t10.5 -3.5q2 1 -0.5 11t-6 21.5t-3.5 12.5q1 2 17 15.5t15 16.5q-1 2 -21.5 2.5t-21.5 1.5 q-2 2 -5.5 12.5t-7.5 20.5t-7 10q-2 0 -9 -21t-9 -22q-2 -2 -13 -2.5t-21 -1t-10 -2.5zM635 84v575l297 66v-725zM956 0v725l211 -12v-688zM997 389q0 -8 2 -14q7 -17 31 -37q17 -14 31 -35q1 1 12.5 15t18.5 20q34 29 32 51q0 13 -9 23t-21 10q-26 0 -33 -25q-7 25 -31 25 q-14 0 -23.5 -10t-9.5 -23z" />
<glyph unicode="&#xd8;" />
<glyph unicode="&#xd9;" d="M82 0h1065v88h-1065v-88zM82 172v510h1065v-510h-1065zM82 768h1065v256h-1065v-256z" />
<glyph unicode="&#xda;" d="M47.5 539.5q4.5 110.5 54.5 205.5q-2 -10 -2 -32q0 -75 53.5 -128t137.5 -53q10 0 22 3q-12 -24 -12 -50q0 -30 31 -65h-43q-65 0 -120.5 -24t-86.5 -64q-39 97 -34.5 207.5zM137 266q0 53 54 91.5t126 37.5q28 0 60 -8q8 -6 25 -17t23.5 -16t18 -14t16.5 -15.5t10 -16 t7 -19.5q4 -16 4 -27q0 -129 -182 -129q-71 0 -119 41q-14 14 -28 35q-15 24 -15 57zM174 846q127 146 320.5 168t355.5 -94l-309 -416l506 76q14 -93 -10 -187.5t-83 -175.5q-79 -107 -197.5 -160.5t-247 -43t-237.5 82.5q10 -2 29 -2q112 0 178 53.5t66 126.5 q0 55 -19.5 91t-68.5 69q-21 13 -43.5 37t-22.5 41q0 19 10 33t39 37q72 58 72 129q0 49 -22.5 89.5t-59.5 53.5h78l55 41h-246q-85 0 -143 -49zM188 715q-8 63 20 103.5t79 39.5q46 0 86 -44.5t47 -108.5q9 -61 -19 -104.5t-75 -41.5q-49 0 -89 45.5t-49 110.5zM670 580 l315 430q83 -60 137.5 -146t71.5 -190q0 -8 2 -12z" />
<glyph unicode="&#xdb;" d="M0 467v8q0 40 33 88.5t69 48.5h60q0 13 -2 17q-39 15 -63.5 51t-24.5 80q0 57 37.5 97t91.5 40t92.5 -39.5t38.5 -95.5q0 -44 -23.5 -80t-60.5 -51l-2 -19h49q29 0 57 -32t43 -72q-39 -10 -77 -48.5t-66 -90.5q-14 -2 -51 -2q-201 0 -201 100zM162 575l33 -30l-27 -115 l29 -31l30 31l-26 115l32 30h-71zM240 207q0 12 2 18q0 15 8 39q22 76 79 144.5t113 68.5h93q-3 23 -5 33q-70 28 -113.5 94t-43.5 148q0 104 70.5 179t170.5 75q101 0 172.5 -75t71.5 -181q0 -82 -46.5 -148.5t-119.5 -93.5q-1 -4 -1.5 -12t-1 -13.5t-1.5 -5.5h109 q45 0 91 -45.5t73.5 -105.5t27.5 -107v-12q0 -67 -52 -110.5t-133 -61t-190 -17.5t-189.5 17.5t-132.5 61t-52 110.5zM545 410l61 -64l-51 -227l59 -60l60 60l-51 227l61 64h-139zM834 508q15 39 44 71.5t56 32.5h51q-2 13 -4 19q-37 15 -60.5 51t-23.5 80q0 56 38.5 95.5 t92.5 39.5t91.5 -40t37.5 -97q0 -44 -24.5 -80t-63.5 -51q0 -17 -2 -17h59q36 0 69.5 -48.5t33.5 -88.5v-8q0 -100 -201 -100q-37 0 -51 2q-28 52 -66 90.5t-77 48.5zM995 575l33 -30l-27 -115l31 -31l29 31l-27 115l33 30h-72z" />
<glyph unicode="&#xdc;" d="M0 102v668h82v-668q0 -8 6 -14t14 -6h1024q8 0 14.5 6.5t6.5 13.5v668h82v-668q0 -42 -30.5 -72t-72.5 -30h-1024q-41 0 -71.5 30.5t-30.5 71.5zM205 186h819v68h-819v-68zM205 313h819v68h-819v-68zM205 442h231v582h-231v-582zM500 442h229v582h-229v-582zM795 442h229 v582h-229v-582z" />
<glyph unicode="&#xdd;" d="M0 0v88h563q0 -48 29 -88h-592zM0 172v510h702q-2 -10 -2 -29q0 -187 140 -241l4 -13l-47 -8q-54 0 -120 -72t-95 -147h-582zM0 768v256h942v-78q-68 0 -125 -52t-92 -126h-725zM625 88q0 -69 54 -113.5t138 -62.5t197 -18t197 18t138 62.5t54 113.5v14q0 48 -28.5 110 t-77 109.5t-95.5 47.5h-112q1 0 1.5 5.5t1 14t1.5 12.5q76 27 124 96t48 154q0 110 -74 188.5t-178 78.5q-103 0 -176.5 -78t-73.5 -187q0 -85 45.5 -153.5t118.5 -96.5l4 -34h-96q-59 0 -118 -71t-83 -151q-8 -24 -8 -38q-2 -6 -2 -21z" />
<glyph unicode="&#xde;" />
<glyph unicode="&#xdf;" />
<glyph unicode="&#xe0;" d="M102 240v544q0 32 24 55t56 23q33 0 57.5 -23t24.5 -55v-544q0 -32 -24.5 -55t-57.5 -23q-32 0 -56 23t-24 55zM264 80q0 33 23 57.5t55 24.5h545q32 0 55 -24.5t23 -57.5q0 -32 -23 -56t-55 -24h-545q-32 0 -55 24t-23 56zM264 942q0 34 23 58t55 24h545q32 0 55 -24 t23 -58q0 -31 -23 -55.5t-55 -24.5h-545q-32 0 -55 24.5t-23 55.5zM295 80q0 -20 14 -34.5t33 -14.5h545q19 0 33 14.5t14 34.5q0 21 -13.5 36t-33.5 15h-545q-20 0 -33.5 -15t-13.5 -36zM295 942q0 -20 14 -34.5t33 -14.5h545q19 0 33 14.5t14 34.5q0 22 -13.5 36.5 t-33.5 14.5h-545q-20 0 -33.5 -14.5t-13.5 -36.5zM965 240v544q0 32 24 55t55 23q34 0 58 -23t24 -55v-544q0 -32 -24 -55t-58 -23q-31 0 -55 23t-24 55zM995 240q0 -19 14.5 -33t34.5 -14q22 0 37 13.5t15 33.5v544q0 20 -15 33.5t-37 13.5q-20 0 -34.5 -14t-14.5 -33v-544 z" />
<glyph unicode="&#xe1;" d="M0 82v860h1229v-860h-1229zM61 205h1106v123h-1106v-123zM61 389h615v246h-615v-246zM61 696h1106v123h-1106v-123zM737 451h430v122h-430v-122z" />
<glyph unicode="&#xe2;" d="M0 82v860h1229v-860h-1229zM61 205h1106v123h-1106v-123zM61 451h431v122h-431v-122zM61 696h1106v123h-1106v-123zM553 389h614v246h-614v-246z" />
<glyph unicode="&#xe3;" d="M102 240v544q0 32 24 55t56 23q33 0 57.5 -23t24.5 -55v-544q0 -32 -24.5 -55t-57.5 -23q-32 0 -56 23t-24 55zM133 240q0 -19 14.5 -33t34.5 -14q21 0 36 13.5t15 33.5v544q0 20 -15 33.5t-36 13.5q-20 0 -34.5 -14t-14.5 -33v-544zM264 80q0 33 23 57.5t55 24.5h545 q32 0 55 -24.5t23 -57.5q0 -32 -23 -56t-55 -24h-545q-32 0 -55 24t-23 56zM264 942q0 34 23 58t55 24h545q32 0 55 -24t23 -58q0 -31 -23 -55.5t-55 -24.5h-545q-32 0 -55 24.5t-23 55.5zM295 942q0 -20 14 -34.5t33 -14.5h545q19 0 33 14.5t14 34.5q0 22 -13.5 36.5 t-33.5 14.5h-545q-20 0 -33.5 -14.5t-13.5 -36.5zM965 240v544q0 32 24 55t55 23q34 0 58 -23t24 -55v-544q0 -32 -24 -55t-58 -23q-31 0 -55 23t-24 55zM995 240q0 -19 14.5 -33t34.5 -14q22 0 37 13.5t15 33.5v544q0 20 -15 33.5t-37 13.5q-20 0 -34.5 -14t-14.5 -33v-544 z" />
<glyph unicode="&#xe4;" d="M102 240v544q0 32 24 55t56 23q33 0 57.5 -23t24.5 -55v-544q0 -32 -24.5 -55t-57.5 -23q-32 0 -56 23t-24 55zM264 80q0 33 23 57.5t55 24.5h545q32 0 55 -24.5t23 -57.5q0 -32 -23 -56t-55 -24h-545q-32 0 -55 24t-23 56zM264 942q0 34 23 58t55 24h545q32 0 55 -24 t23 -58q0 -31 -23 -55.5t-55 -24.5h-545q-32 0 -55 24.5t-23 55.5zM965 240v544q0 32 24 55t55 23q34 0 58 -23t24 -55v-544q0 -32 -24 -55t-58 -23q-31 0 -55 23t-24 55z" />
<glyph unicode="&#xe5;" d="M102 240v544q0 32 24 55t56 23q33 0 57.5 -23t24.5 -55v-544q0 -32 -24.5 -55t-57.5 -23q-32 0 -56 23t-24 55zM133 240q0 -19 14.5 -33t34.5 -14q21 0 36 13.5t15 33.5v544q0 20 -15 33.5t-36 13.5q-20 0 -34.5 -14t-14.5 -33v-544zM264 80q0 33 23 57.5t55 24.5h545 q32 0 55 -24.5t23 -57.5q0 -32 -23 -56t-55 -24h-545q-32 0 -55 24t-23 56zM264 942q0 34 23 58t55 24h545q32 0 55 -24t23 -58q0 -31 -23 -55.5t-55 -24.5h-545q-32 0 -55 24.5t-23 55.5zM295 80q0 -20 14 -34.5t33 -14.5h545q19 0 33 14.5t14 34.5q0 21 -13.5 36t-33.5 15 h-545q-20 0 -33.5 -15t-13.5 -36zM295 942q0 -20 14 -34.5t33 -14.5h545q19 0 33 14.5t14 34.5q0 22 -13.5 36.5t-33.5 14.5h-545q-20 0 -33.5 -14.5t-13.5 -36.5zM965 240v544q0 32 24 55t55 23q34 0 58 -23t24 -55v-544q0 -32 -24 -55t-58 -23q-31 0 -55 23t-24 55z" />
<glyph unicode="&#xe6;" />
<glyph unicode="&#xe7;" />
<glyph unicode="&#xe8;" d="M113 230q0 45 32 77l242 242q32 32 77.5 32t76.5 -32l8 -6l29 28l-9 7q-31 32 -31 77t31 76l244 244q32 32 77 32t77 -32l116 -117q32 -32 32 -76.5t-32 -76.5l-243 -244q-31 -31 -76.5 -31t-77.5 31l-6 8l-29 -29l6 -8q32 -31 32 -76t-32 -77l-241 -242 q-32 -32 -77.5 -32t-76.5 32l-117 117q-32 31 -32 76zM239 230.5q0 -22.5 15 -37.5l47 -48q15 -15 38 -15t40 15l168 170q16 16 16 39l-39 -39q-14 -13 -34 -13t-33 13l-33 33q-14 14 -14 34.5t14 35.5l39 37q-25 0 -39 -17l-170 -168q-15 -17 -15 -39.5zM664 657l43 43 q13 14 34 14t35 -14l33 -32q13 -14 13 -35t-13 -35l-43 -43q24 3 37 16l170 170q17 15 17 38t-17 40l-45 45q-17 17 -40 17t-38 -17l-170 -170q-12 -13 -16 -37z" />
<glyph unicode="&#xe9;" />
<glyph unicode="&#xea;" d="M16 63v213q0 27 19.5 46.5t44.5 19.5h65v129q0 34 25 59t59 25h342v129h-63q-27 0 -45.5 18.5t-18.5 45.5v213q0 26 19 44.5t45 18.5h213q27 0 45 -18t18 -45v-213q0 -28 -17.5 -46t-45.5 -18h-64v-129h342q35 0 59.5 -25t24.5 -59v-129h66q26 0 44.5 -19t18.5 -47v-213 q0 -25 -18.5 -44t-44.5 -19h-215q-26 0 -45 19t-19 44v213q0 28 19 47t45 19h65v129h-342v-129h64q27 0 45 -19t18 -47v-213q0 -25 -18 -44t-45 -19h-213q-26 0 -45 19t-19 44v213q0 28 19 47t45 19h63v129h-342v-129h66q26 0 44.5 -19t18.5 -47v-213q0 -25 -18.5 -44 t-44.5 -19h-215q-25 0 -44.5 19t-19.5 44zM119 113q0 -35 71 -35q72 0 72 35v4q0 13 -13 31t-26 18h-20v6q33 11 33 45q0 20 -13.5 33.5t-32.5 13.5q-20 0 -33.5 -13.5t-13.5 -33.5q0 -31 31 -45v-6h-16q-11 0 -21.5 -13t-15.5 -28l-2 -8v-4zM176 152h27l-10 -13l8 -41 l-11 -12l-12 12l10 41zM545 113q0 -35 69 -35q72 0 72 35v4q0 13 -12 31t-25 18h-20q2 0 2 6q31 12 31 45q0 20 -14.5 33.5t-33.5 13.5t-33 -13.5t-14 -33.5q0 -30 33 -45v-6h-18q-11 0 -21.5 -13t-13.5 -28q-2 -2 -2 -8v-4zM602 152h27l-13 -13l11 -41l-13 -12l-10 12 l10 41zM971 113q0 -35 69 -35q72 0 72 35v4q0 13 -12 31t-23 18h-22q2 0 2 6q30 10 30 45q0 20 -13.5 33.5t-33.5 13.5q-19 0 -32 -13.5t-13 -33.5q0 -31 31 -45v-6h-18q-10 0 -21 -13.5t-14 -27.5q-2 -2 -2 -8v-4zM1028 152h27l-13 -13l11 -41l-13 -12l-10 12l10 41z" />
<glyph unicode="&#xeb;" d="M150 326v6q0 29 24 64.5t51 35.5h43q-2 0 -2 12q-29 11 -47 37t-18 58q0 43 28 72.5t68 29.5q38 0 66 -29.5t28 -70.5q0 -32 -17.5 -59t-45.5 -36v-14h34q22 0 43 -23.5t31 -52.5q-57 -15 -102 -102h-37q-147 0 -147 72zM268 406l23 -23l-19 -84l21 -23l22 23l-18 84 l22 23h-51zM324 137q0 11 2 15q0 14 6 26q15 55 57 105.5t82 50.5h68q0 16 -2 24q-51 19 -83 66.5t-32 107.5q0 77 51 132t123 55q73 0 125.5 -55t52.5 -132q0 -61 -34 -109t-87 -67q-1 -3 -1.5 -9t-1 -9.5t-1.5 -3.5h80q49 0 95 -66.5t46 -120.5v-10q0 -71 -75.5 -104 t-198.5 -33q-122 0 -197 33t-75 104zM547 285l43 -45l-37 -168l43 -43l43 43l-37 168l45 45h-100zM641 1014q87 8 169 -21t144 -92q63 -63 91.5 -144.5t19.5 -166.5l-76 8q13 148 -90 248q-50 50 -116 73t-134 17zM657 858q110 10 187 -67q78 -78 65 -187l-75 6 q7 75 -46 125q-52 52 -122 45z" />
<glyph unicode="&#xec;" />
<glyph unicode="&#xed;" />
<glyph unicode="&#xee;" d="M174 102q0 5 4 13l271 649l-54 209q0 22 63 36.5t154 14.5t154 -14.5t63 -36.5l-53 -209l279 -655v-7q0 -41 -130 -71.5t-311 -30.5t-310.5 30.5t-129.5 71.5zM221 106q31 -22 135 -41.5t256 -19.5q151 0 255.5 20t133.5 41l-274 656l39 160q-58 -15 -154 -15 q-97 0 -155 15l39 -160zM305 143l29 70q6 -1 15 2t19 10.5t16.5 12.5t16.5 14t11 10q115 89 319 -41q86 -54 162 -14l27 -64q-109 -37 -308 -37q-198 0 -307 37zM369 305l75 189q82 -15 99 -29q12 -10 16.5 -13.5t15 -11t16.5 -10t15.5 -5.5t18.5 -2.5t18 3.5q38 14 64 -4 q42 -21 57 0q2 4 6 8.5t7.5 7.5t9.5 7t8 6l67 -168q-37 -23 -274 61q-101 36 -219 -39zM438 973q67 -23 174 -23q105 0 172 23q-58 20 -172 20q-116 0 -174 -20z" />
<glyph unicode="&#xef;" d="M174 102q0 5 4 13l271 649l-54 209q0 22 63 36.5t154 14.5t154 -14.5t63 -36.5l-53 -209l279 -655v-7q0 -41 -130 -71.5t-311 -30.5t-310.5 30.5t-129.5 71.5zM221 106q31 -22 135 -41.5t256 -19.5q151 0 255.5 20t133.5 41l-274 656l39 160q-58 -15 -154 -15 q-97 0 -155 15l39 -160zM305 143l139 351q82 -15 99 -29q12 -10 16.5 -13.5t15 -11t16.5 -10t15.5 -5.5t18.5 -2.5t18 3.5q38 14 64 -4q42 -21 57 0q2 4 6 8.5t7.5 7.5t9.5 7t8 6l125 -308q-109 -37 -308 -37q-198 0 -307 37zM438 973q67 -23 174 -23q105 0 172 23 q-58 20 -172 20q-116 0 -174 -20z" />
<glyph unicode="&#xf0;" />
<glyph unicode="&#xf1;" />
<glyph unicode="&#xf2;" />
<glyph unicode="&#xf3;" />
<glyph unicode="&#xf4;" d="M225 195q0 14 2 20q0 12 9 39q24 80 82.5 150.5t117.5 70.5h96q-2 25 -4 35q-73 28 -118 96.5t-45 153.5q0 109 73 186.5t176 77.5q104 0 178 -78t74 -188q0 -85 -48 -154t-124 -96q-1 -4 -1.5 -12.5t-1 -14.5t-1.5 -6h113q47 0 95.5 -47t77 -109t28.5 -110v-14 q0 -69 -54 -114t-138.5 -63t-197.5 -18q-84 0 -152 10.5t-122.5 33t-84.5 61t-30 90.5zM460 163.5q0 -13.5 11 -24.5l35 -35q10 -9 24 -9t23 9l76 74q9 10 9 24t-9 23l-4 4l10 9l2 -2q9 -10 23.5 -10t23.5 10l74 73q10 9 10 23.5t-10 23.5l-35 37q-11 9 -24.5 9t-22.5 -9 l-76 -76q-9 -9 -9 -23.5t9 -23.5l4 -2l-10 -8l-2 2q-9 9 -22.5 9t-24.5 -9l-74 -76q-11 -9 -11 -22.5zM504 152q-10 14 0 24l53 51q3 6 10 6l-10 -12q-5 -5 -5 -11t5 -9l8 -11q5 -4 12 -4t11 4l10 13q0 -11 -4 -13l-51 -51q-5 -6 -13 -6t-12 6zM631 295q0 8 4 12l51 51 q14 11 25 0l14 -14q11 -11 0 -22l-53 -54q-4 -4 -10 -4l12 12q4 4 4 11t-4 12l-10 8q-10 11 -21 0z" />
<glyph unicode="&#xf5;" />
<glyph unicode="&#xf6;" />
<glyph unicode="&#xf7;" d="M180 819l434 -614l435 614h-869z" />
<glyph unicode="&#xf8;" />
<glyph unicode="&#xf9;" />
<glyph unicode="&#xfa;" />
<glyph unicode="&#xfb;" d="M57 0v856l138 168h325l148 -170h503v-854h-1114zM307 250.5q0 -27.5 19 -47.5l71 -72q20 -19 48 -19t47 19l149 150q20 20 20 47.5t-20 46.5l-4 4l16 18l6 -4q19 -20 47 -20t48 20l147 148q20 20 20 47.5t-20 46.5l-70 72q-20 20 -47.5 20t-46.5 -20l-149 -148 q-20 -20 -20 -47.5t20 -46.5l4 -6l-17 -17l-6 4q-19 20 -46.5 20t-47.5 -20l-149 -149q-19 -19 -19 -46.5zM384 251.5q0 13.5 11 22.5l103 105q10 10 24 10l-24 -24q-9 -7 -9 -20t9 -21l20 -21q8 -9 21 -9t20 9l25 23q0 -12 -11 -23l-104 -104q-9 -9 -22.5 -9t-24.5 9 l-27 28q-11 11 -11 24.5zM645 512q0 12 10 25l105 102q9 11 22.5 11t24.5 -11l27 -27q10 -10 10 -24t-10 -23l-103 -104q-10 -10 -24 -10l26 26q9 7 9 20t-9 21l-20 21q-7 9 -20 9t-21 -9z" />
<glyph unicode="&#xfc;" />
<glyph unicode="&#xfd;" />
<glyph unicode="&#xfe;" />
<glyph unicode="&#xff;" />
<glyph unicode="&#x100;" d="M0 514q5 8 14 22t40.5 53.5t66.5 75.5t90.5 80.5t113.5 76t134.5 53.5t154.5 22q79 0 155 -21t135.5 -55t113 -74.5t91 -81.5t65.5 -75t42 -55l13 -21q-5 -8 -14 -22t-40.5 -54t-66.5 -76t-90.5 -80.5t-113.5 -76.5t-134.5 -54t-155.5 -22q-61 0 -121.5 13t-110.5 35.5 t-97 51.5t-84.5 61t-70.5 63.5t-56.5 60.5t-40 51.5t-25.5 35.5zM154 514q7 -12 20 -33t58.5 -74t95 -93.5t127.5 -73.5t159 -33q59 0 116.5 17t101.5 44t84.5 59.5t68.5 65.5t49 60t31 44l10 17q-4 6 -10.5 17.5t-30 43t-50 60.5t-68 64.5t-85 61t-101 43t-116.5 17.5 t-116 -17t-101.5 -44t-84.5 -59.5t-68 -65.5t-49 -60t-31 -44zM385 514q0 -97 67 -164t162 -67q96 0 164 67.5t68 163.5q0 95 -68 162t-164 67q-95 0 -162 -67t-67 -162z" />
<glyph unicode="&#x101;" d="M102 240v544q0 32 24 55t56 23q33 0 57.5 -23t24.5 -55v-544q0 -32 -24.5 -55t-57.5 -23q-32 0 -56 23t-24 55zM133 240q0 -19 14.5 -33t34.5 -14q21 0 36 13.5t15 33.5v544q0 20 -15 33.5t-36 13.5q-20 0 -34.5 -14t-14.5 -33v-544zM264 80q0 33 23 57.5t55 24.5h545 q32 0 55 -24.5t23 -57.5q0 -32 -23 -56t-55 -24h-545q-32 0 -55 24t-23 56zM264 942q0 34 23 58t55 24h545q32 0 55 -24t23 -58q0 -31 -23 -55.5t-55 -24.5h-545q-32 0 -55 24.5t-23 55.5zM295 80q0 -20 14 -34.5t33 -14.5h545q19 0 33 14.5t14 34.5q0 21 -13.5 36t-33.5 15 h-545q-20 0 -33.5 -15t-13.5 -36zM965 240v544q0 32 24 55t55 23q34 0 58 -23t24 -55v-544q0 -32 -24 -55t-58 -23q-31 0 -55 23t-24 55zM995 240q0 -19 14.5 -33t34.5 -14q22 0 37 13.5t15 33.5v544q0 20 -15 33.5t-37 13.5q-20 0 -34.5 -14t-14.5 -33v-544z" />
<glyph unicode="&#x112;" d="M0 123v778q0 43 29.5 73t72.5 30h1024q43 0 73 -30t30 -73v-778q0 -42 -30.5 -72.5t-72.5 -30.5h-1024q-42 0 -72 30.5t-30 72.5zM82 123q0 -8 6.5 -14.5t13.5 -6.5h1024q8 0 14.5 7t6.5 14v778q0 7 -6.5 14t-14.5 7h-1024q-7 0 -13.5 -6.5t-6.5 -14.5v-778zM164 193v243 q17 9 63.5 41t82.5 53t48 17q20 -7 54 -29t58 -40l24 -19l43 -38q65 -50 84 -30q15 17 39 30.5t45.5 15t31.5 -16.5q8 -17 36.5 -23.5t52.5 -4.5l24 3q93 29 154 29q6 0 21.5 11t27.5 21t12 9v-272h-901zM764 616q0 -40 28 -68t68 -28t68 28t28 68t-28 68.5t-68 28.5 t-68 -28.5t-28 -68.5z" />
<glyph unicode="&#x113;" />
<glyph unicode="&#x11a;" d="M102 66v333q0 27 19.5 46.5t46.5 19.5h334q28 0 46.5 -19t18.5 -47v-333q0 -27 -19 -46.5t-46 -19.5h-334q-26 0 -46 20t-20 46zM102 625v333q0 26 20 46t46 20h334q27 0 46 -19.5t19 -46.5v-333q0 -28 -18.5 -47t-46.5 -19h-74v184h70l4 68h-74v49v4q0 15 6 22t23 7h45 v63q-20 2 -49 2q-47 0 -72 -25t-25 -61v-61h-65v-68h65v-184h-188q-27 0 -46.5 19.5t-19.5 46.5zM168 336q0 -14 11 -24.5t28 -10.5q18 0 28.5 10.5t10.5 24.5q0 15 -10.5 25t-28.5 10q-17 0 -28 -10t-11 -25zM174 66h68v206h-68v-206zM279 66h69v116q0 13 2 17q8 24 35 24 q35 0 35 -47v-110h69v118q0 45 -22 68.5t-57 23.5q-44 0 -62 -32v28h-69v-206zM662 92v127q33 -33 86 -33h14q-8 -16 -8 -30q0 -19 22 -41h-28q-45 0 -86 -23zM662 381v18q0 28 18.5 47t46.5 19h334q27 0 46 -19.5t19 -46.5v-32h-65v65h-35v-65h-65v-35h65v-66h35v66h65 v-266q0 -26 -19.5 -46t-45.5 -20h-133q2 4 2 12q0 37 -12 59.5t-50 51.5q-47 34 -47 49q0 23 33 47q47 35 47 84q0 63 -45 88h41l35 39h-158q-66 0 -112 -49zM662 625v333q0 27 19 46.5t46 19.5h334q26 0 45.5 -20t19.5 -46v-333q0 -27 -19 -46.5t-46 -19.5h-334 q-28 0 -46.5 19t-18.5 47zM664 47q34 49 104 49q5 0 41 -6q6 -5 19 -13.5t19 -13t13.5 -11.5t12 -14t6.5 -15q2 -4 2 -17v-6h-154q-23 0 -40 13t-23 34zM686 307q-4 41 14.5 69.5t49.5 26.5q32 -1 57 -30.5t31 -71.5q4 -41 -12.5 -66.5t-47.5 -23.5q-33 0 -59.5 27t-32.5 69 zM743 696q45 -28 95 -28q64 0 110 39q45 39 60 88q6 24 6 51v8q17 11 30 31q-23 -9 -34 -11q20 13 26 35q-22 -11 -39 -14q-18 18 -45 18q-26 0 -44.5 -17.5t-18.5 -43.5q0 -3 1 -7.5t1 -6.5q-78 3 -127 65q-10 -17 -10 -31q0 -34 28 -53q-20 4 -30 8q0 -23 14.5 -39.5 t36.5 -21.5q-6 -2 -15 -2q-6 0 -12 2q12 -42 58 -45q-39 -27 -76 -27q-3 0 -8 1t-7 1z" />
<glyph unicode="&#x11b;" />
<glyph unicode="&#x12a;" d="M102 498v286q0 34 24 58t58 24h860q34 0 58 -24t24 -58v-286q0 -34 -24 -58t-58 -24h-139l-325 305v-305h-396q-34 0 -58 24t-24 58zM618 246l89 90l88 -178l65 30l-92 174h125l-275 275v-391z" />
<glyph unicode="&#x12b;" />
<glyph unicode="&#x131;" d="M108.5 223.5q10.5 29.5 41.5 46.5q30 17 62.5 8t47.5 -36q9 -15 6 -35l19 6l73 176q8 17 33 35q11 7 21 9.5t14 1.5l4 -1l-86 -201l205 74q6 -16 -12 -39q-8 -11 -17.5 -19t-14.5 -11l-5 -2l-181 -60l-8 -16q18 0 35 -10q27 -18 34 -50.5t-11 -62.5q-20 -30 -51 -39 t-56 8q-20 13 -26.5 38t2.5 50v2q0 4 2 6l22 56l-55 -19q-2 -2 -6 -2l-2 -2v2q-27 -8 -51.5 1t-34.5 30q-15 26 -4.5 55.5zM143 211q-4 -13 2 -25q8 -12 24.5 -15.5t31.5 5.5q24 12 26 25q4 13 -2 22q-9 18 -24 21q-16 6 -33 -4q-18 -12 -25 -29zM268 61q0 -13 13 -22 q11 -8 24 -4q15 4 23 12q6 6 8 10q10 13 10 35q-3 14 -20 27q-8 4 -23 4q-8 -4 -10 -6t-14 -19l-3 -2q-10 -21 -8 -35zM526 549q0 -9 6.5 -15t14.5 -6h20v41h-41v-20zM526 612h41v21l6 6l-30 27l-11 -13q-6 -6 -6 -14v-27zM528 393q0 -9 7 -16q12 -6 16 -6h20v43h-43v-21z M528 457h43v41h-20q-9 0 -16 -6t-7 -15v-20zM535 897q0 -9 5.5 -16t14.5 -7h20v44h-40v-21zM535 938h40v23h-40v-23zM535 981h40v43h-20q-9 0 -14.5 -6t-5.5 -14v-23zM571 698l31 -26l31 33l-33 26zM608 371h39v43h-39v-43zM608 528h39v41h-39v-41zM610 457h39v41h-39v-41z M612 874h35v44h-35v-44zM614 981h39v43h-39v-43zM629 764l33 -27l28 31l-31 29zM682 874h37v44h-37v-44zM684 371h39v43h-39v-43zM688 528h41v41h-41v-41zM688 829l31 -28l29 33l-31 28zM690 457h39v41h-39v-41zM694 981h39v43h-39v-43zM702 647q6 -12 19 -12h20v12l11 10 l-11 7v12h-12l-10 8l-12 -14q-12 -12 -5 -23zM741 360l31 -22l27 33l-31 22zM745 895l9 -8v-13h14l8 -8l15 17q8 8 4 22q-9 13 -21 13h-20v-15zM748 717l32 -27l29 31l-31 29zM768 457h41v41h-41v-41zM768 528h41v41h-41v-41zM772 981h39v43h-39v-43zM780 635h37v41h-37v-41 zM803 315l16 -14q4 -4 12 -4l9 2q12 6 12 18v23h-14l-11 8l-6 -8h-10v-14zM807 782l31 -28l28 32l-30 29zM811 371h41v43h-21q-9 0 -14.5 -6.5t-5.5 -14.5v-22zM848 457h39v41h-39v-41zM848 528h41v41h-41v-41zM850 981h39v43h-39v-43zM854 635h37v41h-37v-41zM864 848 l31 -29l29 33l-31 29zM877 371h24v43h-24v-43zM922 913l32 -28l11 12q6 6 6 14v27h-43v-18zM928 371h20q8 0 14.5 6.5t6.5 15.5v21h-41v-43zM928 457h41v20q0 9 -6.5 15t-14.5 6h-20v-41zM928 528h20q9 0 16 6t7 15v20h-43v-41zM928 592h43v20h-43v-20zM928 635h43v20 q0 8 -7 14.5t-16 6.5h-20v-41zM928 981h43v23q0 8 -7 14t-16 6h-20v-43z" />
<glyph unicode="&#x141;" />
<glyph unicode="&#x142;" />
<glyph unicode="&#x14c;" d="M45 455v114h170v455h797v-455h172v-114h-172v-455h-797v455h-170zM215 483h797v58h-797v-58zM416 342l198 -227l199 227h-397zM416 682h397l-199 227z" />
<glyph unicode="&#x14d;" />
<glyph unicode="&#x152;" />
<glyph unicode="&#x153;" />
<glyph unicode="&#x160;" d="M18 150v555q0 61 44 105t106 44h43v-225h6h57v225h86v107q0 26 19 44.5t45 18.5h383q28 0 46.5 -18.5t18.5 -44.5v-107h84v-225h56h10v225h41q61 0 105 -44t44 -105v-555q0 -62 -44 -106t-105 -44h-41v393h-10h-56v-393h-682v393h-57h-6v-393h-43q-62 0 -106 44t-44 106z M444 854h342v84h-342v-84z" />
<glyph unicode="&#x161;" />
<glyph unicode="&#x16a;" d="M82 0v88h1065v-88h-1065zM82 172v510h1065v-510h-1065zM82 768v256h1065v-256h-1065zM102 20h1024v48h-1024v-48zM102 193h1024v469h-1024v-469zM102 788h1024v216h-1024v-216z" />
<glyph unicode="&#x16b;" />
<glyph unicode="&#x178;" d="M0 111v77h494q0 -47 24 -77h-518zM0 262v447h614v-27q0 -163 121 -211l4 -10l-41 -8q-48 0 -105 -62.5t-83 -128.5h-510zM0 784v224h825v-68q-59 0 -108.5 -45.5t-81.5 -110.5h-635zM547 188q0 -61 47.5 -100.5t121.5 -55.5t173 -16t172.5 16t120.5 55.5t47 100.5v13 q0 67 -57 150t-119 83h-99q1 0 1.5 5t1 12.5t1.5 11.5q66 23 108 83.5t42 135.5q0 97 -64 164t-155 67t-155 -67t-64 -164q0 -74 39.5 -134t103.5 -83l4 -31h-86q-52 0 -102.5 -62t-71.5 -132q-8 -20 -8 -35q-2 -4 -2 -17z" />
<glyph unicode="&#x17d;" />
<glyph unicode="&#x17e;" />
<glyph unicode="&#x192;" />
<glyph unicode="&#x1cd;" d="M0 311q0 64 53 113v20q-45 64 -45 144q0 79 45 143v10q-53 53 -53 117q0 61 43 104.5t102 43.5q63 0 111 -48q121 41 279 41q159 0 280 -41q45 52 111 52q61 0 103 -43t42 -105q0 -67 -53 -110v-7h-90v119h-785v-551h346v-135q-125 6 -231 37q-48 -51 -113 -51 q-59 0 -102 43t-43 104zM438 379v61q0 19 21 19h133q8 47 35 88l-97 96q-4 5 -4 14t4 13l43 43q5 5 14 5t13 -5l96 -97q41 27 88 35v137q0 6 5 11.5t14 5.5h61q7 0 12 -5.5t5 -11.5v-137q45 -8 88 -35l94 97q14 10 31 0l41 -43q5 -4 5 -13t-5 -14l-97 -96q28 -39 37 -88h135 q19 0 19 -19v-61q0 -7 -5.5 -12t-13.5 -5h-135q-8 -48 -37 -88l97 -94q10 -13 0 -30l-41 -41q-17 -10 -31 0l-94 96q-40 -29 -88 -37v-133q0 -21 -17 -21h-61q-19 0 -19 21v133q-49 9 -88 37l-96 -96q-4 -5 -13 -5t-14 5l-43 41q-10 17 0 30l97 94q-27 43 -35 88h-133 q-21 0 -21 17zM662 410q0 -70 50.5 -121t121.5 -51q69 0 120.5 51.5t51.5 120.5q0 71 -51 121.5t-121 50.5q-72 0 -122 -50t-50 -122z" />
<glyph unicode="&#x1ce;" d="M0 82v860h1229v-860h-1229zM61 205h1106v123h-1106v-123zM61 451h185v122h-185v-122zM61 696h1106v123h-1106v-123zM307 389h615v246h-615v-246zM983 451h184v122h-184v-122z" />
<glyph unicode="&#x1cf;" d="M102 106v812q0 44 31.5 75t75.5 31h811q44 0 75 -31t31 -75v-812q0 -44 -31 -75t-75 -31h-811q-44 0 -75.5 31t-31.5 75zM188 106q0 -7 6.5 -13.5t14.5 -6.5h811q8 0 14 6t6 14v812q0 8 -6 14t-14 6h-811q-8 0 -14.5 -6.5t-6.5 -13.5v-812zM328 225h368v82h-368v-82z M328 389h573v82h-573v-82zM328 553h573v82h-573v-82zM328 717h573v82h-573v-82z" />
<glyph unicode="&#x1d0;" />
<glyph unicode="&#x1d1;" d="M0 496h270v32h-270v-32zM205 0h819v348h-819v-348zM205 676h819v348h-819v-348zM317 553q0 -26 29 -49q30 -21 70 -21q22 0 63 15l-12 -11q-17 -17 -35 -26q-15 -10 -29 -10q-10 0 -14 4q-4 2 -4 12v4q-20 -9 -20 -20q0 -10 8 -15q9 -6 20 -6q28 0 86 55l10 11l25 20 q27 -27 51 -27q13 0 27 9q10 10 10 20q0 14 -10 21q-8 8 -25 8q-16 0 -32 -8l-15 14q-27 24 -39 33q-11 8 -26 8q-20 0 -35 -12q-14 -14 -14 -31q0 -13 8 -21t16 -8q14 0 25 15h-4q-15 0 -23 8q-8 5 -8 16q0 4 4 12q5 5 12 5q17 0 60 -43l10 -13q-14 -10 -39 -16 q-32 -8 -43 -8q-28 0 -55 20q-21 21 -21 49q0 11 2 15q-33 -6 -33 -29zM543 530q14 7 22 7q7 0 17 -5q4 -4 4 -10q0 -4 -2 -6t-11 -2q-14 0 -30 16zM627 518q0 -10 10 -20q13 -9 27 -9q24 0 51 27l24 -20l11 -11q58 -55 86 -55q11 0 20 6q8 5 8 15q0 11 -20 20v-4 q0 -10 -4 -12q-4 -4 -15 -4q-13 0 -28 10q-18 9 -35 26l-12 11q41 -15 63 -15q40 0 70 21q28 22 28 49q0 23 -32 29q2 -4 2 -15q0 -28 -21 -49q-27 -20 -55 -20q-11 0 -43 8q-25 6 -39 16l10 13q43 43 60 43q7 0 12 -5q4 -8 4 -12q0 -11 -8 -16q-8 -8 -23 -8h-4 q11 -15 25 -15q8 0 16 8t8 21q0 17 -14 31q-15 12 -35 12q-15 0 -26 -8q-12 -9 -39 -33l-15 -14q-16 8 -32 8q-17 0 -25 -8q-10 -7 -10 -21zM643 522q0 6 4 10q10 5 17 5q8 0 22 -7q-16 -16 -31 -16q-8 0 -10 2t-2 6zM958 496h271v32h-271v-32z" />
<glyph unicode="&#x1d2;" />
<glyph unicode="&#x1d3;" d="M0 254v668q0 42 30 72t72 30h1024q43 0 73 -29.5t30 -72.5v-668h-82v668q0 7 -6.5 13.5t-14.5 6.5h-1024q-8 0 -14 -6t-6 -14v-668h-82zM207 0v582h229v-582h-229zM207 643v195h819v-195h-819zM260 741q0 -26 18 -43.5t44 -17.5q25 0 43 17.5t18 43.5q0 25 -18 43.5 t-43 18.5q-26 0 -44 -18.5t-18 -43.5zM502 0v582h229v-582h-229zM756 715h41v8h-29l29 35v10h-41v-10h26l-26 -35v-8zM795 0v582h231v-582h-231zM803 729q0 -6 2 -8q3 -8 10 -8q1 0 3 1t3 1t2 1t2 1l2 2v-4h11v39h-11v-21v-6q-2 -4 -8 -4q-4 0 -6 2v4v25h-10v-25zM848 715 h10v18q0 6 2 6q0 4 10 4l-2 11q-4 0 -6 -2q-4 0 -4 -4v6h-10v-39zM877 715h10v22v6q2 2 6 2t6 -2v-6v-22h10v22q0 4 2 4q0 4 4 4q5 0 7 -2v-4v-24h10v24v6q0 5 -2 5l-4 4h-6h-7q-4 -4 -4 -6l-4 4q-2 2 -8 2q-4 0 -6 -2q-4 0 -4 -4v6h-10v-39zM940 733q0 -6 4 -14q6 -6 17 -6 q8 0 14 6q4 4 4 14q0 13 -4 17q-6 6 -14 6q-11 0 -17 -6q-4 -8 -4 -17zM950 733q0 8 2 10t9 2q4 0 6 -2t2 -10q0 -6 -2 -8q-4 -4 -6 -4q-5 0 -9 4q-2 2 -2 8z" />
<glyph unicode="&#x1d4;" />
<glyph unicode="&#x1d5;" d="M82 0h1065v88h-1065v-88zM82 172h301v510h-301v-510zM82 768h1065v256h-1065v-256zM467 172h295v510h-295v-510zM848 172h299v510h-299v-510z" />
<glyph unicode="&#x1d6;" />
<glyph unicode="&#x1d7;" d="M82 0h1065v88h-1065v-88zM82 172h301v213h-301v-213zM82 469h1065v342h-1065v-342zM82 895h1065v129h-1065v-129zM467 172h295v213h-295v-213zM848 172h299v213h-299v-213z" />
<glyph unicode="&#x1d8;" />
<glyph unicode="&#x1d9;" d="M82 0h1065v88h-1065v-88zM82 172h467v510h-467v-510zM82 768h1065v256h-1065v-256zM678 172h469v510h-469v-510z" />
<glyph unicode="&#x1da;" />
<glyph unicode="&#x1db;" d="M82 0h1065v88h-1065v-88zM82 172h297v510h-297v-510zM82 768h1065v256h-1065v-256zM465 172h682v510h-682v-510z" />
<glyph unicode="&#x1dc;" />
<glyph unicode="&#x2c6;" d="M252 0l725 512l-725 512v-1024z" />
<glyph unicode="&#x2c7;" d="M18 150v555q0 61 44 105t106 44h43v-854h-43q-62 0 -106 44t-44 106zM274 0v854h86v107q0 26 19 44.5t45 18.5h383q28 0 46.5 -18.5t18.5 -44.5v-107h84v-854h-682zM444 854h342v84h-342v-84zM1022 0v854h41q61 0 105 -44t44 -105v-555q0 -62 -44 -106t-105 -44h-41z" />
<glyph unicode="&#x2d8;" d="M18 106v320h449v-107q0 -18 12.5 -30.5t30.5 -12.5h213q17 0 30 13t13 30v107h446v-320q0 -44 -31 -75t-75 -31h-981q-44 0 -75.5 31t-31.5 75zM18 492v256q0 43 31.5 74.5t75.5 31.5h235v107q0 26 19 44.5t45 18.5h383q28 0 46.5 -18.5t18.5 -44.5v-107h234 q44 0 75 -31.5t31 -74.5v-256h-1194zM444 854h342v84h-342v-84zM530 342v84h170v-84h-170z" />
<glyph unicode="&#x2d9;" d="M0 123v778q0 43 30 73t72 30h1024q43 0 73 -30t30 -73v-778q0 -42 -30.5 -72.5t-72.5 -30.5h-1024q-41 0 -71.5 31t-30.5 72zM82 123q0 -8 6.5 -14.5t13.5 -6.5h1024q8 0 14.5 7t6.5 14v389h-1065v-389zM82 758h1065v143q0 7 -6.5 14t-14.5 7h-1024q-7 0 -13.5 -6.5 t-6.5 -14.5v-143zM164 184v82h164v-82h-164zM410 184v82h245v-82h-245z" />
<glyph unicode="&#x2da;" d="M0 463q0 92 64.5 156.5t156.5 64.5t157.5 -64.5t65.5 -156.5t-65.5 -157.5t-157.5 -65.5t-156.5 65.5t-64.5 157.5zM51 463q0 -71 49.5 -120.5t120.5 -49.5t120.5 49.5t49.5 120.5t-49.5 120.5t-120.5 49.5t-120.5 -49.5t-49.5 -120.5zM287 700q44 31 92 9q96 20 188 61 q1 1 11 6q15 6 36 6t37 -8q3 0 11 -4q84 -38 186 -61q47 21 94 -9q-77 -14 -128.5 -75t-51.5 -142q0 -42 14 -77h-6q-63 0 -81.5 36.5t16.5 87.5l45 64q-13 3 -66 14q-29 -26 -70 -26q-40 0 -69 26q-43 -7 -68 -14l45 -64q37 -51 17.5 -87.5t-82.5 -36.5h-4q14 44 14 77 q0 81 -51.5 142t-128.5 75zM545 686q0 -29 20 -49.5t49 -20.5q28 0 49 20.5t21 49.5q0 28 -21 49t-49 21q-29 0 -49 -21t-20 -49zM578 686q0 -15 10.5 -26t25.5 -11q14 0 24.5 11t10.5 26q0 14 -10.5 24.5t-24.5 10.5q-15 0 -25.5 -10.5t-10.5 -24.5zM784 463q0 92 65 156.5 t157 64.5t157.5 -64.5t65.5 -156.5t-65.5 -157.5t-157.5 -65.5t-157 65.5t-65 157.5zM836 463q0 -71 50 -121.5t120 -50.5t121 50.5t51 121.5q0 70 -50.5 120t-121.5 50q-70 0 -120 -49.5t-50 -120.5zM1007.5 378.5q-3.5 -22.5 10.5 -34.5q13 -14 35 -10.5t41 22.5 q19 17 22.5 40t-10.5 36q-12 14 -34.5 10.5t-41.5 -22.5t-22.5 -41.5z" />
<glyph unicode="&#x2db;" d="M113 729q0 123 92 209t231 86q140 0 232 -86t92 -209q0 -116 -88 -217q-15 -97 -78.5 -168.5t-157.5 -71.5q-91 0 -154.5 72t-76.5 168q-92 103 -92 217zM274 131v115q71 -58 162 -58t162 58v-115q0 -25 -26 -45t-70 -29v-26q0 -12 -10 -21.5t-25 -9.5h-59q-15 0 -26 9.5 t-11 21.5v26q-43 9 -70 29.5t-27 44.5zM293 403q0 -18 41.5 -29.5t101.5 -11.5q61 0 102.5 11.5t41.5 29.5q0 13 -23.5 23.5t-62.5 15.5l79 158q1 1 1 2.5t-1 3t-2.5 2.5t-4 2t-5.5 2q-19 4 -22 -6l-82 -160h-21h-20l-82 160q-3 10 -21 6q-14 -4 -10 -12l76 -158 q-86 -11 -86 -39zM305 141q53 -41 131 -41q37 0 70.5 10.5t47.5 20.5l15 10v45q-65 -43 -133 -43q-30 0 -63 10.5t-51 21.5l-17 11v-45zM647 293q0 -28 19 -47t47 -19h102v-104q0 -26 20 -45t46 -19q27 0 46 18.5t19 45.5v104h105q27 0 46 19.5t19 46.5q0 26 -19.5 45.5 t-45.5 19.5h-105v103q0 28 -18.5 46.5t-46.5 18.5q-27 0 -46.5 -19t-19.5 -46v-103h-102q-27 0 -46.5 -19t-19.5 -46z" />
<glyph unicode="&#x2dc;" d="M256 113q-3 12 2 22l256 705q-37 13 -37 55q0 25 17.5 42t42.5 17t42 -17t17 -42q0 -41 -39 -55v-4l256 -701q5 -10 2 -22t-12 -15h-4q-8 -3 -17.5 4t-13.5 19l-16 47l-195 -43v-105q0 -20 -18 -20q-8 0 -13.5 5.5t-5.5 14.5v105h-4l-197 45l-16 -49q-4 -12 -13.5 -19 t-17.5 -4h-4q-9 3 -12 15zM334 209l186 -43v123q-6 -3 -12 0l-135 30zM383 352l133 -30h4v110q-8 0 -12 4l-90 21zM428 483l92 -20v100h-6l-55 12zM467 594l51 -12h2v166zM557 168l180 39l-39 117l-141 -31v-125zM557 328l129 28l-35 107l-94 -23v-112zM557 469l84 18 l-31 93l-53 -13v-98zM557 588l47 10l-47 133v-143zM726 818q0 -18 13 -32q12 -12 30.5 -12t31.5 12l47 50l49 -50q12 -12 30.5 -12t30.5 12q12 14 12 32t-12 30l-49 49l49 49q12 12 12 30t-12 32q-12 12 -30.5 12t-30.5 -12l-49 -50l-47 50q-13 12 -31.5 12t-30.5 -12 q-13 -14 -13 -32t13 -30l47 -49l-47 -49q-13 -12 -13 -30z" />
<glyph unicode="&#x2dd;" d="M0 379q0 166 82.5 307.5t224 224t307.5 82.5t308 -82.5t224.5 -224t82.5 -307.5q0 -180 -96 -332q-12 -18 -37 -18h-963q-25 0 -37 18q-96 149 -96 332zM88 379q0 -37 25.5 -62.5t62.5 -25.5q36 0 62 26t26 62t-26 62t-62 26q-37 0 -62.5 -25.5t-25.5 -62.5zM219 686 q0 -37 25.5 -62.5t62.5 -25.5t62.5 25.5t25.5 62.5t-25.5 62.5t-62.5 25.5t-62.5 -25.5t-25.5 -62.5zM487 281q-14 -53 13.5 -101t81.5 -61q52 -13 98.5 14t60.5 80q10 41 -4.5 80.5t-48.5 62.5l70 262q5 17 -4.5 33.5t-26.5 20.5q-19 4 -34.5 -5t-20.5 -26l-68 -262 q-42 -3 -74.5 -30t-42.5 -68zM526 817q0 -36 26 -62t62 -26t62 26t26 62q0 37 -25.5 62.5t-62.5 25.5t-62.5 -25.5t-25.5 -62.5zM834 686q0 -37 25.5 -62.5t62.5 -25.5t62.5 25.5t25.5 62.5t-25.5 62.5t-62.5 25.5t-62.5 -25.5t-25.5 -62.5zM965 379q0 -36 26 -62t62 -26 q37 0 62.5 25.5t25.5 62.5t-25.5 62.5t-62.5 25.5q-36 0 -62 -26t-26 -62z" />
<glyph unicode="&#x394;" d="M61 115v794q0 53 41 86q32 29 74 29h397q47 0 81 -35.5t34 -83.5q0 -46 -34 -81.5t-81 -35.5h-276v-552h276q47 0 81 -35.5t34 -83.5q0 -46 -34 -81.5t-81 -35.5h-397q-50 0 -80 35h-2q-33 33 -33 80zM553 510l4 2l-2 2l352 311v-184h11h249v-260h-249h-11v-182z" />
<glyph unicode="&#x3a9;" d="M31 115v794q0 53 41 86q32 29 73 29h398q47 0 80.5 -35.5t33.5 -83.5q0 -46 -33.5 -81.5t-80.5 -35.5h-277v-552h277q47 0 80.5 -35.5t33.5 -83.5q0 -46 -33.5 -81.5t-80.5 -35.5h-398q-49 0 -79 35h-3q-32 32 -32 80zM584 383v260h250h12v182l352 -313l-4 -2l2 -2 l-352 -309v184h-10h-250z" />
<glyph unicode="&#x3bc;" d="M102 512q0 212 150 362t362 150t362 -150t150 -362q0 -142 -73 -262t-195 -187v109q81 58 128.5 148t47.5 192q0 173 -123.5 296.5t-296.5 123.5t-296 -123.5t-123 -296.5q0 -101 46.5 -190.5t125.5 -147.5v-108q-121 66 -193 185t-72 261zM307 559q18 126 102 192 t205 66t204.5 -66t103.5 -192h-158l-6 16l-82 -102q8 -15 10 -27q5 -32 -14 -59t-51 -33t-59.5 13t-33.5 53q-5 32 14.5 59t51.5 31q21 5 47 -6l102 96q-48 64 -129 64q-53 0 -92.5 -27.5t-56.5 -77.5h-158zM358 -24.5q2 4.5 11 4.5h114q9 0 15 6t6 14v252q0 8 6 14t14 6 h181q9 0 14.5 -6t5.5 -14v-252q0 -8 6.5 -14t13.5 -6h115q8 0 10 -4.5t-4 -10.5l-237 -268q-6 -6 -14.5 -6t-14.5 6l-238 268q-6 6 -4 10.5zM571 426q3 -14 15.5 -23t27.5 -6q13 3 22 15t7 26q-3 15 -15 23.5t-26 5.5q-15 -1 -24 -13.5t-7 -27.5zM713 672q34 -29 53 -51 l55 55h10q2 -2 0 -6q-3 -5 -55 -72l2 -4h117q-7 39 -45.5 91.5t-91.5 76.5z" />
<glyph unicode="&#x3c0;" d="M102 584q0 212 150 362t362 150t362 -150t150 -362q0 -204 -140 -351.5t-343 -158.5v-74h236q24 0 40.5 -16.5t16.5 -40.5v-88h45q19 0 31 -13t12 -32v-146q0 -18 -12.5 -31.5t-30.5 -13.5h-147q-17 0 -30 14t-13 31v146q0 19 13 32t30 13h45v88h-236v-88h45q19 0 31 -13 t12 -32v-146q0 -18 -12.5 -31.5t-30.5 -13.5h-145q-18 0 -31.5 13.5t-13.5 31.5v146q0 19 13 32t32 13h43v88h-236v-88h45q19 0 31 -13t12 -32v-146q0 -18 -12.5 -31.5t-30.5 -13.5h-145q-17 0 -31 14t-14 31v146q0 18 13.5 31.5t31.5 13.5h43v88q0 23 18 40t41 17h234v74 q-202 11 -343 159t-141 351zM195 584q0 -173 123 -296.5t296 -123.5t296.5 123.5t123.5 296.5t-123.5 296.5t-296.5 123.5t-296 -123.5t-123 -296.5zM307 631q18 126 102 192t205 66t204.5 -66t103.5 -192h-158l-6 16l-82 -102q8 -15 10 -27q5 -32 -14 -59t-51 -33t-59.5 13 t-33.5 53q-5 32 14.5 59t51.5 31q19 5 47 -7l102 97q-48 63 -129 63q-53 0 -92.5 -27t-56.5 -77h-158zM571 498q3 -14 15.5 -23t27.5 -6q13 3 22 15t7 26q-3 15 -15 23.5t-26 5.5q-15 -1 -24 -13.5t-7 -27.5zM713 743q34 -29 53 -51l55 56h9q4 -2 1 -7q-1 -2 -55 -71l2 -4 h117q-7 39 -45.5 91.5t-91.5 76.5z" />
<glyph unicode="&#x2000;" horiz-adv-x="682" />
<glyph unicode="&#x2001;" horiz-adv-x="1365" />
<glyph unicode="&#x2002;" horiz-adv-x="682" />
<glyph unicode="&#x2003;" horiz-adv-x="1365" />
<glyph unicode="&#x2004;" horiz-adv-x="455" />
<glyph unicode="&#x2005;" horiz-adv-x="341" />
<glyph unicode="&#x2006;" horiz-adv-x="227" />
<glyph unicode="&#x2007;" horiz-adv-x="227" />
<glyph unicode="&#x2008;" horiz-adv-x="170" />
<glyph unicode="&#x2009;" horiz-adv-x="273" />
<glyph unicode="&#x200a;" horiz-adv-x="75" />
<glyph unicode="&#x2010;" d="M0 283v661q0 20 13.5 33.5t33.5 13.5h1135q20 0 33.5 -13.5t13.5 -33.5v-510q-46 39 -99 39h-32v31q0 60 -43 102.5t-103 42.5t-102.5 -42.5t-42.5 -102.5v-31h-35q-60 0 -102.5 -43t-42.5 -104q0 -48 30 -90h-610q-20 0 -33.5 14t-13.5 33zM141 614h142v142h-142v-142z M768 262q0 22 14.5 37.5t36.5 15.5h129v125q0 22 14.5 37t36.5 15t37 -15t15 -37v-125h127q22 0 36.5 -15.5t14.5 -37.5t-14.5 -36.5t-36.5 -14.5h-127v-129q0 -22 -15 -36.5t-37 -14.5t-36.5 14.5t-14.5 36.5v129h-129q-22 0 -36.5 14.5t-14.5 36.5z" />
<glyph unicode="&#x2011;" d="M0 283v661q0 20 13.5 33.5t33.5 13.5h1135q20 0 33.5 -13.5t13.5 -33.5v-510q-46 39 -99 39h-32v31q0 60 -43 102.5t-103 42.5t-102.5 -42.5t-42.5 -102.5v-31h-35q-60 0 -102.5 -43t-42.5 -104q0 -48 30 -90h-610q-20 0 -33.5 14t-13.5 33zM141 614h142v142h-142v-142z M768 262q0 22 14.5 37.5t36.5 15.5h129v125q0 22 14.5 37t36.5 15t37 -15t15 -37v-125h127q22 0 36.5 -15.5t14.5 -37.5t-14.5 -36.5t-36.5 -14.5h-127v-129q0 -22 -15 -36.5t-37 -14.5t-36.5 14.5t-14.5 36.5v129h-129q-22 0 -36.5 14.5t-14.5 36.5z" />
<glyph unicode="&#x2012;" d="M0 283v661q0 20 13.5 33.5t33.5 13.5h1135q20 0 33.5 -13.5t13.5 -33.5v-510q-46 39 -99 39h-32v31q0 60 -43 102.5t-103 42.5t-102.5 -42.5t-42.5 -102.5v-31h-35q-60 0 -102.5 -43t-42.5 -104q0 -48 30 -90h-610q-20 0 -33.5 14t-13.5 33zM141 614h142v142h-142v-142z M768 262q0 22 14.5 37.5t36.5 15.5h129v125q0 22 14.5 37t36.5 15t37 -15t15 -37v-125h127q22 0 36.5 -15.5t14.5 -37.5t-14.5 -36.5t-36.5 -14.5h-127v-129q0 -22 -15 -36.5t-37 -14.5t-36.5 14.5t-14.5 36.5v129h-129q-22 0 -36.5 14.5t-14.5 36.5z" />
<glyph unicode="&#x2013;" d="M229 0v127q0 23 16.5 39t39.5 16q145 21 258 29q-10 20 -17 47t-5.5 87t22.5 122q15 43 18 81.5t-3.5 62t-15.5 41t-16 24.5l-8 8h2q-42 25 -66 66.5t-24 91.5q0 75 53.5 128.5t128.5 53.5t129 -53.5t54 -128.5q0 -50 -23.5 -91.5t-64.5 -66.5l-8 -8t-15.5 -24t-16 -42 t-3 -61.5t17.5 -81.5q47 -135 2 -256q53 -3 118 -10t104 -13l38 -6q23 0 38 -16t15 -39v-127h-768z" />
<glyph unicode="&#x2014;" d="M174 717v125q0 7 5 12.5t11 5.5h322v146q0 7 5 12.5t11 5.5h170q8 0 13.5 -5.5t5.5 -12.5v-146h321q17 0 17 -18v-125h-881zM287 10v574h133v-584h-123q-10 0 -10 10zM543 0v584h143v-584h-143zM809 0h123q10 0 10 10v574h-133v-584z" />
<glyph unicode="&#x2018;" d="M350 63v873q0 20 8.5 30.5t30.5 18.5q9 4 26.5 10.5t75 17.5t119.5 11t118.5 -10t81.5 -20l26 -9q43 -13 43 -49v-873q0 -21 -10.5 -34t-30.5 -13q-107 -16 -222 -16q-52 0 -108 4t-86 8l-31 4q-20 0 -30.5 13t-10.5 34zM387 172q0 -2 33 -7t89 -9t107 -4q30 0 87 4.5 t100 9.5t43 6v731q-101 39 -230 39q-59 0 -116 -9.5t-85 -18.5t-28 -11v-731zM395 84q-1 -9 5.5 -17t15.5 -10l35 -4q9 -2 17 4.5t9 16.5q1 9 -5 16.5t-15 9.5l-35 4q-9 2 -17.5 -4t-9.5 -16zM504 66q-2 -9 5 -17t17 -8l33 -2q23 0 27 22q0 9 -7 17t-16 8l-35 2 q-9 2 -16.5 -5t-7.5 -17zM565 975h27v14h-27v-14zM614 63q0 -9 8 -16.5t17 -7.5q10 0 17.5 7.5t7.5 16.5q0 11 -7 18t-18 7q-9 0 -17 -7.5t-8 -17.5zM633 975h26v14h-26v-14zM694 66q1 -10 9.5 -16.5t17.5 -4.5l88 10q9 2 15 10t5 17q-4 23 -26 20l-88 -10q-9 -2 -15.5 -9.5 t-5.5 -16.5z" />
<glyph unicode="&#x2019;" d="M35 215v766q0 19 12 31t31 12h1073q19 0 31 -12t12 -31v-766q0 -19 -12 -31t-31 -12h-492v-82q27 -3 64 -5t59 -3t47 -5.5t38.5 -12.5t22.5 -24t9 -40h-569q0 24 9 40t22 24t38.5 12.5t47 5.5t58.5 3t64 5v82h-491q-19 0 -31 12t-12 31zM121 258h987v680h-987v-680z" />
<glyph unicode="&#x201c;" d="M223 616q6 25 25 41q17 13 28 15l109 30l-12 13q-36 40 -49 67q-17 34 -21 52q-8 24 -8 57q0 26 10 49q16 48 64 70q28 14 69 14q36 0 60 -8q28 -6 57 -25q55 -30 94 -84q27 -38 37 -73q11 -38 8 -74q-3 -34 -14 -55l125 -33q11 -2 37 -15q24 -16 32 -24q32 -32 41 -68 q5 -13 5 -30q3 -11 -2 -25q-3 -10 -11 -23q-13 -18 -39 -28q-15 -6 -34 -6q-9 0 -29 4l-37 8l29 -100l172 -195h2q24 -29 33 -61q7 -23 4 -39q0 -19 -13 -35q-6 -13 -16 -19q-26 -16 -53 -16q-28 0 -60 16q-27 12 -53 41l-143 164l-47 -164q-2 -9 -13 -24q-6 -9 -18 -17 q-17 -12 -51 -16q-11 0 -31 4q-1 0 -13 4t-18 8q-32 16 -53 43q-23 23 -33 56q-4 20 -4 28q0 17 4 25l51 197l-28 98l-23 -6q-8 -4 -28 -4q-19 0 -37 6q-19 6 -35 16q-29 18 -55 60q-10 17 -13 28q-7 34 -2 53zM287 580q0 -2 1 -8t1 -9l6 -12q5 -10 16 -21q12 -9 21 -12 q6 -2 14 -2t12 2l60 19h8q10 0 20 -7q18 -11 21 -24l43 -150q3 -8 0 -14l-53 -205q0 -2 -1 -5.5t-1 -4.5q2 -4 2 -12q9 -19 14 -25q9 -11 25 -18q8 -4 14 -4q4 -2 12 -2q13 0 19 2q1 1 3.5 3t4.5 4t4 5q4 4 4 8l61 209v4q6 16 25 16q21 0 33 -18h2q0 -2 2 -2l180 -209 q9 -9 23 -16q12 -6 24 -6q14 0 23 6q4 2 8 6q0 2 1 4.5t1 3.5q3 10 0 23q-2 11 -16 28l-181 203q-4 4 -8 16l-43 150q-6 14 4 24q9 9 19 9q1 0 3.5 -1t4.5 -1l80 -19q4 -2 12 -2q14 0 23 6q5 3 14 17q2 4 2 14q0 8 -2 12q-4 15 -12 23q-4 6 -19 16q-12 6 -16 6l-166 41 q-4 2 -10 2q-22 4 -35 23q-10 23 2 35q14 15 25 39q8 19 8 49l-6 35q-2 6 -17 36q-18 27 -26 35q-30 33 -70 45q-29 11 -53 11q-17 0 -35 -7q-13 -2 -29 -14q-28 -22 -31 -57q-4 -26 5 -49q6 -28 24 -52q12 -22 41 -47q13 -14 31 -24q22 -13 22 -35q0 -9 -6 -16t-16 -7 q-6 0 -8 -2l-144 -41q-10 -3 -16 -12q-3 -3 -8 -18z" />
<glyph unicode="&#x201d;" d="M256 31v962q0 12 9.5 21.5t21.5 9.5h655q12 0 21.5 -9.5t9.5 -21.5v-962q0 -12 -9.5 -21.5t-21.5 -9.5h-655q-12 0 -21.5 9.5t-9.5 21.5zM293 180h641v783h-641v-783zM565 92q0 -20 14.5 -34.5t34.5 -14.5t35 14.5t15 34.5t-15 34.5t-35 14.5t-34.5 -14.5t-14.5 -34.5z " />
<glyph unicode="&#x2020;" d="M160 143v146q0 11 8.5 18.5t19.5 7.5h148q12 0 20.5 -7t8.5 -19v-146q0 -12 -8.5 -22t-20.5 -10h-148q-10 0 -19 10t-9 22zM160 496v147q0 12 8.5 19.5t19.5 7.5h148q12 0 20.5 -7.5t8.5 -19.5v-147q0 -11 -8.5 -21t-20.5 -10h-148q-10 0 -19 10t-9 21zM160 848v147 q0 12 8 20.5t20 8.5h148q12 0 20.5 -8.5t8.5 -20.5v-147q0 -12 -8.5 -20.5t-20.5 -8.5h-148q-12 0 -20 8.5t-8 20.5zM453 139v148q0 12 8 20t20 8h557q12 0 20.5 -8t8.5 -20v-148q0 -12 -8.5 -20t-20.5 -8h-557q-12 0 -20 8t-8 20zM453 496v147q0 12 8 19.5t20 7.5h557 q12 0 20.5 -7.5t8.5 -19.5v-147q0 -11 -8.5 -21t-20.5 -10h-557q-11 0 -19.5 10t-8.5 21zM453 850v147q0 12 8 19.5t20 7.5h557q11 0 20 -7.5t9 -19.5v-147q0 -12 -9 -21.5t-20 -9.5h-557q-12 0 -20 9.5t-8 21.5z" />
<glyph unicode="&#x2021;" d="M260 877q2 -1 66.5 -32.5t108.5 -68t24 -65.5q33 48 47 91t10.5 73t-16 55t-31.5 40.5t-36 26t-29 15.5l-13 4h14t36 -4t52.5 -11.5t58 -25t58.5 -41.5t49.5 -64t34.5 -90q27 -17 43 14q27 51 -4 207q73 -253 136 -316q26 -27 33 -1q4 15 -1 41l22 -61l17 -56 q18 -78 20.5 -163.5t-12.5 -151.5q-24 -126 -117 -209.5t-219 -83.5q-137 0 -235 104t-98 252q0 111 51 191q12 16 18 22q3 6 7.5 17.5t9 46t-1 69t-31.5 83t-72 92.5zM469 254q33 -43 94 -71q34 -15 60 -15q61 0 103 31t42 77q0 39 -75 159q-75 121 -112 138q-14 7 -18 -6 q-2 -6 6 -36t14 -65t4 -71t-30 -63.5t-82 -34.5q-36 -4 -6 -43z" />
<glyph unicode="&#x2022;" d="M102 512q0 212 150 362t362 150t362 -150t150 -362t-150 -362t-362 -150t-362 150t-150 362zM333 318.5q0 -33.5 23 -56.5q25 -25 58.5 -25t56.5 23l141 141l146 -145q25 -23 57 -23t57 23q23 23 23 56.5t-23 56.5l-147 147l139 137q24 25 24 58t-24 57t-56.5 24 t-57.5 -24l-140 -137l-131 131q-25 25 -58 25t-56 -25q-23 -23 -23 -56.5t23 -56.5l133 -133l-142 -141q-23 -23 -23 -56.5z" />
<glyph unicode="&#x2026;" d="M74 737l2 13h18q20 -1 51 -4.5t97.5 -19t97.5 -36.5q50 -31 63.5 -58.5t8.5 -66.5q-4 -36 -2.5 -43t14.5 -18l8 -8q11 25 23 34q27 22 34.5 37.5t24.5 87.5q21 83 59.5 139.5t133.5 120.5q105 71 292 95q32 5 63.5 8.5t47.5 4.5l16 1h29l-8 -25q-4 -10 -10.5 -27.5 t-29.5 -67t-47 -92.5t-60.5 -91.5t-73.5 -77.5q-111 -88 -213 -104q-33 -4 -101 -4q-71 3 -96 0q-4 0 -7.5 -1t-7.5 -2.5t-6 -2.5t-6 -4t-6 -4t-7 -5.5t-7 -5.5q-14 -15 -30.5 -83.5t-26.5 -129.5l-9 -61q-4 -5 -12 -5q-5 0 -9 1.5t-6 2.5l-1 1q16 149 49 237q-7 18 -12 23 q-9 5 -12 6.5t-12.5 3t-23.5 2t-42 0.5q-57 -2 -96.5 9t-86.5 46q-27 23 -43.5 66.5t-19.5 75.5zM96 84q10 12 12.5 20.5t0 18t-2.5 12.5q0 6 15.5 16t36 24.5t30.5 29.5q34 52 60 45q10 -4 24.5 0t24.5 12q25 18 45 0q11 -8 14 -8q0 -5 -1 -10l-1 -6v-9l6 -6q6 -12 31 -12 q21 0 27 12l4 4v6l6 35q23 0 29 -6q11 -11 29 -18t30 2q3 3 5.5 4.5t6.5 1.5h7.5t8.5 -2t8.5 -3.5t10 -4t10.5 -4.5q9 -3 20.5 -12t17 -11.5t20.5 2.5q19 9 36 1t17 -19q2 -9 11 -15.5t18 -5.5q28 4 37 -10q4 -10 16 -21.5t18 -13.5q7 -1 10.5 -2.5t5.5 -4.5t1 -9 q0 -2 -0.5 -7.5t-0.5 -8t1 -6.5t4.5 -5.5t9.5 -1.5q55 0 62 -6q6 -4 4 -12.5t-11 -14.5q-27 -12 -41 -8q-4 0 -5 0.5t-4 -1l-4 -2t-4.5 -3t-6.5 -4.5q-1 -1 -4.5 -4t-5.5 -4.5t-5.5 -4t-6.5 -3.5t-6 -1.5t-6 1t-5 4.5q-8 9 -27 9t-26 -5q-9 -6 -27.5 -13.5t-26.5 -3.5 q-43 29 -59 17q-11 -4 -14 -4t-13.5 3.5t-19.5 4.5q-13 2 -30 -10t-31 -13q-12 0 -29.5 5.5t-29 10.5t-13.5 3q-1 -1 1 -8t0.5 -12t-9.5 -1q-18 4 -39.5 2t-28.5 -4t-45 17q-22 2 -25.5 3t-27.5 -4.5t-25 -5.5q-27 -5 -52 4q-11 4 -5 9q1 1 -10.5 11.5t-10.5 16.5 q1 5 -15.5 6.5t-28.5 5.5t-3 15z" />
<glyph unicode="&#x202f;" horiz-adv-x="273" />
<glyph unicode="&#x2030;" d="M164 231v459l397 -231v-459zM217 795l397 229l398 -229l-396 -230zM312 374.5q0 -23.5 14 -48.5q18 -29 34 -37q22 -13 37 -4q13 9 13 32.5t-13 49.5q-14 22 -35 36q-24 10 -36 3q-14 -8 -14 -31.5zM386 793.5q0 -17.5 22 -27.5q20 -12 49 -12t49 12q20 10 20 27.5 t-20 29.5q-22 11 -50 11t-50 -11q-20 -12 -20 -29.5zM543 886q0 -17 22 -28q20 -12 49.5 -12t49.5 12q22 10 22 27.5t-22 29.5q-20 11 -49.5 11t-49.5 -11q-22 -12 -22 -29zM545 701.5q0 -17.5 20 -27.5q22 -12 51.5 -12t49.5 12q20 10 20 27.5t-20 29.5q-22 11 -50.5 11 t-50.5 -11q-20 -12 -20 -29.5zM660 391.5q1 30.5 20 61.5q16 31 43 45q24 15 43 6l104 -62l107 183q16 31 43 45q25 16 43 4q19 -9 19 -38.5t-17 -60.5l-107 -182l107 -61q19 -10 19 -40t-19 -61q-17 -29 -43 -47q-26 -13 -43 -4l-109 62l-104 -183q-19 -31 -43 -45 q-25 -16 -43 -4q-19 9 -19 38.5t17 60.5l106 182l-106 61q-19 9 -18 39.5zM703 793.5q0 -17.5 22 -27.5q20 -12 49 -12t49 12q22 10 22 27.5t-22 29.5q-20 11 -49 11t-49 -11q-22 -12 -22 -29.5z" />
<glyph unicode="&#x2039;" d="M84 758h160v-492h211v492h159l-264 266zM614 266h162v492h209v-492h162l-266 -266z" />
<glyph unicode="&#x203a;" d="M0 20q0 -20 20 -20h1188q21 0 21 20v164q0 9 -6 15t-15 6h-1188q-20 0 -20 -21v-164zM0 430q0 -20 20 -20h1188q21 0 21 20v164q0 20 -21 20h-1188q-20 0 -20 -20v-164zM0 840q0 -21 20 -21h1188q9 0 15 6t6 15v164q0 20 -21 20h-1188q-20 0 -20 -20v-164z" />
<glyph unicode="&#x2044;" d="M434 96q0 -49 31 -71q31 -25 67 -25q67 0 127 57q38 35 105 136l-31 18q-26 -41 -55 -74q-30 -37 -53 -37q-7 0 -15 4q-6 6 -6 21q0 13 12 65q1 8 19 70l106 395l-59 -10q-47 -9 -104 -14q-93 -11 -115 -13v-36q38 0 65 -9q17 -6 17 -34v-11q0 -2 -1 -5t-1 -5l-86 -313 l-15 -55q-8 -33 -8 -54zM537 895q0 -51 38 -92q37 -37 93 -37q52 0 92 37q37 40 37 92q0 55 -37 92q-40 37 -92 37q-56 0 -93 -37q-38 -38 -38 -92z" />
<glyph unicode="&#x205f;" horiz-adv-x="341" />
<glyph unicode="&#x20ac;" d="M209 862q0 68 47.5 115t114.5 47t114 -47t47 -115q0 -76 -57 -123l98 -133q24 8 41 8q20 0 43 -10l97 135q-56 46 -56 123q0 68 47 115t115 47t115 -47t47 -115t-47 -115t-115 -47q-22 0 -65 13l-90 -154q12 -21 12 -47q0 -34 -19.5 -60.5t-50.5 -35.5l-8 -94 q59 -9 98 -54.5t39 -105.5q0 -68 -47 -115t-115 -47q-66 0 -113.5 47.5t-47.5 114.5q0 60 39 105.5t98 54.5l-10 94q-30 11 -49 37t-19 59q0 28 12 49l-90 154q-34 -15 -63 -15q-67 0 -114.5 47t-47.5 115zM274 862q0 -40 28.5 -68t68.5 -28q12 0 32 4l-32 51q-17 0 -29 12 t-12 29t12 29t29 12t29 -12t12 -29q0 -11 -6 -20l32 -49q29 26 29 69q0 40 -28 68t-68 28t-68.5 -28t-28.5 -68zM516 162q0 -40 28 -68t68 -28q41 0 70 28t29 68q0 35 -22 61.5t-56 32.5v-59q20 -10 20 -35q0 -17 -12 -29t-29 -12q-15 0 -27 12t-12 29q0 24 21 35v59 q-34 -6 -56 -32.5t-22 -61.5zM762 862q0 -41 31 -69l32 49q-6 9 -6 20q0 17 12 29t29 12t29 -12t12 -29t-12 -29t-29 -12l-33 -51q20 -4 33 -4q40 0 68 28t28 68t-28 68t-68 28t-69 -28t-29 -68z" />
<glyph unicode="&#x2122;" horiz-adv-x="2457" d="M31 596q0 127 53.5 238.5t148.5 189.5l70 -86q-75 -61 -118.5 -151t-43.5 -191t43.5 -190t118.5 -150l-70 -86q-95 76 -148.5 187.5t-53.5 238.5zM254 596q0 77 32.5 144t88.5 112l69 -86q-79 -63 -79 -170q0 -104 79 -170l-69 -84q-56 45 -88.5 112t-32.5 142zM453 49 q0 4 2 8h-2l92 334h80l86 -332h-2q2 -4 2 -10q0 -20 -37.5 -34.5t-91.5 -14.5t-91.5 14.5t-37.5 34.5zM477 590q0 44 31.5 75t75.5 31q43 0 73.5 -31t30.5 -75q0 -43 -30.5 -74t-73.5 -31q-44 0 -75.5 31t-31.5 74zM726 443q0 -34 26 -60q23 -23 55.5 -23t58.5 23l90 92 l93 -92q23 -23 57 -23t57 23q25 26 25 60t-25 57l-92 92l92 92q25 23 25 57t-25 60q-23 23 -57 23t-57 -23l-93 -92l-90 92q-26 23 -58.5 23t-55.5 -23q-26 -26 -26 -60t26 -57l88 -92l-88 -92q-26 -23 -26 -57z" />
<glyph unicode="&#x2202;" d="M164 231v459l397 -231v-459zM217 795l397 229l398 -229l-396 -230zM312 374.5q0 -23.5 14 -48.5q18 -29 34 -37q22 -13 37 -4q13 9 13 32.5t-13 49.5q-14 22 -35 36q-24 10 -36 3q-14 -8 -14 -31.5zM386 793.5q0 -17.5 22 -27.5q20 -12 49 -12t49 12q20 10 20 27.5 t-20 29.5q-22 11 -50 11t-50 -11q-20 -12 -20 -29.5zM543 886q0 -17 22 -28q20 -12 49.5 -12t49.5 12q22 10 22 27.5t-22 29.5q-20 11 -49.5 11t-49.5 -11q-22 -12 -22 -29zM545 701.5q0 -17.5 20 -27.5q22 -12 51.5 -12t49.5 12q20 10 20 27.5t-20 29.5q-22 11 -50.5 11 t-50.5 -11q-20 -12 -20 -29.5zM668 0v459l399 231v-459zM703 793.5q0 -17.5 22 -27.5q20 -12 49 -12t49 12q22 10 22 27.5t-22 29.5q-20 11 -49 11t-49 -11q-22 -12 -22 -29.5zM739 178q0 -23 14.5 -31.5t34.5 3.5q22 12 37 37.5t15 48.5q0 25 -15 32.5t-37 -4.5 q-20 -12 -34.5 -37t-14.5 -49zM899 455q0 -25 14.5 -33t34.5 4q20 10 34.5 35.5t14.5 50.5q0 23 -14.5 31.5t-34.5 -2.5q-22 -12 -36.5 -37.5t-12.5 -48.5z" />
<glyph unicode="&#x2205;" d="M164 93q0 15 10 32q7 13 20 25.5t21 22t15.5 42.5t11.5 88q4 57 23 107t53 94t57.5 68.5t64.5 62.5q47 42 60 70q55 -21 112 -21q62 0 115 23q12 -31 59 -72q36 -33 51 -47.5t48 -52.5t49.5 -67t32 -73t18.5 -90q3 -56 11.5 -89t16.5 -43t20.5 -22.5t19.5 -25.5 q39 -63 -95 -95q-121 -30 -370 -30q-425 0 -424 93zM299 268q29 -62 83 -99t111 -45.5t109 -8.5t86 7l33 7q-83 4 -157 20t-120.5 36t-81 38.5t-48.5 31.5zM311 964q0 6 15 7q39 3 66 11.5t37 16.5t20.5 13t23.5 2q11 -3 23 -14t19.5 -18.5t21 -10t26.5 11.5q58 46 123 23 q4 -2 18 -8.5t18 -8t15.5 -6t17 -5t15.5 -2t17.5 0t17.5 4.5t20 8q32 18 72 -1q30 -13 24 -29q-7 -12 -34 -17q-136 -37 -164 -123q-49 -23 -108 -23t-109 23l-4 2q-27 37 -131 99q-59 36 -60 44zM313 379q33 -57 87 -97t92 -52l38 -11q-23 13 -44.5 29t-38 32t-31 33 t-25 32.5t-19.5 30t-15 26t-10 19.5l-6 12t-3 3q4 -26 12.5 -53t14.5 -41l6 -14q-13 5 -27.5 18t-22.5 23zM477 743q3 9 11 12.5t16 0.5q2 -2 10 -6q45 -17 100.5 -17t100.5 19q1 0 3 2t3 2q8 3 16 -0.5t11 -12.5q7 -17 -11 -24l-10 -6q-71 -23 -115 -23q-41 0 -112 23 l-13 6q-17 7 -10 24zM479 797q8 15 23 12q2 -2 4 -2q49 -22 108.5 -22t108.5 22q7 3 15.5 0t11.5 -10q7 -18 -11 -25q-54 -29 -125 -29q-68 0 -125 29q-17 7 -10 25zM510 70q4 -3 12.5 -6.5t36.5 -10t58 -7t76.5 9.5t94.5 34q-68 -16 -137.5 -21t-104.5 -2zM510 453 q0 -43 29.5 -73t72.5 -30t73 30t30 73t-30 72.5t-73 29.5t-72.5 -29.5t-29.5 -72.5zM526 446l9 3q4 -4 4 -5q0 3 2 5l10 2q-1 0 -1.5 -2l-1 -4t-1.5 -3q-1 -3 -4 -3.5t-4 1.5q0 -6 -7 -2q-4 0 -4 4zM526 463q5 2 9 -2l2 -2q1 0 2 1t2 1h8l-4 -6q-4 -4 -8 0q0 -5 -7 -2z M528 432q7 2 11 2q1 0 2 -1t2 -1q0 2 2 4l8 4q0 -6 -2 -10q-3 -5 -6 -2q0 -7 -6 -4q-3 0 -7 4zM528 479q7 0 9 -4q2 0 2 -4l4 4l8 -2q-4 -6 -6 -6q-6 -3 -6 0h-9zM535 418q4 4 10 4l4 -2q0 2 2 4q0 2 1.5 3.5t3.5 2.5h1q2 -6 2 -10q-3 -7 -6 -4h-2q3 -6 -4 -6q-4 0 -8 4z M535 483v11q4 -1 6 -5l2 -4q2 2 4 2l6 -4q-2 -4 -6 -4q-6 -3 -6 2q-3 -3 -6 2zM541 496l2 10q6 -2 6 -4v-4h4l6 -4l-8 -5q-4 0 -4 5q-4 0 -6 2zM545 403q4 7 8 7h4v4l8 8q2 -6 2 -10q0 -6 -6 -6q2 -2 0.5 -4.5t-4.5 -2.5q-6 0 -8 2zM551 508l4 10q4 -4 4 -6q0 -4 -2 -4h4 l6 -4q-6 -4 -8 -4l-4 4v2q-4 -4 -4 2zM555 391q4 8 8 8q2 2 6 2q-2 0 -2 5l6 8q5 -4 5 -8q0 -9 -5 -9q2 -1 1 -3.5t-5 -2.5q-3 -3 -8 0h-6zM556 918.5q-2 -6.5 3 -13.5q33 -59 33 -80q4 16 -6 45q-17 55 -6 74q-1 -1 -3.5 -2t-8 -4.5t-8 -8t-4.5 -11zM561 518l6 8q2 -4 2 -6 v-4h2l4 -6q-4 -2 -6 0q-4 0 -4 4q-4 0 -4 4zM569 383q2 8 6 10h7q-1 1 -2 3t-2 3q0 5 6 11q0 -1 1 -2.5t2.5 -4t2.5 -4.5q0 -6 -4 -6v-2q3 0 1 -4q-1 -1 -3 -2q-2 -2 -9 -2h-6zM633 188q4 -1 10.5 -2t27.5 -1t42.5 3.5t51 16t57 32t57.5 55.5t55 83l2 4q-2 -2 -2 -4 q-8 -14 -17.5 -27t-36 -40t-57 -48t-81.5 -42t-109 -30zM635 399q3 6 8 11q0 -1 2 -5t2 -6l-4 -6h6l6 -10h-6q-6 0 -8 2q-5 3 -2 6v2q-4 0 -4 6zM647 406l4 8q6 -4 6 -8q0 -5 -2 -5q5 0 7 -2q2 0 4 -2t3 -4l1 -2h-6q-6 -3 -9 0q-4 0 -5 2.5t1 3.5q-4 0 -4 9zM649 510 q0 4 4 6h4q-2 0 -2 4l2 6q7 -4 7 -8t-5 -4q0 -4 -2 -4h-8zM657 412l2 10q7 -4 9 -8v-4h4q2 0 4 -2t3 -4l1 -1q-2 -2 -4 -2q-2 -2 -8 -2q-3 0 -4.5 2.5t0.5 4.5q-7 0 -7 6zM657 504q3 4 7 4h4q-2 0 -2 4l4 6q4 -6 4 -10q0 -6 -4 -2v-2q0 -2 -4 -4zM666 420l2 10q6 -2 6 -6 l2 -4q2 2 4 2l10 -4l-4 -4q-4 -4 -8 -4q-7 0 -4 6q-5 -2 -8 4zM672 440q6 -2 8 -4l2 -4q1 0 2 1t2 1l10 -2l-4 -4q-4 -4 -6 -4q-6 -3 -6 4q-3 -3 -6 2zM672 483q2 4 6 4l4 -2q0 2 2 4l6 5q2 -9 0 -11q-3 -5 -6 -2q0 -5 -6 -2zM672 498h4v4l6 4q2 -6 2 -10q-2 -2 -6 -2 q0 -5 -4 -5zM674 451q6 0 10 -2q2 -2 2 -5q0 1 4 5l8 -3q0 -2 -2 -4q0 -4 -4 -4q-6 -3 -6 2q-1 -2 -4 -1.5t-4 3.5q-1 1 -1.5 3l-1 4t-1.5 2zM674 473l8 2l4 -4q0 4 2 4l8 4q0 -8 -2 -12h-8q0 -3 -6 0zM676 461q6 2 8 0q1 0 2 -1t2 -1q0 2 2 2l8 2q0 -8 -4 -10q-6 -3 -6 2 q-4 -4 -8 0zM856 121q4 0 11 1t24 8t30 17.5t24 33t11 52.5q-6 -10 -15.5 -25.5t-36 -46t-48.5 -40.5z" />
<glyph unicode="&#x2206;" d="M102 145v734q0 60 43 102.5t103 42.5h733q60 0 102.5 -42.5t42.5 -102.5v-734q0 -60 -42.5 -102.5t-102.5 -42.5h-162v406h154l8 149h-162v109v8q0 34 12.5 49.5t49.5 15.5h98v137q-44 7 -105 7q-104 0 -158 -55t-54 -136v-135h-144v-149h144v-406h-414q-60 0 -103 42.5 t-43 102.5z" />
<glyph unicode="&#x220f;" d="M152 29v127q0 12 8 20t20 8h148q12 0 20 -8t8 -20v-127q0 -12 -8 -20.5t-20 -8.5h-148q-12 0 -20 8.5t-8 20.5zM152 449v126q0 12 8 20.5t20 8.5h148q12 0 20 -8.5t8 -20.5v-126q0 -12 -8 -20.5t-20 -8.5h-148q-12 0 -20 8.5t-8 20.5zM152 868v127q0 12 8 20.5t20 8.5 h148q12 0 20 -8.5t8 -20.5v-127q0 -12 -8 -20t-20 -8h-148q-12 0 -20 8t-8 20zM463 31q0 -12 8.5 -21.5t20.5 -9.5h557q11 0 19.5 9.5t8.5 21.5v127q0 12 -8.5 19t-19.5 7h-557q-12 0 -20.5 -7t-8.5 -19v-127zM463 451q0 -12 8.5 -21.5t20.5 -9.5h557q11 0 19.5 9.5 t8.5 21.5v127q0 12 -8.5 19t-19.5 7h-557q-12 0 -20.5 -7t-8.5 -19v-127zM463 870q0 -12 8.5 -21t20.5 -9h557q11 0 19.5 9t8.5 21v127q0 12 -8.5 19.5t-19.5 7.5h-557q-12 0 -20.5 -7.5t-8.5 -19.5v-127z" />
<glyph unicode="&#x2211;" d="M213 883q0 59 40.5 99t98.5 40q63 0 107 -51h18q58 43 137 43q80 0 138 -43h12q46 53 110 53q57 0 98.5 -41.5t41.5 -99.5t-47 -105q39 -110 39 -268q0 -152 -37 -264q49 -43 49 -107q0 -57 -40.5 -98t-98.5 -41q-62 0 -109 51h-18q-58 -43 -138 -43q-79 0 -137 43h-10 q-47 -51 -111 -51q-58 0 -99.5 41t-41.5 98q0 60 45 105q-39 119 -39 266t39 266q-47 44 -47 107zM350 137h527v748h-527v-748zM557 711q0 -23 17 -40.5t40 -17.5t40.5 17.5t17.5 40.5t-17.5 40t-40.5 17t-40 -17t-17 -40zM563 238h103v346h-103v-346z" />
<glyph unicode="&#x2212;" d="M0 43h33v981h-33v-981zM74 47h45v6h-33l33 58v6h-43v-6h33l-35 -58v-6zM74 170h14v854h-14v-854zM129 70q0 -15 2 -17q0 -2 4 -6q2 -2 8 -2q7 0 11 2t8 10v-10h10v51h-10v-30q-5 -9 -8 -11q-2 -4 -9 -4h-4l-4 4v11v30h-8v-28zM129 170h66v854h-66v-854zM180 47h8v29 l11 12q2 2 8 2h4v-12h8v20h-10q-8 0 -10 -2q-2 -1 -11 -10v12h-8v-51zM227 47h9v29q4 8 6 10q0 4 4 4q2 0 2 -2q2 0 2 -6v-35h6v27q3 9 6 12l4 4h2q2 -2 2 -4v-4v-35h9v37q0 4 -1 8l-2 4q-2 2 -6 2t-6 -2l-4 -4l-4 -8v4q0 6 -2 8t-6 2t-6 -2t-6 -10v12h-9v-51zM236 170h14 v854h-14v-854zM287 72q0 -13 6 -19q8 -8 18 -8q11 0 19 8q6 6 6 19q0 12 -6 18q-8 8 -19 8q-10 0 -18 -8q-6 -6 -6 -18zM291 170h65v854h-65v-854zM297 72q0 10 4 14q3 6 10 6q8 0 11 -6q4 -4 4 -14q0 -11 -4 -15q-3 -6 -11 -6q-7 0 -10 6q-4 4 -4 15zM344 82q0 -9 4 -21 q3 -8 10 -12q9 -6 17 -6q2 0 14 4v8q-8 -4 -14 -4t-10 4q-5 2 -9 11q-2 4 -2 16q0 10 2 16q4 9 9 11q4 4 10 4t14 -4v8q-6 2 -14 2q-11 0 -17 -4q-5 -2 -10 -13q-4 -12 -4 -20zM397 47h11v29h8l20 -29h10l-20 33q4 2 8 6t4 6q2 4 2 8q0 2 -1 5t-1 4q-3 6 -8 6q-2 2 -12 2 h-21v-70zM397 170h56v854h-56v-854zM408 84v27h6q9 0 14 -5q4 -4 4 -8q-2 -2 -2 -4t-4 -6q0 -1 -6 -4h-12zM457 47h6v51l2 -6l12 -33h8l11 33l2 6v-51h10v70h-10l-17 -47l-16 47h-8v-70zM494 170h14v854h-14v-854zM547 43h35v981h-35v-981zM627 47h45v8h-37q0 4 4 8q3 6 6 9 l4 6l6 4q11 11 11 14q4 4 4 10q0 5 -2 9q-3 3 -9 6h-10h-10q-2 0 -10 -4v-8q4 4 8 4q2 0 4 2h6q2 0 4.5 -1t3.5 -1q4 -2 4 -9v-6l-8 -8q-2 -4 -6 -8l-4 -4l-8 -8q-3 -6 -6 -9v-6v-8zM627 170h55v854h-55v-854zM688 82q0 -15 8 -27q6 -12 19 -12q6 0 18 8q6 9 6 19q0 4 -4 12 q0 2 -6 8q-2 0 -6 1t-6 1t-10 -4q-7 -3 -9 -8v2q0 14 4 22q7 11 17 11q6 0 14 -4v8q-4 2 -14 2q-15 0 -23 -10q-8 -12 -8 -29zM702 68q0 7 5 12q2 4 10 4t10 -4q4 -4 4 -10q0 -2 -1 -5.5t-1 -5.5l-6 -6q-2 -2 -8 -2q-4 0 -8 4q-5 5 -5 13zM727 170h14v854h-14v-854zM758 82 q0 -18 6 -27q6 -12 18 -12t21 12q6 9 6 27q0 20 -6 29q-8 10 -21 10t-18 -10q-6 -9 -6 -29zM766 84q0 10 4 22q9 9 12 9q4 0 6 -2q4 0 7 -7l-27 -38v8q-2 4 -2 8zM772 57l25 41q2 -4 2 -14q0 -17 -4 -23q-3 -10 -13 -10q-4 0 -6 2zM786 170h56v854h-56v-854zM827 47 q12 -4 19 -4q4 0 12 4q4 2 10 8q4 8 4 15q0 9 -10 16q-6 6 -24 6v19h30v8h-41v-35h7q14 0 22 -4q6 -6 6 -12q0 -1 -1 -4t-1 -5l-6 -6q-2 0 -4.5 -1t-3.5 -1q-2 0 -5 1t-5 1q-1 1 -4.5 2t-4.5 2v-10zM887 170h14v854h-14v-854zM891 47h43v6h-16v66h-11q-7 -7 -16 -10v-9l10 4 q1 1 3 3.5t3 3.5v-58h-16v-6zM946 170h35v854h-35v-854zM952 96q0 -2 1 -6t1 -6l9 -8q4 -2 12 -2q2 0 10 4q5 3 8 8v-2q0 -16 -6 -25q-4 -8 -14 -8q-7 0 -15 4v-8q8 -4 15 -4q13 0 22 12q6 9 6 29q0 18 -6 27q-5 10 -18 10q-10 0 -19 -6q-6 -9 -6 -19zM961 96q0 2 1 5t1 5 l6 7q1 0 3.5 1t4.5 1q4 0 8 -4t4 -13q0 -8 -4 -12q-2 -4 -10 -4t-10 4q-4 4 -4 10zM1020 111h39l-6 -11l-2 -2l-9 -10l-6 -10q-6 -6 -6 -12q-2 -4 -2 -13v-6h10v6v10q1 1 2 4.5t2 4.5t3.5 5t3.5 7l6 6q0 1 1 2t1 2q8 8 8 12q2 2 2 7v6h-47v-8zM1026 170h39v854h-39v-854z M1085 63q0 -7 7 -14q6 -6 16 -6q12 0 18 6q7 7 7 14q0 1 -5 11l-8 8l-4 4l8 8q1 1 2 3t2 3v6q0 5 -2 9q-4 4 -6 4q-4 2 -10 2q-10 0 -14 -4q-6 -6 -6 -13q0 -6 4 -10q2 -4 6 -8h2q-17 -14 -17 -23zM1096 63q0 7 12 19l2 -2l8 -8q4 -4 4 -9q0 -4 -4 -8t-10 -4q-4 0 -8 4 q-4 2 -4 8zM1098 104q0 3 4 7q0 4 6 4q4 0 8 -4t4 -7q0 -4 -2 -6l-8 -8l-2 2q-4 2 -8 6q0 1 -1 3t-1 3zM1110 170h23v854h-23v-854zM1178 43h51v981h-51v-981z" />
<glyph unicode="&#x221a;" d="M152 29v147q0 12 8 20.5t20 8.5h148q12 0 20 -8.5t8 -20.5v-147q0 -12 -8 -20.5t-20 -8.5h-148q-12 0 -20 8.5t-8 20.5zM152 438v148q0 12 8 20t20 8h148q12 0 20 -8t8 -20v-148q0 -12 -8 -20t-20 -8h-148q-12 0 -20 8t-8 20zM152 848v147q0 12 8 20.5t20 8.5h148 q12 0 20 -8.5t8 -20.5v-147q0 -12 -8 -20.5t-20 -8.5h-148q-12 0 -20 8.5t-8 20.5zM463 31q0 -12 8.5 -21.5t20.5 -9.5h557q11 0 19.5 9.5t8.5 21.5v147q0 12 -8.5 19.5t-19.5 7.5h-557q-12 0 -20.5 -7.5t-8.5 -19.5v-147zM463 440q0 -12 8.5 -21t20.5 -9h557q11 0 19.5 9 t8.5 21v148q0 12 -8.5 19t-19.5 7h-557q-12 0 -20.5 -7t-8.5 -19v-148zM463 850q0 -12 8.5 -21.5t20.5 -9.5h557q11 0 19.5 9.5t8.5 21.5v147q0 12 -8.5 19.5t-19.5 7.5h-557q-12 0 -20.5 -7.5t-8.5 -19.5v-147z" />
<glyph unicode="&#x221e;" d="M102 205v276q71 -71 189 -71q23 0 35 2q-19 -32 -19 -68q0 -28 12 -48.5t37 -43.5h-63q-105 0 -191 -47zM102 840v39q0 60 43 102.5t103 42.5h733q60 0 102.5 -42.5t42.5 -102.5v-74h-145v145h-74v-145h-147v-74h147v-145h74v145h145v-586q0 -60 -42.5 -102.5 t-102.5 -42.5h-291q4 20 4 29q0 80 -27 129.5t-108 111.5q-1 1 -12 9t-14.5 11t-14 11.5t-15.5 13t-14 12.5t-13.5 13.5t-9.5 12.5t-7 13t-2 11q0 30 13 50.5t56 53.5q103 82 103 185q0 64 -26 116.5t-73 79.5h91l77 82h-346q-74 0 -139.5 -28t-110.5 -76zM109 104 q34 48 96.5 78t134.5 29q39 0 90 -14q9 -7 41 -29t41.5 -29.5t28.5 -24.5t27.5 -31.5t13.5 -31.5q4 -24 4 -37q0 -10 -2 -14h-336q-49 0 -87 29t-52 75zM160 674q-12 92 29 154t110 59q70 -1 124 -66.5t66 -158.5q12 -92 -25 -147t-106 -52q-72 2 -129 61t-69 150z" />
<glyph unicode="&#x222b;" d="M102 145v734q0 60 43 102.5t103 42.5h733q60 0 102.5 -42.5t42.5 -102.5v-734q0 -60 -42.5 -102.5t-102.5 -42.5h-733q-60 0 -103 42.5t-43 102.5zM248 739q0 -33 23 -55t61 -22q39 0 62.5 22t23.5 55q0 34 -23 56t-61 22t-62 -22t-24 -56zM258 145h150v455h-150v-455z M492 145h151v254q0 27 4 37q21 56 78 56q76 0 76 -103v-244h151v261q0 100 -48.5 152t-125.5 52q-94 0 -135 -75v65h-151v-455z" />
<glyph unicode="&#x2248;" d="M20 430q0 178 127 305t304 127q180 0 306 -126.5t126 -305.5q0 -178 -126.5 -304t-305.5 -126q-177 0 -304 126.5t-127 303.5zM86 475q6 -35 20 -45q22 -12 29 6q10 -16 27 -2q6 4 11 13t7 15l2 7q-21 8 -35 0q-9 -6 -12 -16q-3 10 -12 16q-6 5 -15.5 6.5t-15.5 0.5z M88 408q2 -9 8 -19q10 -17 21 -20q12 -5 19 -2t7 10l2 2v-2q13 -10 29 6q4 5 7 15t4 17l1 7q-24 4 -34 -8q-11 -11 -11 -19q-7 11 -16 15q-8 3 -16.5 3t-14.5 -3zM100 541q-1 -35 9 -47q17 -14 28 0q7 -17 27 -7q5 3 11 10t9 13l4 6q-2 1 -5.5 2.5t-13 4.5t-13.5 -1 q-12 -3 -15 -12q-4 12 -10 18q-4 5 -12 8.5t-13 3.5zM102 342l11 -18q14 -14 26 -17q25 -5 25 17h2q6 -6 14.5 -4t14.5 14q4 7 5 17.5t1 16.5v7q-27 -3 -37 -15q-6 -9 -6 -20q-5 5 -19 12q-9 2 -17.5 0t-13.5 -6zM123 600q-6 -31 2 -43q12 -21 27 -6q3 -16 22 -10q6 1 14 6 t12 9l5 5q-2 2 -5.5 4.5t-12.5 6.5t-15 3q-5 -1 -14 -10q0 13 -4 19t-11.5 10t-13.5 5zM127 279q8 -9 16 -15q15 -12 31 -12q14 0 19.5 6t3.5 14v2q19 -10 26 17q2 10 1.5 19.5t-2.5 16.5l-1 7q-25 -7 -33 -23q-4 -8 -4 -22q-8 8 -20 8q-7 1 -16.5 -3.5t-15.5 -9.5zM153 631 q-3 -12 1 -17q9 -20 22 -10q-2 -6 4 -10t17 -4q6 1 13.5 4.5t11.5 6.5l5 3q-12 17 -26 19q-10 0 -17 -7v19q-2 6 -8 11t-11 7l-5 2l-2.5 -7.5t-4.5 -16.5zM166 223l18 -12q22 -11 35 -8q27 5 19 28l-2 2h2q9 -3 16 3.5t8 19.5q1 7 -2 18t-6 18l-4 7q0 -1 -6.5 -5.5t-14 -12 t-10.5 -15.5q0 -14 2 -20q-8 4 -20 4q-9 -1 -17.5 -7.5t-13.5 -12.5zM193 664q3 -18 18 -11h2v-2q-7 -14 14 -18q5 0 13.5 2.5t13.5 4.5l6 3q-10 17 -22 19q-10 3 -17 0q2 4 2 16q-1 6 -5 12.5t-7.5 9.5t-3.5 2q-1 1 -3 -1.5t-4 -6.5t-4 -9t-3 -10.5t0 -10.5zM215 176 q9 -6 23 -8q22 -7 36 -2q13 6 15.5 16t-4.5 17q23 0 20 28q-1 8 -6 17.5t-9 16.5l-5 7l-6 -6q-6 -5 -11.5 -13.5t-5.5 -17.5q0 -13 6 -22q-5 2 -24 -2q-9 -2 -16 -9.5t-10 -14.5zM240 709q0 -19 16 -19q-7 -14 10 -20q6 -2 13 -1.5t13 1.5l7 2q-6 18 -18 24q-8 4 -15 2 q6 6 6 15q1 5 -2 11.5t-6 10.5l-4 4q-20 -18 -20 -30zM274 139q9 -4 23 -4q24 -4 37 6q24 15 4 35h2q9 2 13 10.5t1 20.5q-4 9 -11 18.5t-12 14.5l-5 6q-2 -3 -5.5 -7t-8.5 -15.5t-3 -20.5q2 -10 10 -21q-9 3 -24 -6q-8 -4 -13.5 -13t-7 -16.5t-0.5 -7.5zM334 352h227v56 h-123l123 143v55h-223v-57h129l-133 -141v-56zM346 293h100l56 -33v33h59v45h-215v-45zM550.5 186.5q3.5 -8.5 12.5 -10.5q-17 -21 6 -35q13 -10 39 -6l23 4q-5 29 -23 37q-12 9 -24 6q9 9 12 21q1 9 -3.5 19.5t-9.5 17.5l-5 6q-21 -19 -27 -39q-4 -12 -0.5 -20.5zM584 883 q48 66 120.5 103.5t155.5 37.5q144 0 245 -101.5t101 -244.5q0 -130 -85 -226.5t-212 -115.5q19 62 19 123q0 56 -17 119h35v32h-45q0 1 -1 3t-1 3h47v50h-72q-2 6 -10 18l82 90v41h-170v-27q-52 41 -78 54l11 4q-9 16 -19 18q-10 0 -14 -2q2 4 2 15q0 4 -3 8.5t-6 6.5l-3 3 q-2 -2 -4.5 -5.5t-6 -11.5t-2.5 -12v-2q-51 18 -69 19zM598 227q-3 -28 20 -28q-13 -21 11 -33q15 -6 39 2l20 8q-11 27 -29 31q-16 4 -24 2q8 12 6 22q0 9 -5.5 17.5t-11.5 13.5l-6 6q0 -1 -4 -7t-9 -16t-7 -18zM606 672q2 -1 5.5 -1.5t12.5 -1.5t13 1q19 6 12 20 q17 0 17 19q0 5 -5 12.5t-11 12.5l-5 5l-4.5 -4.5t-6.5 -9.5t-3 -12l6 -15q-4 2 -16 -2q-4 -3 -8 -9t-5 -11zM643 256q0 -13 7 -19.5t16 -3.5h2v-2q-11 -22 16 -28q16 -3 35 8l18 12q-14 25 -32 27q-13 0 -25 -4q5 8 2 20q-2 8 -9 15.5t-13 12.5l-7 5q-1 -3 -3 -8t-5 -16.5 t-2 -18.5zM643 643q1 0 6.5 -2.5t13.5 -5t13 -2.5q20 3 16 18l-2 2h2q6 -3 13 -0.5t8 11.5q1 19 -15 38q0 1 -4.5 -2t-9 -9.5t-4.5 -12.5q-2 -7 2 -16q-6 3 -14 0q-6 -1 -12 -5.5t-9 -9t-4 -4.5zM676 604q17 -12 31 -14q12 0 17 4t3 10h2q4 -5 11 -2.5t10 12.5q2 8 0.5 17 t-4.5 17l-3 7q-18 -6 -22 -20q-3 -9 0 -19q-11 7 -19 7q-6 -1 -12.5 -5.5t-9.5 -9.5zM677 310.5q-2 -12.5 1 -19.5q10 -27 29 -17h2l-2 -2q-2 -8 3.5 -14t18.5 -6q16 0 31 12l16 15q-2 2 -6 5.5t-14 8.5t-19 4q-6 0 -18 -8q2 7 -2 22q-4 7 -12.5 13t-15.5 8l-7 2 q-1 -3 -2 -7t-3 -16.5zM690 899q0 -18 15 -14q-8 -8 8 -15q5 -2 10.5 -1.5t9.5 1.5l4 2q-4 13 -10 17q-6 2 -14 2q2 1 6 12q0 4 -3 10t-6 9l-3 4q-15 -17 -17 -27zM700 561q15 -18 29 -20q9 -3 16 0t7 10q14 -14 26 6q4 5 4.5 16t-0.5 19l-2 8q-22 -2 -28 -16q-7 -10 -7 -19 q-3 6 -14 10q-6 1 -14 -2.5t-13 -7.5zM705 375q-2 -25 4 -41q15 -23 28 -10q0 -8 7.5 -14t19.5 -3q18 4 24 17l15 18q-2 2 -6 4t-15 6t-18 0q-14 -7 -19 -12q0 11 -6 20q-10 15 -34 15zM715 516q12 -23 24 -29q21 -9 27 7v2l2 -2q3 -6 10 -6.5t15 6.5q5 5 8 17t3 21l1 9 q-23 -1 -33 -13q-8 -12 -8 -18q-6 9 -14 12q-8 2 -16 1t-14 -4zM717 422q4 -27 14 -39q6 -8 14.5 -9.5t12.5 3.5l2 2v-2q5 -19 26 -8q14 4 21 20l10 19q-3 1 -7 2t-15.5 3t-16.5 -3q-12 -8 -14 -15q-4 13 -10 19q-5 5 -14.5 7t-15.5 1h-7zM721 469q8 -25 18 -35q22 -15 29 2 h2q7 -17 27 -6q6 4 11 15.5t7 20.5l2 9q-25 6 -35 -6q-9 -6 -12 -16q-4 11 -14 16q-6 4 -15 4t-15 -2zM797 768h75l-36 -41q-17 23 -39 41zM940 500q-6 -22 12 -25h2l-2 -2q-7 -4 -6.5 -12.5t10.5 -14.5q10 -10 29 -6l21 2q-5 25 -19 33q-12 6 -20 6q8 4 8 15q2 7 -1 15.5 t-7 13.5l-4 5q-17 -16 -23 -30zM979 514q-3 -22 16 -22q-12 -16 11 -25q6 -4 26 0l19 6q0 2 -2.5 7t-9 11.5t-13.5 8.5q-10 3 -16 0q6 11 4 18q0 7 -5 14.5t-9 11.5l-5 3q-14 -17 -16 -33zM985 872q2 -1 5 -1.5t10 -1.5t10 1q15 8 8 15q6 -2 9.5 1.5t2.5 12.5q0 4 -3.5 11 t-6.5 12l-4 4q-10 -13 -10 -23q1 -2 1.5 -5t1 -4.5t1.5 -2.5q-7 0 -13 -2q-4 -2 -7 -6t-4 -7zM1014 539q3 -25 18 -19h2l-2 -2q-3 -6 1 -12.5t14 -9.5q12 -3 26 6l17 10q-13 20 -27 20q-13 0 -19 -2q5 10 3 17q-2 6 -8 12t-11 9l-6 3q-8 -20 -8 -32zM1016 846q1 -1 3 -1.5 t3.5 -1.5t4 -1.5t4.5 -1t4.5 -1t4.5 0.5q18 3 15 14q13 -4 16 12q1 4 -2 11.5t-7 12.5l-3 5q-15 -8 -15 -18q-2 -5 3 -15q-4 2 -15 2q-4 -1 -8 -5.5t-6 -8.5zM1040 817q15 -12 27 -12q14 0 14 12q12 -8 19 8q3 6 2 13t-4 14l-2 6q-17 -6 -21 -18q-4 -8 0 -15q-2 4 -12 4 q-5 0 -11 -3t-9 -6zM1043 580q-1 -10 1 -15q7 -23 21 -12h2v-2q-4 -16 16 -16q5 0 25 10l14 12q-2 2 -5 4.5t-11 6.5t-14 3q-14 -3 -19 -6q3 7 0 17q-3 6 -9.5 10.5t-11.5 5.5l-5 2q-1 -2 -2 -6t-2 -14zM1061 782q12 -14 20 -16q16 -6 21 8q11 -11 20 4q4 4 4.5 13.5 t-0.5 16.5l-2 7q-18 -4 -22 -14q-4 -6 -4 -15l-15 7q-4 1 -9.5 -2t-9.5 -6zM1063 635q-2 -23 6 -35q7 -17 21 -6h2v-2q-2 -7 3.5 -11t16.5 -3q9 3 18 16l11 12q-2 1 -4.5 3t-10.5 4.5t-14 0.5q-9 -3 -16 -10q3 10 -4 17q-4 5 -11 8.5t-13 4.5zM1073 670q2 -19 10 -31 q14 -17 25 -2q4 -18 22 -10q6 3 17 18l6 12q-2 1 -5 2t-12 3t-12 -3q-4 -1 -8.5 -4t-5.5 -4q0 4 -6 13q-3 2 -7 3.5t-8 2t-8 0.5h-6h-2zM1073 745q9 -16 19 -22q16 -10 20 6h2q8 -16 21 0q4 4 6 13t2 16v8q-17 0 -25 -10q-6 -6 -6 -15q-10 10 -12 11q-5 2 -12 0t-11 -4z M1075 709q7 -21 17 -29q15 -12 22 2l2 2v-2q2 -6 7.5 -8t13.5 4q5 4 9 12t6 14l1 7q0 1 -5 2t-11.5 0.5t-10.5 -4.5q-5 -3 -10 -13q-3 6 -10 13q-5 2 -13 2t-13 -1z" />
<glyph unicode="&#x2260;" d="M61 596q0 127 54 238.5t149 189.5l70 -86q-75 -61 -118.5 -151t-43.5 -191t43.5 -190t118.5 -150l-70 -86q-95 76 -149 187.5t-54 238.5zM285 596q0 77 32.5 144t88.5 112l69 -86q-80 -64 -80 -170q0 -103 80 -170l-69 -84q-56 45 -88.5 112t-32.5 142zM483 49q0 4 2 8 h-2l92 334h80l86 -332h-2q2 -4 2 -10q0 -20 -37.5 -34.5t-91.5 -14.5t-91.5 14.5t-37.5 34.5zM508 590q0 44 31 75t75 31q43 0 74 -31t31 -75q0 -43 -31 -74t-74 -31q-44 0 -75 31t-31 74zM756 426q80 67 80 170q0 106 -80 170l69 86q56 -45 88.5 -112t32.5 -144 q0 -75 -32.5 -142t-88.5 -112zM897 256q75 61 118.5 150t43.5 190t-43.5 191t-118.5 151l70 86q94 -78 148 -189.5t54 -238.5t-54 -238.5t-148 -187.5z" />
<glyph unicode="&#x2264;" d="M98.5 691q-0.5 8 5.5 14l201 198v2q-32 41 -20 53q1 0 4 3l160 63l-64 -160q0 -2 -2 -4q-11 -11 -51 21q0 -2 -2 -2l-199 -201q-13 -14 -27 0q-5 5 -5.5 13zM268 512q0 142 102 244t244 102q143 0 245 -102t102 -244t-102 -243t-245 -101t-244.5 101t-101.5 243zM322 547 q6 -27 16 -35q15 -10 22 4q8 -12 23 0q4 4 8 10.5t6 11.5l2 5q-18 6 -28 0q-7 -5 -11 -13q-5 10 -10 13q-4 4 -11 5t-12 0zM324 494l6 -15q6 -11 16 -18q20 -6 23 10q9 -12 22 4q4 4 6.5 11t3.5 13t2 7q-1 -1 -7 -1t-12.5 -1.5t-10.5 -5.5q-3 -3 -8 -13q-2 3 -13 11 q-14 6 -28 -2zM332 600q0 -27 8 -37q14 -11 22 0q4 -14 21 -4q5 2 10 7.5t7 10.5l3 5q-2 1 -4.5 2t-10 3t-11.5 -1q-6 -2 -12 -8q0 5 -7 12q-4 4 -10.5 6.5t-11.5 3.5h-4zM334 440q4 -6 10 -12q14 -14 21 -14q20 -6 20 14q14 -10 23 8q3 4 4 12.5t1 14.5t1 6q-21 0 -31 -12 q-4 -12 -4 -17q-7 6 -14 9q-6 2 -14 -0.5t-13 -5.5zM352 614q13 -16 21 -4h2v-2q0 -14 18 -8q4 2 10 6.5t9 7.5l4 4q-1 1 -3.5 3t-9.5 4.5t-12 1.5q-9 0 -12 -6q0 6 -4 14q-3 5 -8.5 8.5t-10.5 4.5l-4 1q-6 -25 0 -35zM354 391q7 -6 15 -12q15 -10 24 -10q21 0 17 18v2l2 -2 q14 -7 20 14q1 4 1 10t-0.5 11t-1.5 10l-1 4q0 -1 -5.5 -3t-12 -6.5t-9.5 -10.5q-6 -9 -2 -17q-7 7 -16 7q-7 1 -15 -3t-12 -8zM374.5 673q-2.5 -10 0.5 -14q6 -16 18 -8q0 -12 17 -12q5 1 11 4t9 5l4 3q-10 15 -20 15q-7 0 -15 -4q3 6 0 14q-1 5 -5.5 9t-8.5 5l-4 2 q-1 -2 -2.5 -5.5t-4 -13.5zM385 346l16 -8q13 -10 27 -6q23 3 14 20v2q8 -3 14 2t7 15q0 7 -2.5 16t-4.5 14l-3 5q-21 -11 -23 -25q-3 -10 0 -16q-4 2 -16 2q-7 0 -14.5 -5.5t-11.5 -10.5zM406 700q1 -8 6.5 -11t9.5 1v-2q-4 -11 12 -14l27 8q-9 14 -19 16h-12q2 2 2 13 q0 4 -3.5 9t-6.5 8l-4 3q-2 -2 -4 -5.5t-5.5 -12t-2.5 -13.5zM424 307q8 -2 18 -6q22 -4 29 0q22 8 10 25l-2 2h2q8 -2 12.5 4t4.5 18q-1 6 -5 14.5t-8 13.5l-4 5q-18 -15 -18 -31q0 -8 4 -16q-12 0 -18 -2q-7 -2 -13.5 -8.5t-9.5 -12.5zM444 733q0 -7 4 -10.5t9 -1.5 q-4 -11 10 -16q4 -2 10 -1.5t11 2.5l4 1q-5 14 -13 18q-6 2 -12 2l4 12q0 4 -2.5 9.5t-4.5 8.5l-3 3q-17 -15 -17 -27zM471 279l18 -5q17 0 31 7q20 14 4 26l-2 2h2q19 3 13 25q-3 6 -8.5 13.5t-10 12t-4.5 5.5q-16 -16 -14 -33q4 -15 8 -19q-13 0 -19 -4t-10.5 -11.5 t-6.5 -13.5zM520 451h182v41h-100l100 118v45h-180v-49h105l-107 -112v-43zM530 403h80l41 -26v26h51v33h-172v-33zM692 334q-6 -21 13 -25h2l-2 -2q-16 -12 4 -26q14 -7 30 -7l19 5q-5 22 -19 30q-6 4 -18 4q4 4 8 19q1 6 -2 14t-7 14l-3 5q-21 -21 -25 -31zM731 350 q0 -12 4.5 -18t12.5 -4h2l-2 -2q-12 -17 10 -25q6 -4 28 0l19 6q-9 23 -25 27q-6 2 -18 2q6 11 4 16q0 7 -4.5 15t-9.5 12l-4 4q-15 -19 -17 -33zM737 707q2 -1 5 -1.5t10.5 -1.5t11.5 1q14 7 8 16q5 -2 8.5 1.5t3.5 10.5q0 5 -4 12t-8 11l-4 4q-10 -11 -10 -21q4 -11 6 -12 q-8 0 -12 -2t-8 -6.5t-6 -8.5zM766 371q2 -11 7.5 -15.5t12.5 -1.5v-2q-3 -7 0.5 -13t14.5 -7q13 -3 26 6l17 8q-13 21 -29 21q-12 0 -16 -2q3 6 0 16q-1 6 -6.5 12.5t-10.5 9.5l-6 3q-10 -19 -10 -35zM768 682q17 -8 27 -8q16 3 12 14v2q4 -4 9.5 -1t6.5 11q1 5 -2 13 t-7 13l-3 5q-12 -10 -14 -20q0 -11 2 -13h-13q-4 -1 -8.5 -5t-7.5 -7zM780 0l64 162q0 2 2 4q12 9 51 -21q0 2 2 2l199 201q15 11 26 0q6 -4 6 -12t-6 -14l-200 -199v-2q32 -41 20 -53q-2 -2 -4 -2zM795 651q14 -10 24 -12q17 0 17 12q12 -8 18 8q2 7 0.5 14t-4.5 13l-2 6 q-17 -4 -19 -16q-3 -8 0 -14q-8 4 -14 4q-4 0 -9 -4t-8 -8zM796 411q0 -6 1 -10q6 -20 22 -14q-4 -18 17 -18q6 0 26 10l12 12l-4.5 4.5t-10.5 7t-15 3.5q-10 0 -17 -7q4 8 -2 17q-3 6 -9.5 10.5t-11.5 6.5t-5 3l-1 -4q-1 -5 -1.5 -10t-0.5 -11zM813 618q13 -14 23 -18 q18 -6 18 8v2h2q8 -12 21 4q3 4 3 13t-2 15l-1 7q-17 -2 -23 -14q-4 -8 -4 -14q-3 6 -12 6q-5 1 -11.5 -1.5t-10.5 -5.5zM815 469q1 0 1 -6t1 -14.5t4 -12.5q9 -17 23 -10q0 -7 5 -11t15 -1q7 0 21 14l10 12q-2 1 -5 3.5t-11.5 5t-14.5 0.5q-8 -3 -14 -9q0 5 -4 17 q-10 12 -31 12zM825 506q1 -1 2.5 -7t4 -13t6.5 -11q13 -16 22 -4q3 -16 23 -10q11 7 16 18l8 15q-2 1 -5 2t-12 2t-13 -2q-11 -8 -13 -11q-5 10 -8 13q-4 4 -11 5.5t-13 1.5t-7 1zM825 582q9 -19 21 -23q17 -10 20 4q8 -12 23 0q4 4 6 13.5t2 16.5v7q-19 0 -27 -10 q-6 -6 -6 -12q-6 6 -12 8q-5 2 -11 1t-11 -3zM829 543q7 -19 17 -27q14 -11 22 0q7 -14 23 -4q5 4 9 12.5t6 15.5l1 7q-18 6 -28 -4q-7 -5 -11 -13q-5 10 -10 13q-4 3 -11.5 3t-12.5 -2z" />
<glyph unicode="&#x2265;" d="M0 139q40 -4 59 -4q180 0 314 109q-81 1 -146 49.5t-90 124.5q24 -6 49 -6q28 0 66 10q-88 17 -145.5 87t-57.5 163q62 -28 115 -31q-52 34 -82.5 89.5t-30.5 119.5q0 70 35 129q94 -117 229 -187t291 -77q-6 27 -6 57q0 105 73.5 178.5t178.5 73.5q109 0 182 -80 q89 18 160 62q-23 -84 -109 -140q71 8 144 39q-52 -77 -125 -129q2 -12 2 -35q0 -101 -29.5 -202t-90 -193.5t-144.5 -164t-202 -114t-253 -42.5q-208 0 -387 114z" />
<glyph unicode="&#x25ca;" d="M342 815q0 62 26.5 116.5t71.5 92.5l35 -43q-78 -65 -78 -166q0 -100 78 -168l-35 -41q-45 38 -71.5 92.5t-26.5 116.5zM358.5 102.5q-3.5 9.5 1.5 20.5l234 641q-35 14 -35 51q0 22 15.5 37.5t37.5 15.5q23 0 39.5 -15.5t16.5 -37.5q0 -37 -35 -51v-4l233 -637 q7 -26 -10 -33h-2q-8 -3 -17 3t-12 16l-16 45l-176 -39v-97q0 -18 -17 -18q-8 0 -13 5t-5 13v97h-4l-176 39l-17 -45q-3 -10 -11.5 -16t-16.5 -3h-2q-9 3 -12.5 12.5zM430 190l168 -38v110h-10l-123 29zM451 815q0 76 59 125l35 -43q-39 -28 -39 -82q0 -53 39 -84l-35 -41 q-59 46 -59 125zM475 319l121 -26h2v100q-6 0 -10 4l-82 19zM516 440l82 -20v92h-6l-49 12zM551 541l45 -11q1 0 1 -1t1 -1v152zM633 152l164 36l-35 107l-129 -29v-114zM633 299l117 27l-33 94l-84 -19v-102zM633 426l78 18l-31 84l-47 -12v-90zM633 535l43 10l-43 121 v-131zM682 731q39 34 39 84q0 51 -39 82l35 43q59 -52 59 -125q0 -76 -59 -125zM752 647q77 67 77 168q0 102 -77 166l32 43q47 -38 74 -92.5t27 -116.5t-27 -116.5t-74 -92.5z" />
<glyph unicode="&#x25fc;" horiz-adv-x="1024" d="M0 0v1024h1024v-1024h-1024z" />
</font>
</defs>
</svg>
